ply
format ascii 1.0
comment S2D2 voxel export
element vertex 1856
property float x
property float y
property float z
property uchar red
property uchar green
property uchar blue
end_header
0.000 8.000 2.400 0 175 0
0.000 8.000 2.800 0 175 0
0.000 9.200 1.600 0 175 0
0.000 9.200 2.000 0 175 0
0.000 9.200 2.400 0 175 0
0.000 10.000 1.600 0 175 0
0.000 10.000 2.000 0 175 0
0.000 10.400 1.200 0 175 0
0.000 12.800 0.800 0 175 0
0.000 13.200 0.800 0 175 0
0.000 18.800 1.200 0 175 0
0.000 19.200 1.200 0 175 0
0.000 21.200 0.400 0 175 0
0.000 21.200 0.800 0 175 0
0.000 21.200 1.200 0 175 0
0.000 21.600 0.400 0 175 0
0.000 21.600 0.800 0 175 0
0.000 21.600 1.200 0 175 0
0.000 29.600 0.000 0 175 0
0.000 30.800 0.400 0 175 0
0.000 31.200 0.400 0 175 0
0.000 31.600 0.400 0 175 0
0.000 31.600 0.800 0 175 0
0.000 32.000 0.400 0 175 0
0.000 32.400 0.400 0 175 0
0.000 32.800 0.400 0 175 0
0.000 32.800 0.800 0 175 0
0.000 33.600 1.200 0 175 0
0.000 33.600 2.000 0 175 0
0.000 34.000 0.400 0 175 0
0.000 34.000 2.000 0 175 0
0.000 34.000 2.400 0 175 0
0.000 34.400 0.400 0 175 0
0.000 34.400 0.800 0 175 0
0.000 34.400 1.600 0 175 0
0.000 34.400 2.000 0 175 0
0.000 34.800 0.400 0 175 0
0.000 34.800 0.800 0 175 0
0.000 34.800 1.200 0 175 0
0.000 35.200 0.800 0 175 0
0.000 35.200 1.200 0 175 0
0.000 35.200 1.600 0 175 0
0.000 35.600 1.200 0 175 0
0.000 35.600 1.600 0 175 0
0.400 7.600 2.800 0 175 0
0.400 10.800 1.200 0 175 0
0.400 14.400 0.800 0 175 0
0.400 16.400 1.200 0 175 0
0.400 19.600 1.200 0 175 0
0.400 20.400 0.800 0 175 0
0.400 20.400 1.200 0 175 0
0.400 20.400 1.600 0 175 0
0.400 20.800 0.400 0 175 0
0.400 20.800 0.800 0 175 0
0.400 21.200 0.400 0 175 0
0.400 21.200 0.800 0 175 0
0.400 21.200 1.200 0 175 0
0.400 21.600 0.400 0 175 0
0.400 21.600 0.800 0 175 0
0.400 21.600 1.200 0 175 0
0.400 30.000 0.400 0 175 0
0.400 30.400 0.400 0 175 0
0.400 30.800 0.400 0 175 0
0.400 31.200 0.400 0 175 0
0.400 31.600 0.400 0 175 0
0.400 31.600 0.800 0 175 0
0.400 32.000 0.400 0 175 0
0.400 32.000 2.000 0 175 0
0.400 32.400 0.400 0 175 0
0.400 32.400 1.600 0 175 0
0.400 32.400 2.000 0 175 0
0.400 32.400 2.400 0 175 0
0.400 32.800 0.400 0 175 0
0.400 32.800 0.800 0 175 0
0.400 32.800 1.200 0 175 0
0.400 32.800 1.600 0 175 0
0.400 32.800 2.400 0 175 0
0.400 33.200 1.200 0 175 0
0.400 33.200 1.600 0 175 0
0.400 33.200 2.000 0 175 0
0.400 33.200 2.400 0 175 0
0.400 33.600 1.200 0 175 0
0.400 33.600 1.600 0 175 0
0.400 33.600 2.000 0 175 0
0.400 33.600 2.400 0 175 0
0.400 34.000 0.400 0 175 0
0.400 34.000 0.800 0 175 0
0.400 34.000 2.000 0 175 0
0.400 34.400 1.200 0 175 0
0.400 34.400 1.600 0 175 0
0.400 34.800 0.400 0 175 0
0.400 34.800 0.800 0 175 0
0.400 34.800 1.200 0 175 0
0.400 34.800 1.600 0 175 0
0.400 35.200 0.400 0 175 0
0.400 35.200 0.800 0 175 0
0.400 35.200 1.200 0 175 0
0.800 6.400 2.800 0 175 0
0.800 10.000 1.600 0 175 0
0.800 10.000 2.000 0 175 0
0.800 10.400 2.000 0 175 0
0.800 10.800 1.200 0 175 0
0.800 11.200 1.200 0 175 0
0.800 11.200 1.600 0 175 0
0.800 11.200 2.000 0 175 0
0.800 11.200 2.400 0 175 0
0.800 14.000 0.800 0 175 0
0.800 14.400 0.800 0 175 0
0.800 15.600 0.800 0 175 0
0.800 16.400 1.200 0 175 0
0.800 16.400 1.600 0 175 0
0.800 16.800 0.800 0 175 0
0.800 16.800 1.200 0 175 0
0.800 19.600 0.800 0 175 0
0.800 19.600 1.200 0 175 0
0.800 19.600 1.600 0 175 0
0.800 20.800 0.400 0 175 0
0.800 21.200 0.400 0 175 0
0.800 21.200 0.800 0 175 0
0.800 21.200 1.200 0 175 0
0.800 21.600 0.400 0 175 0
0.800 21.600 1.200 0 175 0
0.800 30.000 0.400 0 175 0
0.800 30.400 0.400 0 175 0
0.800 30.800 0.400 0 175 0
0.800 31.200 0.400 0 175 0
0.800 31.200 0.800 0 175 0
0.800 31.200 1.200 0 175 0
0.800 31.600 0.400 0 175 0
0.800 31.600 0.800 0 175 0
0.800 31.600 1.200 0 175 0
0.800 31.600 2.400 0 175 0
0.800 32.000 0.400 0 175 0
0.800 32.000 0.800 0 175 0
0.800 32.000 1.200 0 175 0
0.800 32.000 2.000 0 175 0
0.800 32.000 2.400 0 175 0
0.800 32.400 0.800 0 175 0
0.800 32.800 0.400 0 175 0
0.800 32.800 0.800 0 175 0
0.800 32.800 1.200 0 175 0
0.800 32.800 2.000 0 175 0
0.800 33.200 1.200 0 175 0
0.800 33.200 1.600 0 175 0
0.800 33.600 0.800 0 175 0
0.800 33.600 1.200 0 175 0
0.800 33.600 1.600 0 175 0
0.800 33.600 2.000 0 175 0
0.800 34.000 0.800 0 175 0
0.800 34.000 2.000 0 175 0
0.800 34.400 2.000 0 175 0
0.800 34.800 0.400 0 175 0
1.200 11.200 1.200 0 175 0
1.200 11.200 1.600 0 175 0
1.200 11.200 2.000 0 175 0
1.200 11.200 2.400 0 175 0
1.200 11.600 1.200 0 175 0
1.200 12.000 1.200 0 175 0
1.200 13.600 0.800 0 175 0
1.200 14.000 0.800 0 175 0
1.200 14.800 0.800 0 175 0
1.200 15.200 0.800 0 175 0
1.200 15.600 0.800 0 175 0
1.200 15.600 1.200 0 175 0
1.200 16.000 0.800 0 175 0
1.200 16.000 1.200 0 175 0
1.200 16.000 1.600 0 175 0
1.200 16.800 0.800 0 175 0
1.200 17.200 1.200 0 175 0
1.200 19.200 2.000 0 175 0
1.200 21.200 0.800 0 175 0
1.200 21.200 1.200 0 175 0
1.200 21.600 1.200 0 175 0
1.200 30.000 0.400 0 175 0
1.200 30.400 0.400 0 175 0
1.200 30.800 0.400 0 175 0
1.200 30.800 1.200 0 175 0
1.200 31.200 0.400 0 175 0
1.200 31.200 0.800 0 175 0
1.200 31.200 1.200 0 175 0
1.200 31.200 1.600 0 175 0
1.200 31.600 1.200 0 175 0
1.200 31.600 1.600 0 175 0
1.200 32.000 1.600 0 175 0
1.200 32.000 2.000 0 175 0
1.200 32.400 0.400 0 175 0
1.200 32.400 1.600 0 175 0
1.200 32.800 2.000 0 175 0
1.200 32.800 2.400 0 175 0
1.200 33.200 1.200 0 175 0
1.200 33.200 1.600 0 175 0
1.200 33.200 2.000 0 175 0
1.200 33.200 2.400 0 175 0
1.200 33.600 0.400 0 175 0
1.200 33.600 0.800 0 175 0
1.200 33.600 1.200 0 175 0
1.200 33.600 2.000 0 175 0
1.200 34.000 2.000 0 175 0
1.200 34.800 1.200 0 175 0
1.200 34.800 1.600 0 175 0
1.200 35.200 0.000 0 175 0
1.200 35.200 0.400 0 175 0
1.200 35.200 0.800 0 175 0
1.200 35.600 1.200 0 175 0
1.200 36.000 2.000 0 175 0
1.600 8.000 1.600 0 175 0
1.600 8.400 2.400 0 175 0
1.600 9.200 1.600 0 175 0
1.600 10.400 1.600 0 175 0
1.600 10.400 2.000 0 175 0
1.600 11.200 1.200 0 175 0
1.600 12.000 1.200 0 175 0
1.600 13.600 0.800 0 175 0
1.600 14.400 0.800 0 175 0
1.600 15.200 0.800 0 175 0
1.600 16.000 0.800 0 175 0
1.600 16.400 1.200 0 175 0
1.600 16.800 0.800 0 175 0
1.600 17.200 1.200 0 175 0
1.600 18.400 1.200 0 175 0
1.600 18.400 2.000 0 175 0
1.600 18.400 2.400 0 175 0
1.600 21.200 0.800 0 175 0
1.600 21.200 1.200 0 175 0
1.600 21.600 0.800 0 175 0
1.600 21.600 1.200 0 175 0
1.600 22.000 0.400 0 175 0
1.600 30.000 0.400 0 175 0
1.600 30.400 0.400 0 175 0
1.600 30.800 0.400 0 175 0
1.600 30.800 1.600 0 175 0
1.600 31.200 0.400 0 175 0
1.600 31.200 0.800 0 175 0
1.600 31.200 1.200 0 175 0
1.600 31.600 0.400 0 175 0
1.600 31.600 0.800 0 175 0
1.600 31.600 1.200 0 175 0
1.600 31.600 1.600 0 175 0
1.600 32.000 0.400 0 175 0
1.600 32.000 1.600 0 175 0
1.600 32.800 2.000 0 175 0
1.600 32.800 2.400 0 175 0
1.600 33.200 2.000 0 175 0
1.600 33.200 2.400 0 175 0
1.600 33.600 0.800 0 175 0
1.600 33.600 1.200 0 175 0
1.600 33.600 1.600 0 175 0
1.600 33.600 2.000 0 175 0
1.600 33.600 2.400 0 175 0
1.600 34.000 2.000 0 175 0
2.000 9.200 2.000 0 175 0
2.000 11.600 1.600 0 175 0
2.000 11.600 2.000 0 175 0
2.000 11.600 2.400 0 175 0
2.000 12.000 2.000 0 175 0
2.000 12.400 1.600 0 175 0
2.000 12.800 1.600 0 175 0
2.000 12.800 2.000 0 175 0
2.000 14.000 0.800 0 175 0
2.000 14.000 2.400 0 175 0
2.000 14.400 2.400 0 175 0
2.000 14.800 0.800 0 175 0
2.000 16.000 0.800 0 175 0
2.000 16.400 0.800 0 175 0
2.000 16.400 1.600 0 175 0
2.000 16.800 1.600 0 175 0
2.000 17.600 0.800 0 175 0
2.000 18.000 1.200 0 175 0
2.000 18.000 1.600 0 175 0
2.000 18.000 2.000 0 175 0
2.000 18.000 2.400 0 175 0
2.000 18.400 1.200 0 175 0
2.000 21.200 0.800 0 175 0
2.000 21.200 1.200 0 175 0
2.000 21.600 0.800 0 175 0
2.000 21.600 1.200 0 175 0
2.000 22.000 0.400 0 175 0
2.000 30.000 0.400 0 175 0
2.000 30.400 0.400 0 175 0
2.000 30.800 0.400 0 175 0
2.000 30.800 0.800 0 175 0
2.000 30.800 1.600 0 175 0
2.000 31.200 0.400 0 175 0
2.000 31.200 0.800 0 175 0
2.000 31.200 1.200 0 175 0
2.000 31.200 1.600 0 175 0
2.000 31.600 0.400 0 175 0
2.000 31.600 0.800 0 175 0
2.000 31.600 1.200 0 175 0
2.000 31.600 1.600 0 175 0
2.000 32.000 0.400 0 175 0
2.000 32.000 1.600 0 175 0
2.000 32.400 0.400 0 175 0
2.000 32.400 2.000 0 175 0
2.000 32.800 1.600 0 175 0
2.000 33.200 0.800 0 175 0
2.000 33.200 1.600 0 175 0
2.000 33.600 1.200 0 175 0
2.000 34.000 0.800 0 175 0
2.000 34.800 1.600 0 175 0
2.000 34.800 2.000 0 175 0
2.400 2.000 2.400 0 175 0
2.400 6.400 2.800 0 175 0
2.400 6.800 2.400 0 175 0
2.400 7.200 1.200 0 175 0
2.400 12.800 1.200 0 175 0
2.400 12.800 1.600 0 175 0
2.400 13.200 1.600 0 175 0
2.400 13.600 1.600 0 175 0
2.400 15.200 0.800 0 175 0
2.400 16.000 0.800 0 175 0
2.400 16.400 1.600 0 175 0
2.400 16.800 0.800 0 175 0
2.400 17.200 1.600 0 175 0
2.400 17.600 2.400 0 175 0
2.400 19.600 2.000 0 175 0
2.400 19.600 2.400 0 175 0
2.400 20.000 2.000 0 175 0
2.400 20.000 2.400 0 175 0
2.400 20.800 0.400 0 175 0
2.400 21.200 0.400 0 175 0
2.400 21.200 0.800 0 175 0
2.400 21.200 1.200 0 175 0
2.400 21.600 0.400 0 175 0
2.400 21.600 0.800 0 175 0
2.400 21.600 1.200 0 175 0
2.400 22.000 0.400 0 175 0
2.400 22.400 0.400 0 175 0
2.400 30.000 0.400 0 175 0
2.400 30.400 0.400 0 175 0
2.400 30.800 0.400 0 175 0
2.400 31.200 0.400 0 175 0
2.400 31.200 0.800 0 175 0
2.400 31.200 1.200 0 175 0
2.400 31.200 1.600 0 175 0
2.400 31.600 0.800 0 175 0
2.400 31.600 1.200 0 175 0
2.400 31.600 1.600 0 175 0
2.400 32.000 0.800 0 175 0
2.400 32.000 1.600 0 175 0
2.400 32.400 0.400 0 175 0
2.400 32.400 1.600 0 175 0
2.400 32.400 2.000 0 175 0
2.400 32.400 2.400 0 175 0
2.400 32.800 2.000 0 175 0
2.400 32.800 2.400 0 175 0
2.400 33.200 0.400 0 175 0
2.400 33.200 1.600 0 175 0
2.400 33.200 2.000 0 175 0
2.400 33.200 2.400 0 175 0
2.400 33.600 0.800 0 175 0
2.800 12.400 1.200 0 175 0
2.800 14.400 0.800 0 175 0
2.800 14.800 0.800 0 175 0
2.800 15.200 0.800 0 175 0
2.800 15.600 0.800 0 175 0
2.800 16.000 0.800 0 175 0
2.800 20.000 0.800 0 175 0
2.800 20.000 1.200 0 175 0
2.800 20.000 1.600 0 175 0
2.800 20.000 2.000 0 175 0
2.800 20.000 2.400 0 175 0
2.800 20.800 0.400 0 175 0
2.800 21.200 0.400 0 175 0
2.800 21.200 0.800 0 175 0
2.800 21.200 1.200 0 175 0
2.800 21.600 0.400 0 175 0
2.800 21.600 0.800 0 175 0
2.800 21.600 1.200 0 175 0
2.800 22.000 0.400 0 175 0
2.800 22.400 0.400 0 175 0
2.800 30.000 0.400 0 175 0
2.800 30.400 0.400 0 175 0
2.800 30.800 0.400 0 175 0
2.800 30.800 1.200 0 175 0
2.800 31.200 0.400 0 175 0
2.800 31.200 0.800 0 175 0
2.800 31.200 1.200 0 175 0
2.800 31.200 1.600 0 175 0
2.800 31.600 0.400 0 175 0
2.800 31.600 0.800 0 175 0
2.800 31.600 1.200 0 175 0
2.800 31.600 1.600 0 175 0
2.800 31.600 2.000 0 175 0
2.800 32.000 0.400 0 175 0
2.800 32.000 1.600 0 175 0
2.800 32.400 0.400 0 175 0
2.800 32.400 2.000 0 175 0
2.800 32.400 2.400 0 175 0
2.800 32.800 0.400 0 175 0
2.800 32.800 2.000 0 175 0
2.800 33.200 0.400 0 175 0
2.800 33.200 2.000 0 175 0
2.800 33.600 0.400 0 175 0
2.800 35.200 1.200 0 175 0
2.800 46.400 2.400 0 175 0
3.200 10.000 2.000 0 175 0
3.200 10.000 2.400 0 175 0
3.200 11.600 2.000 0 175 0
3.200 12.000 2.000 0 175 0
3.200 12.000 2.400 0 175 0
3.200 13.600 1.200 0 175 0
3.200 13.600 1.600 0 175 0
3.200 14.800 0.800 0 175 0
3.200 15.200 0.800 0 175 0
3.200 15.600 0.800 0 175 0
3.200 16.000 0.800 0 175 0
3.200 16.000 2.000 0 175 0
3.200 16.000 2.400 0 175 0
3.200 16.400 0.800 0 175 0
3.200 16.800 0.800 0 175 0
3.200 17.200 0.800 0 175 0
3.200 20.800 0.400 0 175 0
3.200 21.200 0.400 0 175 0
3.200 21.200 1.200 0 175 0
3.200 21.600 0.400 0 175 0
3.200 21.600 0.800 0 175 0
3.200 21.600 1.200 0 175 0
3.200 22.000 0.400 0 175 0
3.200 22.400 0.400 0 175 0
3.200 30.000 0.400 0 175 0
3.200 30.400 0.400 0 175 0
3.200 30.400 1.600 0 175 0
3.200 30.800 0.400 0 175 0
3.200 30.800 0.800 0 175 0
3.200 30.800 1.200 0 175 0
3.200 30.800 1.600 0 175 0
3.200 31.200 0.400 0 175 0
3.200 31.200 0.800 0 175 0
3.200 31.200 1.200 0 175 0
3.200 31.200 1.600 0 175 0
3.200 31.600 0.400 0 175 0
3.200 31.600 0.800 0 175 0
3.200 31.600 1.200 0 175 0
3.200 31.600 1.600 0 175 0
3.200 31.600 2.000 0 175 0
3.200 32.000 0.400 0 175 0
3.200 32.000 0.800 0 175 0
3.200 32.000 1.600 0 175 0
3.200 32.000 2.000 0 175 0
3.200 32.400 1.600 0 175 0
3.200 32.400 2.000 0 175 0
3.200 32.400 2.400 0 175 0
3.200 32.800 2.000 0 175 0
3.200 33.200 0.800 0 175 0
3.200 34.800 1.600 0 175 0
3.200 35.200 1.200 0 175 0
3.200 35.200 1.600 0 175 0
3.200 35.600 0.000 0 175 0
3.200 44.000 2.000 0 175 0
3.600 12.000 1.600 0 175 0
3.600 12.000 2.000 0 175 0
3.600 12.000 2.400 0 175 0
3.600 12.400 2.000 0 175 0
3.600 12.800 1.200 0 175 0
3.600 13.600 2.000 0 175 0
3.600 14.000 2.000 0 175 0
3.600 14.800 0.800 0 175 0
3.600 15.200 0.800 0 175 0
3.600 15.200 1.200 0 175 0
3.600 15.200 1.600 0 175 0
3.600 15.200 2.000 0 175 0
3.600 15.600 0.800 0 175 0
3.600 16.000 0.800 0 175 0
3.600 16.800 0.800 0 175 0
3.600 17.200 0.800 0 175 0
3.600 20.800 0.400 0 175 0
3.600 21.200 0.400 0 175 0
3.600 21.200 0.800 0 175 0
3.600 21.200 1.200 0 175 0
3.600 21.600 0.400 0 175 0
3.600 21.600 1.200 0 175 0
3.600 22.000 0.400 0 175 0
3.600 22.400 0.400 0 175 0
3.600 22.800 0.400 0 175 0
3.600 30.000 0.400 0 175 0
3.600 30.400 0.400 0 175 0
3.600 30.800 0.400 0 175 0
3.600 30.800 1.200 0 175 0
3.600 30.800 2.000 0 175 0
3.600 31.200 0.400 0 175 0
3.600 31.200 0.800 0 175 0
3.600 31.200 1.200 0 175 0
3.600 31.600 0.400 0 175 0
3.600 31.600 0.800 0 175 0
3.600 31.600 1.200 0 175 0
3.600 32.000 1.600 0 175 0
3.600 32.000 2.000 0 175 0
3.600 32.400 1.600 0 175 0
3.600 32.800 0.400 0 175 0
3.600 32.800 1.200 0 175 0
3.600 32.800 1.600 0 175 0
3.600 32.800 2.000 0 175 0
4.000 8.000 2.000 0 175 0
4.000 12.000 2.000 0 175 0
4.000 12.800 1.200 0 175 0
4.000 12.800 1.600 0 175 0
4.000 15.200 0.800 0 175 0
4.000 15.200 1.200 0 175 0
4.000 15.600 0.800 0 175 0
4.000 16.000 0.800 0 175 0
4.000 16.400 0.800 0 175 0
4.000 21.200 0.400 0 175 0
4.000 21.200 0.800 0 175 0
4.000 21.200 1.200 0 175 0
4.000 21.600 0.400 0 175 0
4.000 22.000 0.400 0 175 0
4.000 22.400 0.400 0 175 0
4.000 22.800 0.400 0 175 0
4.000 30.000 0.400 0 175 0
4.000 30.400 0.400 0 175 0
4.000 30.400 1.600 0 175 0
4.000 30.800 0.400 0 175 0
4.000 30.800 1.200 0 175 0
4.000 30.800 1.600 0 175 0
4.000 30.800 2.000 0 175 0
4.000 30.800 2.400 0 175 0
4.000 31.200 0.400 0 175 0
4.000 31.200 0.800 0 175 0
4.000 31.200 1.200 0 175 0
4.000 31.200 1.600 0 175 0
4.000 31.600 0.400 0 175 0
4.000 31.600 0.800 0 175 0
4.000 32.000 0.400 0 175 0
4.000 32.000 0.800 0 175 0
4.000 32.000 1.600 0 175 0
4.000 32.000 2.000 0 175 0
4.000 32.400 1.600 0 175 0
4.000 33.600 0.400 0 175 0
4.000 34.000 1.600 0 175 0
4.400 10.400 2.400 0 175 0
4.400 12.800 2.400 0 175 0
4.400 13.200 1.200 0 175 0
4.400 13.200 1.600 0 175 0
4.400 13.200 2.000 0 175 0
4.400 13.200 2.400 0 175 0
4.400 14.800 0.800 0 175 0
4.400 15.200 0.800 0 175 0
4.400 21.200 0.400 0 175 0
4.400 21.200 0.800 0 175 0
4.400 21.200 1.200 0 175 0
4.400 21.600 0.400 0 175 0
4.400 22.000 0.400 0 175 0
4.400 22.400 0.400 0 175 0
4.400 22.800 0.400 0 175 0
4.400 30.000 0.400 0 175 0
4.400 30.400 0.400 0 175 0
4.400 30.800 0.400 0 175 0
4.400 30.800 1.200 0 175 0
4.400 30.800 1.600 0 175 0
4.400 30.800 2.000 0 175 0
4.400 30.800 2.400 0 175 0
4.400 31.200 0.400 0 175 0
4.400 31.200 0.800 0 175 0
4.400 31.200 1.200 0 175 0
4.400 31.200 1.600 0 175 0
4.400 31.600 2.000 0 175 0
4.400 32.000 0.400 0 175 0
4.400 32.000 1.200 0 175 0
4.400 32.000 1.600 0 175 0
4.400 32.000 2.000 0 175 0
4.400 32.400 1.600 0 175 0
4.400 32.400 2.000 0 175 0
4.400 32.800 1.600 0 175 0
4.400 32.800 2.400 0 175 0
4.400 33.200 1.600 0 175 0
4.400 34.400 2.400 0 175 0
4.400 35.600 0.400 0 175 0
4.400 46.400 2.400 0 175 0
4.800 10.400 2.400 0 175 0
4.800 11.200 1.600 0 175 0
4.800 13.600 1.200 0 175 0
4.800 13.600 1.600 0 175 0
4.800 13.600 2.000 0 175 0
4.800 13.600 2.400 0 175 0
4.800 16.400 0.800 0 175 0
4.800 16.800 0.800 0 175 0
4.800 21.200 0.400 0 175 0
4.800 21.200 0.800 0 175 0
4.800 21.200 1.200 0 175 0
4.800 21.600 0.400 0 175 0
4.800 22.000 0.400 0 175 0
4.800 22.400 0.400 0 175 0
4.800 22.800 0.400 0 175 0
4.800 29.600 0.400 0 175 0
4.800 30.400 0.400 0 175 0
4.800 30.800 0.400 0 175 0
4.800 30.800 0.800 0 175 0
4.800 30.800 1.200 0 175 0
4.800 30.800 1.600 0 175 0
4.800 30.800 2.000 0 175 0
4.800 30.800 2.400 0 175 0
4.800 31.200 0.800 0 175 0
4.800 31.200 1.200 0 175 0
4.800 31.200 1.600 0 175 0
4.800 31.200 2.000 0 175 0
4.800 31.200 2.400 0 175 0
4.800 31.600 0.400 0 175 0
4.800 31.600 2.400 0 175 0
4.800 32.000 0.400 0 175 0
4.800 32.000 2.000 0 175 0
4.800 32.000 2.400 0 175 0
4.800 32.400 1.200 0 175 0
4.800 32.400 1.600 0 175 0
4.800 32.400 2.000 0 175 0
4.800 32.400 2.400 0 175 0
4.800 32.800 1.200 0 175 0
4.800 32.800 1.600 0 175 0
4.800 32.800 2.000 0 175 0
4.800 32.800 2.400 0 175 0
4.800 34.400 2.400 0 175 0
4.800 34.800 2.000 0 175 0
4.800 37.600 0.400 0 175 0
5.200 16.000 0.800 0 175 0
5.200 16.400 0.800 0 175 0
5.200 16.800 0.800 0 175 0
5.200 20.400 2.400 0 175 0
5.200 21.200 0.400 0 175 0
5.200 21.200 0.800 0 175 0
5.200 21.200 1.200 0 175 0
5.200 21.600 0.400 0 175 0
5.200 22.000 0.400 0 175 0
5.200 22.400 0.400 0 175 0
5.200 22.800 0.400 0 175 0
5.200 23.200 0.400 0 175 0
5.200 23.600 0.400 0 175 0
5.200 29.600 0.400 0 175 0
5.200 30.000 0.400 0 175 0
5.200 30.400 0.400 0 175 0
5.200 30.400 1.600 0 175 0
5.200 30.800 0.400 0 175 0
5.200 30.800 0.800 0 175 0
5.200 30.800 1.200 0 175 0
5.200 31.600 1.600 0 175 0
5.200 32.400 0.800 0 175 0
5.200 32.400 1.600 0 175 0
5.200 32.400 2.400 0 175 0
5.200 32.800 1.600 0 175 0
5.200 32.800 2.400 0 175 0
5.200 33.200 1.200 0 175 0
5.200 33.600 1.200 0 175 0
5.200 34.400 2.000 0 175 0
5.200 37.600 2.400 0 175 0
5.200 46.800 2.400 0 175 0
5.600 14.800 0.800 0 175 0
5.600 15.200 0.800 0 175 0
5.600 15.600 0.800 0 175 0
5.600 15.600 1.200 0 175 0
5.600 16.000 0.800 0 175 0
5.600 16.400 0.800 0 175 0
5.600 16.800 0.800 0 175 0
5.600 21.200 0.400 0 175 0
5.600 21.200 0.800 0 175 0
5.600 21.200 1.200 0 175 0
5.600 21.600 0.400 0 175 0
5.600 22.000 0.400 0 175 0
5.600 22.400 0.400 0 175 0
5.600 22.800 0.400 0 175 0
5.600 23.200 0.400 0 175 0
5.600 23.600 0.400 0 175 0
5.600 29.600 0.400 0 175 0
5.600 30.000 0.400 0 175 0
5.600 30.400 0.400 0 175 0
5.600 30.800 0.400 0 175 0
5.600 31.600 0.800 0 175 0
5.600 31.600 2.400 0 175 0
5.600 32.000 0.400 0 175 0
5.600 32.400 2.000 0 175 0
5.600 33.200 2.400 0 175 0
5.600 34.000 1.200 0 175 0
5.600 35.600 1.600 0 175 0
5.600 46.800 1.200 0 175 0
5.600 46.800 2.400 0 175 0
5.600 47.200 0.800 0 175 0
5.600 47.200 2.000 0 175 0
5.600 47.600 0.800 0 175 0
6.000 14.000 2.000 0 175 0
6.000 14.000 2.400 0 175 0
6.000 14.400 0.800 0 175 0
6.000 14.400 2.000 0 175 0
6.000 15.600 0.800 0 175 0
6.000 15.600 1.200 0 175 0
6.000 15.600 1.600 0 175 0
6.000 16.000 0.800 0 175 0
6.000 16.400 0.800 0 175 0
6.000 16.800 0.800 0 175 0
6.000 17.200 0.800 0 175 0
6.000 21.200 0.400 0 175 0
6.000 21.200 0.800 0 175 0
6.000 21.200 1.200 0 175 0
6.000 21.600 0.400 0 175 0
6.000 22.000 0.400 0 175 0
6.000 22.400 0.400 0 175 0
6.000 22.800 0.400 0 175 0
6.000 23.200 0.400 0 175 0
6.000 29.600 0.400 0 175 0
6.000 30.000 0.400 0 175 0
6.000 30.400 0.400 0 175 0
6.000 30.800 0.400 0 175 0
6.000 31.200 0.800 0 175 0
6.000 31.600 0.400 0 175 0
6.000 31.600 0.800 0 175 0
6.000 31.600 1.600 0 175 0
6.000 31.600 2.000 0 175 0
6.000 31.600 2.400 0 175 0
6.000 32.000 0.400 0 175 0
6.000 32.400 0.400 0 175 0
6.000 32.400 0.800 0 175 0
6.000 34.000 1.600 0 175 0
6.000 46.400 2.800 0 175 0
6.000 46.800 2.400 0 175 0
6.000 47.200 0.800 0 175 0
6.400 14.400 0.800 0 175 0
6.400 14.400 1.200 0 175 0
6.400 14.400 1.600 0 175 0
6.400 14.400 2.000 0 175 0
6.400 15.200 0.800 0 175 0
6.400 15.600 0.800 0 175 0
6.400 16.000 0.800 0 175 0
6.400 16.400 0.800 0 175 0
6.400 16.800 0.800 0 175 0
6.400 17.200 0.800 0 175 0
6.400 20.000 1.200 0 175 0
6.400 20.400 0.800 0 175 0
6.400 20.800 0.400 0 175 0
6.400 20.800 0.800 0 175 0
6.400 21.200 0.400 0 175 0
6.400 21.200 0.800 0 175 0
6.400 21.200 1.200 0 175 0
6.400 21.600 0.400 0 175 0
6.400 22.000 0.400 0 175 0
6.400 22.400 0.400 0 175 0
6.400 23.200 0.400 0 175 0
6.400 23.600 0.400 0 175 0
6.400 29.600 0.400 0 175 0
6.400 30.000 0.400 0 175 0
6.400 30.400 0.400 0 175 0
6.400 30.800 0.400 0 175 0
6.400 31.200 0.400 0 175 0
6.400 31.200 2.000 0 175 0
6.400 31.200 2.400 0 175 0
6.400 31.600 0.800 0 175 0
6.400 31.600 1.600 0 175 0
6.400 31.600 2.000 0 175 0
6.400 31.600 2.400 0 175 0
6.400 32.000 0.800 0 175 0
6.400 32.000 2.000 0 175 0
6.400 32.800 0.800 0 175 0
6.400 34.400 1.200 0 175 0
6.400 34.400 2.000 0 175 0
6.400 34.800 1.200 0 175 0
6.400 35.200 1.600 0 175 0
6.400 46.400 2.800 0 175 0
6.400 46.800 1.200 0 175 0
6.400 46.800 2.000 0 175 0
6.400 46.800 2.400 0 175 0
6.400 47.200 2.000 0 175 0
6.400 47.600 1.600 0 175 0
6.400 48.000 1.600 0 175 0
6.800 14.400 2.000 0 175 0
6.800 14.400 2.400 0 175 0
6.800 14.800 0.800 0 175 0
6.800 14.800 1.200 0 175 0
6.800 14.800 1.600 0 175 0
6.800 14.800 2.000 0 175 0
6.800 15.200 0.800 0 175 0
6.800 15.600 0.800 0 175 0
6.800 16.000 0.800 0 175 0
6.800 16.400 0.800 0 175 0
6.800 17.200 0.800 0 175 0
6.800 19.200 1.200 0 175 0
6.800 19.600 1.200 0 175 0
6.800 20.800 0.400 0 175 0
6.800 21.200 0.400 0 175 0
6.800 21.200 1.200 0 175 0
6.800 21.600 0.400 0 175 0
6.800 22.000 0.400 0 175 0
6.800 22.400 0.400 0 175 0
6.800 22.800 0.400 0 175 0
6.800 23.600 0.400 0 175 0
6.800 29.600 0.400 0 175 0
6.800 30.000 0.400 0 175 0
6.800 30.400 0.400 0 175 0
6.800 30.800 0.400 0 175 0
6.800 31.200 0.400 0 175 0
6.800 31.200 1.200 0 175 0
6.800 31.200 1.600 0 175 0
6.800 31.200 2.000 0 175 0
6.800 31.200 2.400 0 175 0
6.800 31.600 0.800 0 175 0
6.800 31.600 1.200 0 175 0
6.800 31.600 1.600 0 175 0
6.800 31.600 2.000 0 175 0
6.800 31.600 2.400 0 175 0
6.800 32.400 0.800 0 175 0
6.800 32.400 2.000 0 175 0
6.800 32.800 0.800 0 175 0
6.800 35.600 2.000 0 175 0
6.800 44.800 1.600 0 175 0
6.800 45.200 1.600 0 175 0
6.800 46.400 1.200 0 175 0
6.800 46.400 2.400 0 175 0
6.800 46.800 0.800 0 175 0
6.800 46.800 1.200 0 175 0
6.800 47.600 0.000 0 175 0
7.200 14.800 1.200 0 175 0
7.200 14.800 1.600 0 175 0
7.200 14.800 2.000 0 175 0
7.200 15.600 0.800 0 175 0
7.200 16.000 0.800 0 175 0
7.200 16.400 0.800 0 175 0
7.200 16.800 0.800 0 175 0
7.200 16.800 1.200 0 175 0
7.200 18.400 2.000 0 175 0
7.200 18.800 1.200 0 175 0
7.200 18.800 1.600 0 175 0
7.200 20.800 0.400 0 175 0
7.200 21.200 0.400 0 175 0
7.200 22.000 0.400 0 175 0
7.200 22.400 0.400 0 175 0
7.200 22.800 0.400 0 175 0
7.200 23.200 0.400 0 175 0
7.200 29.600 0.400 0 175 0
7.200 30.000 0.400 0 175 0
7.200 30.400 0.400 0 175 0
7.200 30.800 0.400 0 175 0
7.200 31.200 0.400 0 175 0
7.200 31.600 0.800 0 175 0
7.200 31.600 1.200 0 175 0
7.200 31.600 1.600 0 175 0
7.200 32.000 2.000 0 175 0
7.200 32.800 0.800 0 175 0
7.200 34.800 0.400 0 175 0
7.200 46.000 1.200 0 175 0
7.200 46.400 1.200 0 175 0
7.200 46.800 0.800 0 175 0
7.600 15.200 0.800 0 175 0
7.600 15.200 1.200 0 175 0
7.600 15.200 1.600 0 175 0
7.600 15.200 2.000 0 175 0
7.600 15.200 2.400 0 175 0
7.600 15.600 0.800 0 175 0
7.600 16.400 0.800 0 175 0
7.600 16.800 0.800 0 175 0
7.600 16.800 1.200 0 175 0
7.600 17.200 1.200 0 175 0
7.600 17.200 1.600 0 175 0
7.600 18.000 1.200 0 175 0
7.600 18.400 1.200 0 175 0
7.600 18.400 1.600 0 175 0
7.600 18.400 2.000 0 175 0
7.600 18.800 1.200 0 175 0
7.600 19.200 1.200 0 175 0
7.600 20.800 0.400 0 175 0
7.600 21.600 0.400 0 175 0
7.600 22.400 0.400 0 175 0
7.600 22.800 0.400 0 175 0
7.600 23.200 0.400 0 175 0
7.600 29.600 0.400 0 175 0
7.600 30.000 0.400 0 175 0
7.600 30.400 0.400 0 175 0
7.600 30.800 0.400 0 175 0
7.600 31.200 0.400 0 175 0
7.600 31.200 2.400 0 175 0
7.600 31.600 0.800 0 175 0
7.600 31.600 1.200 0 175 0
7.600 31.600 2.000 0 175 0
7.600 32.000 1.200 0 175 0
7.600 34.000 2.000 0 175 0
7.600 46.400 1.200 0 175 0
8.000 15.200 1.200 0 175 0
8.000 15.600 0.800 0 175 0
8.000 15.600 1.600 0 175 0
8.000 15.600 2.000 0 175 0
8.000 15.600 2.400 0 175 0
8.000 16.000 0.800 0 175 0
8.000 16.400 0.800 0 175 0
8.000 16.800 0.800 0 175 0
8.000 16.800 1.600 0 175 0
8.000 17.200 0.800 0 175 0
8.000 17.200 1.200 0 175 0
8.000 17.200 1.600 0 175 0
8.000 17.600 1.200 0 175 0
8.000 17.600 1.600 0 175 0
8.000 18.000 1.200 0 175 0
8.000 18.000 1.600 0 175 0
8.000 18.400 1.200 0 175 0
8.000 18.400 1.600 0 175 0
8.000 20.400 0.400 0 175 0
8.000 20.800 0.400 0 175 0
8.000 21.600 0.400 0 175 0
8.000 22.400 0.400 0 175 0
8.000 23.200 0.400 0 175 0
8.000 23.600 0.400 0 175 0
8.000 29.600 0.400 0 175 0
8.000 30.000 0.400 0 175 0
8.000 30.000 2.000 0 175 0
8.000 30.400 0.400 0 175 0
8.000 30.400 2.400 0 175 0
8.000 30.800 0.400 0 175 0
8.000 30.800 2.400 0 175 0
8.000 31.200 2.000 0 175 0
8.000 31.600 1.600 0 175 0
8.000 31.600 2.000 0 175 0
8.000 32.000 1.200 0 175 0
8.000 32.000 1.600 0 175 0
8.000 32.000 2.000 0 175 0
8.000 33.200 0.800 0 175 0
8.000 33.200 1.600 0 175 0
8.000 33.600 0.800 0 175 0
8.000 33.600 1.600 0 175 0
8.000 34.000 2.000 0 175 0
8.000 34.000 2.400 0 175 0
8.400 15.600 1.200 0 175 0
8.400 15.600 1.600 0 175 0
8.400 15.600 2.000 0 175 0
8.400 15.600 2.400 0 175 0
8.400 16.800 0.800 0 175 0
8.400 18.400 1.200 0 175 0
8.400 20.800 0.400 0 175 0
8.400 21.600 0.400 0 175 0
8.400 22.000 0.400 0 175 0
8.400 22.400 0.400 0 175 0
8.400 22.800 0.400 0 175 0
8.400 23.200 0.400 0 175 0
8.400 29.600 0.400 0 175 0
8.400 30.400 0.400 0 175 0
8.400 30.400 2.400 0 175 0
8.400 30.800 1.600 0 175 0
8.400 30.800 2.000 0 175 0
8.400 31.200 0.800 0 175 0
8.400 31.200 2.400 0 175 0
8.400 31.600 0.400 0 175 0
8.400 31.600 0.800 0 175 0
8.400 31.600 1.600 0 175 0
8.400 31.600 2.000 0 175 0
8.400 32.000 1.200 0 175 0
8.400 32.000 1.600 0 175 0
8.400 32.400 2.000 0 175 0
8.400 32.800 0.400 0 175 0
8.400 33.200 0.800 0 175 0
8.400 33.200 1.600 0 175 0
8.400 33.200 2.000 0 175 0
8.800 16.000 0.800 0 175 0
8.800 16.000 1.200 0 175 0
8.800 16.000 1.600 0 175 0
8.800 16.000 2.000 0 175 0
8.800 16.000 2.400 0 175 0
8.800 16.400 0.800 0 175 0
8.800 20.000 0.400 0 175 0
8.800 20.400 1.200 0 175 0
8.800 20.400 1.600 0 175 0
8.800 20.800 0.400 0 175 0
8.800 20.800 1.200 0 175 0
8.800 20.800 1.600 0 175 0
8.800 21.200 0.400 0 175 0
8.800 21.600 0.400 0 175 0
8.800 22.400 0.400 0 175 0
8.800 22.800 0.400 0 175 0
8.800 23.200 0.400 0 175 0
8.800 29.600 0.400 0 175 0
8.800 29.600 2.400 0 175 0
8.800 30.000 0.400 0 175 0
8.800 30.400 2.000 0 175 0
8.800 30.400 2.400 0 175 0
8.800 30.800 2.000 0 175 0
8.800 30.800 2.400 0 175 0
8.800 31.200 2.000 0 175 0
8.800 32.000 1.600 0 175 0
8.800 32.000 2.000 0 175 0
8.800 32.400 0.800 0 175 0
8.800 32.400 2.400 0 175 0
8.800 32.800 1.600 0 175 0
8.800 32.800 2.000 0 175 0
8.800 34.000 0.800 0 175 0
8.800 34.000 1.600 0 175 0
8.800 34.400 0.800 0 175 0
8.800 34.400 1.200 0 175 0
8.800 34.800 0.800 0 175 0
8.800 34.800 1.200 0 175 0
8.800 35.200 0.000 0 175 0
8.800 35.200 0.400 0 175 0
9.200 16.000 1.200 0 175 0
9.200 16.000 2.000 0 175 0
9.200 20.000 1.600 0 175 0
9.200 20.400 0.800 0 175 0
9.200 20.400 1.200 0 175 0
9.200 20.400 2.000 0 175 0
9.200 20.800 0.400 0 175 0
9.200 20.800 0.800 0 175 0
9.200 20.800 1.200 0 175 0
9.200 20.800 1.600 0 175 0
9.200 21.600 0.400 0 175 0
9.200 22.000 0.400 0 175 0
9.200 22.800 0.400 0 175 0
9.200 23.200 0.400 0 175 0
9.200 29.600 0.400 0 175 0
9.200 30.400 0.400 0 175 0
9.200 30.400 2.400 0 175 0
9.200 30.800 0.400 0 175 0
9.200 30.800 2.400 0 175 0
9.200 31.200 0.400 0 175 0
9.200 31.600 2.000 0 175 0
9.200 32.000 0.800 0 175 0
9.200 32.000 1.200 0 175 0
9.200 32.000 2.000 0 175 0
9.200 32.000 2.400 0 175 0
9.200 32.400 2.000 0 175 0
9.200 32.400 2.400 0 175 0
9.200 33.200 0.400 0 175 0
9.600 20.400 0.800 0 175 0
9.600 20.400 1.200 0 175 0
9.600 20.800 0.800 0 175 0
9.600 20.800 1.600 0 175 0
9.600 21.200 0.400 0 175 0
9.600 21.600 0.400 0 175 0
9.600 22.400 0.400 0 175 0
9.600 22.800 0.400 0 175 0
9.600 23.200 0.400 0 175 0
9.600 29.600 0.400 0 175 0
9.600 30.000 0.400 0 175 0
9.600 30.400 0.400 0 175 0
9.600 31.200 0.400 0 175 0
9.600 31.200 0.800 0 175 0
9.600 31.200 1.600 0 175 0
9.600 31.200 2.000 0 175 0
9.600 31.200 2.400 0 175 0
9.600 31.600 0.400 0 175 0
9.600 31.600 0.800 0 175 0
9.600 31.600 1.200 0 175 0
9.600 31.600 1.600 0 175 0
9.600 31.600 2.000 0 175 0
9.600 32.000 2.000 0 175 0
9.600 32.400 2.000 0 175 0
9.600 32.800 1.200 0 175 0
9.600 32.800 2.000 0 175 0
9.600 33.200 0.400 0 175 0
9.600 33.200 0.800 0 175 0
9.600 33.200 2.000 0 175 0
9.600 34.800 2.400 0 175 0
9.600 35.200 2.000 0 175 0
9.600 36.000 1.600 0 175 0
9.600 44.000 2.800 0 175 0
9.600 44.400 2.400 0 175 0
9.600 44.800 2.400 0 175 0
10.000 6.800 2.400 0 175 0
10.000 20.400 0.800 0 175 0
10.000 20.800 0.400 0 175 0
10.000 20.800 0.800 0 175 0
10.000 20.800 1.600 0 175 0
10.000 21.200 0.400 0 175 0
10.000 21.200 1.200 0 175 0
10.000 21.200 1.600 0 175 0
10.000 22.400 0.400 0 175 0
10.000 30.000 0.400 0 175 0
10.000 30.400 0.400 0 175 0
10.000 30.400 2.400 0 175 0
10.000 30.800 0.400 0 175 0
10.000 30.800 1.600 0 175 0
10.000 30.800 2.000 0 175 0
10.000 30.800 2.400 0 175 0
10.000 31.200 0.800 0 175 0
10.000 31.200 1.200 0 175 0
10.000 31.200 1.600 0 175 0
10.000 31.200 2.000 0 175 0
10.000 31.600 0.400 0 175 0
10.000 31.600 0.800 0 175 0
10.000 31.600 1.200 0 175 0
10.000 31.600 1.600 0 175 0
10.000 32.000 1.200 0 175 0
10.000 32.000 2.000 0 175 0
10.000 32.400 1.200 0 175 0
10.000 32.400 2.000 0 175 0
10.000 32.400 2.400 0 175 0
10.000 32.800 0.400 0 175 0
10.000 32.800 0.800 0 175 0
10.000 32.800 1.200 0 175 0
10.000 32.800 2.400 0 175 0
10.000 33.200 2.000 0 175 0
10.000 33.600 2.000 0 175 0
10.000 34.000 1.600 0 175 0
10.000 35.200 0.000 0 175 0
10.000 35.600 2.000 0 175 0
10.000 36.400 0.800 0 175 0
10.000 44.000 2.800 0 175 0
10.400 7.200 2.400 0 175 0
10.400 7.200 2.800 0 175 0
10.400 19.200 0.800 0 175 0
10.400 20.400 0.800 0 175 0
10.400 20.800 0.800 0 175 0
10.400 21.200 0.400 0 175 0
10.400 21.200 1.200 0 175 0
10.400 21.200 1.600 0 175 0
10.400 22.800 0.400 0 175 0
10.400 23.200 0.400 0 175 0
10.400 29.600 0.400 0 175 0
10.400 30.000 0.400 0 175 0
10.400 30.400 0.400 0 175 0
10.400 30.400 2.000 0 175 0
10.400 30.400 2.400 0 175 0
10.400 30.800 2.000 0 175 0
10.400 30.800 2.400 0 175 0
10.400 31.200 1.200 0 175 0
10.400 31.200 1.600 0 175 0
10.400 31.600 0.400 0 175 0
10.400 31.600 1.600 0 175 0
10.400 32.800 1.200 0 175 0
10.400 33.200 0.400 0 175 0
10.400 34.000 1.200 0 175 0
10.800 7.600 2.400 0 175 0
10.800 7.600 2.800 0 175 0
10.800 20.400 0.800 0 175 0
10.800 20.400 2.000 0 175 0
10.800 20.800 1.200 0 175 0
10.800 21.200 0.400 0 175 0
10.800 21.200 1.600 0 175 0
10.800 21.600 0.400 0 175 0
10.800 22.000 0.400 0 175 0
10.800 29.600 0.400 0 175 0
10.800 30.000 0.400 0 175 0
10.800 30.400 0.400 0 175 0
10.800 30.400 1.600 0 175 0
10.800 30.800 0.400 0 175 0
10.800 30.800 1.600 0 175 0
10.800 30.800 2.000 0 175 0
10.800 30.800 2.400 0 175 0
10.800 31.200 1.600 0 175 0
10.800 31.600 0.400 0 175 0
10.800 31.600 1.200 0 175 0
10.800 32.400 0.400 0 175 0
10.800 32.400 2.400 0 175 0
10.800 32.800 1.600 0 175 0
10.800 33.200 1.600 0 175 0
10.800 34.800 1.200 0 175 0
10.800 43.600 2.800 0 175 0
11.200 7.600 2.400 0 175 0
11.200 7.600 2.800 0 175 0
11.200 20.800 0.400 0 175 0
11.200 21.200 0.400 0 175 0
11.200 21.200 1.200 0 175 0
11.200 21.200 1.600 0 175 0
11.200 21.600 0.400 0 175 0
11.200 22.400 0.400 0 175 0
11.200 22.800 0.400 0 175 0
11.200 23.200 0.400 0 175 0
11.200 29.600 0.400 0 175 0
11.200 30.000 0.400 0 175 0
11.200 30.400 0.400 0 175 0
11.200 30.800 1.600 0 175 0
11.200 30.800 2.000 0 175 0
11.200 30.800 2.400 0 175 0
11.200 31.200 0.400 0 175 0
11.200 31.200 1.600 0 175 0
11.200 31.200 2.000 0 175 0
11.200 31.200 2.400 0 175 0
11.200 31.600 0.800 0 175 0
11.200 31.600 1.200 0 175 0
11.200 32.000 0.400 0 175 0
11.200 32.000 0.800 0 175 0
11.200 32.800 1.200 0 175 0
11.200 34.800 0.800 0 175 0
11.600 8.000 2.400 0 175 0
11.600 8.000 2.800 0 175 0
11.600 18.400 0.800 0 175 0
11.600 20.800 1.200 0 175 0
11.600 21.200 1.200 0 175 0
11.600 21.200 1.600 0 175 0
11.600 21.600 0.400 0 175 0
11.600 22.000 0.400 0 175 0
11.600 22.400 0.400 0 175 0
11.600 23.200 0.400 0 175 0
11.600 30.000 0.400 0 175 0
11.600 30.400 0.400 0 175 0
11.600 30.400 2.000 0 175 0
11.600 30.800 0.400 0 175 0
11.600 30.800 2.000 0 175 0
11.600 31.200 0.400 0 175 0
11.600 33.600 1.200 0 175 0
11.600 43.600 2.400 0 175 0
12.000 16.000 0.800 0 175 0
12.000 18.400 0.800 0 175 0
12.000 20.400 0.800 0 175 0
12.000 20.800 0.800 0 175 0
12.000 21.200 0.400 0 175 0
12.000 21.200 1.600 0 175 0
12.000 22.400 0.400 0 175 0
12.000 23.200 0.400 0 175 0
12.000 29.600 0.400 0 175 0
12.000 29.600 0.800 0 175 0
12.000 30.000 0.400 0 175 0
12.000 30.000 0.800 0 175 0
12.000 30.400 0.400 0 175 0
12.000 30.800 0.400 0 175 0
12.000 31.200 2.000 0 175 0
12.000 31.600 0.800 0 175 0
12.000 34.000 1.200 0 175 0
12.400 16.000 0.800 0 175 0
12.400 17.600 0.800 0 175 0
12.400 21.200 0.400 0 175 0
12.400 21.200 0.800 0 175 0
12.400 21.200 1.200 0 175 0
12.400 21.200 1.600 0 175 0
12.400 21.600 0.400 0 175 0
12.400 22.000 0.400 0 175 0
12.400 23.200 0.400 0 175 0
12.400 29.600 0.400 0 175 0
12.400 29.600 0.800 0 175 0
12.400 30.000 0.800 0 175 0
12.400 30.800 1.600 0 175 0
12.400 30.800 2.400 0 175 0
12.400 31.200 0.800 0 175 0
12.400 31.200 1.200 0 175 0
12.400 31.200 2.400 0 175 0
12.400 31.600 1.200 0 175 0
12.400 34.800 0.400 0 175 0
12.800 17.600 0.800 0 175 0
12.800 20.400 2.000 0 175 0
12.800 21.200 0.400 0 175 0
12.800 21.200 1.600 0 175 0
12.800 21.600 0.400 0 175 0
12.800 22.400 0.400 0 175 0
12.800 22.800 0.400 0 175 0
12.800 23.200 0.400 0 175 0
12.800 27.600 0.400 0 175 0
12.800 27.600 0.800 0 175 0
12.800 28.000 0.400 0 175 0
12.800 28.400 0.400 0 175 0
12.800 28.400 0.800 0 175 0
12.800 28.800 0.800 0 175 0
12.800 29.600 0.400 0 175 0
12.800 29.600 0.800 0 175 0
12.800 30.000 0.800 0 175 0
12.800 30.400 0.800 0 175 0
12.800 30.800 0.400 0 175 0
12.800 30.800 2.000 0 175 0
12.800 31.200 0.800 0 175 0
12.800 31.200 2.000 0 175 0
12.800 31.200 2.400 0 175 0
12.800 32.000 0.400 0 175 0
12.800 32.000 2.400 0 175 0
12.800 34.400 0.800 0 175 0
12.800 34.800 0.800 0 175 0
13.200 14.800 0.800 0 175 0
13.200 17.600 0.800 0 175 0
13.200 20.800 0.800 0 175 0
13.200 21.200 0.400 0 175 0
13.200 22.000 0.400 0 175 0
13.200 23.200 0.400 0 175 0
13.200 27.600 1.200 0 175 0
13.200 28.000 1.200 0 175 0
13.200 28.800 0.400 0 175 0
13.200 29.200 0.400 0 175 0
13.200 29.600 0.400 0 175 0
13.200 30.400 0.800 0 175 0
13.200 30.400 2.000 0 175 0
13.200 30.800 0.800 0 175 0
13.200 30.800 1.200 0 175 0
13.200 30.800 2.000 0 175 0
13.200 31.200 2.000 0 175 0
13.200 31.200 2.400 0 175 0
13.200 34.000 0.400 0 175 0
13.200 34.000 1.600 0 175 0
13.200 34.000 2.000 0 175 0
13.200 34.400 1.200 0 175 0
13.200 34.800 0.400 0 175 0
13.200 34.800 2.000 0 175 0
13.200 35.200 1.600 0 175 0
13.600 14.000 2.800 0 175 0
13.600 14.800 0.800 0 175 0
13.600 16.400 0.800 0 175 0
13.600 20.800 0.400 0 175 0
13.600 20.800 1.200 0 175 0
13.600 21.200 0.400 0 175 0
13.600 21.200 1.200 0 175 0
13.600 21.600 0.400 0 175 0
13.600 22.800 0.400 0 175 0
13.600 23.200 0.400 0 175 0
13.600 27.600 1.200 0 175 0
13.600 29.600 0.400 0 175 0
13.600 30.000 1.200 0 175 0
13.600 30.400 1.200 0 175 0
13.600 30.400 2.000 0 175 0
13.600 30.400 2.400 0 175 0
13.600 30.800 0.800 0 175 0
13.600 30.800 2.000 0 175 0
13.600 30.800 2.400 0 175 0
13.600 31.200 0.400 0 175 0
13.600 31.600 2.000 0 175 0
13.600 33.200 2.400 0 175 0
13.600 34.800 2.400 0 175 0
14.000 21.200 0.400 0 175 0
14.000 21.200 1.200 0 175 0
14.000 21.200 1.600 0 175 0
14.000 22.400 0.400 0 175 0
14.000 22.800 0.400 0 175 0
14.000 23.200 0.400 0 175 0
14.000 27.200 0.800 0 175 0
14.000 27.200 1.200 0 175 0
14.000 28.800 1.200 0 175 0
14.000 29.200 0.400 0 175 0
14.000 29.200 2.400 0 175 0
14.000 29.600 0.400 0 175 0
14.000 29.600 1.600 0 175 0
14.000 29.600 2.000 0 175 0
14.000 30.000 1.600 0 175 0
14.000 30.000 2.000 0 175 0
14.000 30.000 2.400 0 175 0
14.000 30.400 0.800 0 175 0
14.000 30.400 1.200 0 175 0
14.000 30.400 1.600 0 175 0
14.000 30.400 2.000 0 175 0
14.000 30.800 1.200 0 175 0
14.000 30.800 1.600 0 175 0
14.000 30.800 2.400 0 175 0
14.000 31.200 1.200 0 175 0
14.000 31.200 1.600 0 175 0
14.000 31.200 2.000 0 175 0
14.000 31.200 2.400 0 175 0
14.000 31.600 0.400 0 175 0
14.000 34.400 0.400 0 175 0
14.000 34.400 1.600 0 175 0
14.000 34.800 2.000 0 175 0
14.400 16.800 0.800 0 175 0
14.400 21.200 0.800 0 175 0
14.400 21.200 1.200 0 175 0
14.400 21.200 1.600 0 175 0
14.400 22.000 0.400 0 175 0
14.400 23.200 0.400 0 175 0
14.400 27.600 1.600 0 175 0
14.400 28.000 1.600 0 175 0
14.400 28.400 1.600 0 175 0
14.400 29.200 0.400 0 175 0
14.400 29.600 0.400 0 175 0
14.400 29.600 0.800 0 175 0
14.400 30.000 0.800 0 175 0
14.400 30.000 1.200 0 175 0
14.400 30.000 2.400 0 175 0
14.400 30.400 0.800 0 175 0
14.400 30.400 2.400 0 175 0
14.400 30.800 0.800 0 175 0
14.400 30.800 1.600 0 175 0
14.400 31.200 1.200 0 175 0
14.400 31.200 1.600 0 175 0
14.400 31.200 2.400 0 175 0
14.400 31.600 1.200 0 175 0
14.400 33.200 1.600 0 175 0
14.800 16.800 0.800 0 175 0
14.800 21.200 0.400 0 175 0
14.800 21.200 1.200 0 175 0
14.800 21.200 1.600 0 175 0
14.800 22.400 0.400 0 175 0
14.800 22.800 0.400 0 175 0
14.800 23.200 0.400 0 175 0
14.800 27.200 0.800 0 175 0
14.800 27.200 1.200 0 175 0
14.800 27.600 1.600 0 175 0
14.800 29.600 0.400 0 175 0
14.800 29.600 2.400 0 175 0
14.800 30.000 0.800 0 175 0
14.800 30.000 1.600 0 175 0
14.800 30.400 0.800 0 175 0
14.800 30.400 1.600 0 175 0
14.800 30.400 2.000 0 175 0
14.800 30.800 2.000 0 175 0
14.800 31.200 2.400 0 175 0
14.800 32.000 0.400 0 175 0
14.800 34.400 1.200 0 175 0
15.200 21.200 0.400 0 175 0
15.200 21.200 1.200 0 175 0
15.200 21.200 1.600 0 175 0
15.200 22.000 0.400 0 175 0
15.200 27.200 0.400 0 175 0
15.200 27.200 0.800 0 175 0
15.200 27.600 1.600 0 175 0
15.200 29.600 0.400 0 175 0
15.200 29.600 2.400 0 175 0
15.200 30.000 1.200 0 175 0
15.200 30.400 1.600 0 175 0
15.200 30.400 2.400 0 175 0
15.200 32.000 1.600 0 175 0
15.600 14.000 2.400 0 175 0
15.600 16.000 0.800 0 175 0
15.600 20.800 0.400 0 175 0
15.600 21.200 0.400 0 175 0
15.600 21.200 1.200 0 175 0
15.600 21.200 1.600 0 175 0
15.600 22.400 0.400 0 175 0
15.600 22.800 0.400 0 175 0
15.600 23.200 0.400 0 175 0
15.600 27.200 0.400 0 175 0
15.600 27.200 0.800 0 175 0
15.600 27.200 1.200 0 175 0
15.600 28.000 1.200 0 175 0
15.600 30.000 1.600 0 175 0
16.000 13.600 2.400 0 175 0
16.000 15.600 0.800 0 175 0
16.000 21.200 0.400 0 175 0
16.000 21.200 1.600 0 175 0
16.000 21.600 0.400 0 175 0
16.000 27.200 0.800 0 175 0
16.000 30.000 2.000 0 175 0
16.000 32.400 2.400 0 175 0
16.400 12.800 2.800 0 175 0
16.400 13.200 1.200 0 175 0
16.400 13.600 0.800 0 175 0
16.400 13.600 1.200 0 175 0
16.400 14.000 2.400 0 175 0
16.400 17.600 2.800 0 175 0
16.400 21.200 0.400 0 175 0
16.400 21.200 1.200 0 175 0
16.400 22.000 0.400 0 175 0
16.400 22.400 0.400 0 175 0
16.400 29.600 0.800 0 175 0
16.400 30.000 0.800 0 175 0
16.400 32.000 0.400 0 175 0
16.400 32.800 0.400 0 175 0
16.400 32.800 0.800 0 175 0
16.400 32.800 1.200 0 175 0
16.800 20.800 0.400 0 175 0
16.800 21.600 0.400 0 175 0
16.800 22.800 0.400 0 175 0
16.800 23.200 0.400 0 175 0
16.800 23.600 1.200 0 175 0
16.800 30.000 0.800 0 175 0
16.800 30.000 1.200 0 175 0
16.800 30.800 0.800 0 175 0
16.800 35.600 1.200 0 175 0
17.200 20.800 0.800 0 175 0
17.200 22.000 0.400 0 175 0
17.200 23.600 1.600 0 175 0
17.200 24.000 1.200 0 175 0
17.200 24.000 1.600 0 175 0
17.600 11.200 0.800 0 175 0
17.600 22.400 0.400 0 175 0
17.600 23.600 0.800 0 175 0
17.600 24.000 1.600 0 175 0
18.000 16.000 2.000 0 175 0
18.000 18.000 1.600 0 175 0
18.000 18.000 2.400 0 175 0
18.000 18.000 2.800 0 175 0
18.000 18.400 2.400 0 175 0
18.000 20.800 0.400 0 175 0
18.000 20.800 0.800 0 175 0
18.000 21.200 0.400 0 175 0
18.000 22.800 0.400 0 175 0
18.000 23.600 0.400 0 175 0
18.000 30.000 1.200 0 175 0
18.000 30.400 2.000 0 175 0
18.000 31.200 2.800 0 175 0
18.400 16.400 2.000 0 175 0
18.400 17.600 1.600 0 175 0
18.400 18.000 2.000 0 175 0
18.400 18.000 2.400 0 175 0
18.400 18.400 2.800 0 175 0
18.400 20.000 2.000 0 175 0
18.400 20.800 0.800 0 175 0
18.400 21.600 0.400 0 175 0
18.800 10.000 0.800 0 175 0
18.800 10.400 0.800 0 175 0
18.800 19.200 2.800 0 175 0
18.800 19.600 2.400 0 175 0
18.800 20.000 2.400 0 175 0
18.800 22.000 0.400 0 175 0
18.800 33.600 1.200 0 175 0
19.200 10.800 0.800 0 175 0
19.200 18.800 2.800 0 175 0
19.200 19.200 2.000 0 175 0
19.200 19.200 2.400 0 175 0
19.200 19.600 2.000 0 175 0
19.200 19.600 2.400 0 175 0
19.200 19.600 2.800 0 175 0
19.200 20.000 2.000 0 175 0
19.200 20.000 2.400 0 175 0
19.200 20.400 2.000 0 175 0
19.200 20.400 2.400 0 175 0
19.200 20.800 2.400 0 175 0
19.200 21.200 0.400 0 175 0
19.200 22.400 0.400 0 175 0
19.200 27.600 0.400 0 175 0
19.200 31.200 1.200 0 175 0
19.200 33.600 0.400 0 175 0
19.200 33.600 0.800 0 175 0
19.200 33.600 1.200 0 175 0
19.600 18.000 1.600 0 175 0
19.600 18.800 2.000 0 175 0
19.600 18.800 2.400 0 175 0
19.600 19.200 2.000 0 175 0
19.600 19.600 2.000 0 175 0
19.600 20.400 2.000 0 175 0
19.600 20.400 2.800 0 175 0
19.600 20.800 2.400 0 175 0
19.600 20.800 2.800 0 175 0
19.600 21.600 0.400 0 175 0
19.600 32.000 1.200 0 175 0
20.000 11.200 0.800 0 175 0
20.000 20.800 0.400 0 175 0
20.000 20.800 2.400 0 175 0
20.000 22.000 0.400 0 175 0
20.400 5.200 0.800 0 175 0
20.400 5.200 2.000 0 175 0
20.400 5.200 2.400 0 175 0
20.400 20.800 2.000 0 175 0
20.400 22.800 0.400 0 175 0
20.400 27.600 1.600 0 175 0
20.400 28.000 1.600 0 175 0
20.400 28.400 1.600 0 175 0
20.400 31.200 0.800 0 175 0
20.800 5.200 2.800 0 175 0
20.800 5.600 2.400 0 175 0
20.800 11.600 1.600 0 175 0
20.800 20.400 0.800 0 175 0
20.800 21.200 0.400 0 175 0
20.800 21.200 2.400 0 175 0
20.800 27.600 1.200 0 175 0
20.800 28.000 1.600 0 175 0
20.800 28.400 1.600 0 175 0
20.800 30.000 1.200 0 175 0
20.800 30.000 1.600 0 175 0
20.800 30.000 2.400 0 175 0
20.800 30.400 1.200 0 175 0
20.800 30.400 1.600 0 175 0
20.800 30.400 2.000 0 175 0
20.800 30.800 1.200 0 175 0
20.800 30.800 1.600 0 175 0
20.800 30.800 2.000 0 175 0
21.200 5.600 2.400 0 175 0
21.200 7.600 0.800 0 175 0
21.200 16.400 2.400 0 175 0
21.200 18.000 2.000 0 175 0
21.200 20.400 0.400 0 175 0
21.200 20.400 0.800 0 175 0
21.200 20.400 1.200 0 175 0
21.200 20.800 2.800 0 175 0
21.200 21.600 0.400 0 175 0
21.200 22.000 0.400 0 175 0
21.200 27.600 1.600 0 175 0
21.200 28.000 1.200 0 175 0
21.200 30.400 1.600 0 175 0
21.200 31.200 2.000 0 175 0
21.600 6.000 2.000 0 175 0
21.600 6.000 2.400 0 175 0
21.600 6.800 0.800 0 175 0
21.600 8.400 0.800 0 175 0
21.600 17.200 2.000 0 175 0
21.600 17.200 2.400 0 175 0
21.600 17.600 2.400 0 175 0
21.600 17.600 2.800 0 175 0
21.600 18.000 2.000 0 175 0
21.600 22.400 0.400 0 175 0
21.600 27.200 0.800 0 175 0
21.600 30.000 2.000 0 175 0
21.600 31.200 2.000 0 175 0
21.600 31.600 1.600 0 175 0
22.000 6.000 1.200 0 175 0
22.000 6.000 1.600 0 175 0
22.000 6.000 2.000 0 175 0
22.000 6.000 2.400 0 175 0
22.000 10.000 0.800 0 175 0
22.000 10.800 0.800 0 175 0
22.000 13.600 2.000 0 175 0
22.000 13.600 2.400 0 175 0
22.000 15.200 1.600 0 175 0
22.000 15.200 2.800 0 175 0
22.000 15.600 2.000 0 175 0
22.000 17.600 2.400 0 175 0
22.000 20.400 0.400 0 175 0
22.000 20.800 0.400 0 175 0
22.000 22.800 0.400 0 175 0
22.000 31.600 1.600 0 175 0
22.400 5.600 0.800 0 175 0
22.400 5.600 2.800 0 175 0
22.400 6.000 1.600 0 175 0
22.400 6.400 1.200 0 175 0
22.400 6.400 1.600 0 175 0
22.400 6.400 2.400 0 175 0
22.400 7.600 0.800 0 175 0
22.400 8.800 0.800 0 175 0
22.400 11.200 0.800 0 175 0
22.400 13.600 2.000 0 175 0
22.400 14.400 2.400 0 175 0
22.400 14.800 2.000 0 175 0
22.400 14.800 2.400 0 175 0
22.400 15.200 2.400 0 175 0
22.400 15.600 2.400 0 175 0
22.400 15.600 2.800 0 175 0
22.400 17.600 2.000 0 175 0
22.400 20.400 0.800 0 175 0
22.400 21.200 0.400 0 175 0
22.400 30.000 2.000 0 175 0
22.400 30.000 2.400 0 175 0
22.400 30.400 1.600 0 175 0
22.400 30.400 2.000 0 175 0
22.400 30.800 2.400 0 175 0
22.800 6.000 2.800 0 175 0
22.800 6.400 1.200 0 175 0
22.800 6.400 2.800 0 175 0
22.800 6.800 1.600 0 175 0
22.800 11.200 0.800 0 175 0
22.800 13.600 2.400 0 175 0
22.800 20.400 0.800 0 175 0
22.800 20.400 1.200 0 175 0
22.800 21.600 0.400 0 175 0
22.800 29.200 2.400 0 175 0
22.800 29.600 1.600 0 175 0
22.800 29.600 2.000 0 175 0
22.800 30.000 1.600 0 175 0
22.800 30.000 2.000 0 175 0
22.800 30.000 2.400 0 175 0
22.800 30.400 2.000 0 175 0
22.800 30.400 2.400 0 175 0
23.200 6.400 1.200 0 175 0
23.200 6.800 1.600 0 175 0
23.200 6.800 2.400 0 175 0
23.200 7.600 1.200 0 175 0
23.200 8.000 1.200 0 175 0
23.200 8.800 0.800 0 175 0
23.200 9.600 2.800 0 175 0
23.200 20.400 0.400 0 175 0
23.200 20.400 1.200 0 175 0
23.200 22.000 0.400 0 175 0
23.200 22.400 0.400 0 175 0
23.600 6.800 1.200 0 175 0
23.600 6.800 1.600 0 175 0
23.600 6.800 2.000 0 175 0
23.600 6.800 2.400 0 175 0
23.600 6.800 2.800 0 175 0
23.600 7.600 1.600 0 175 0
23.600 9.200 2.800 0 175 0
23.600 10.000 2.000 0 175 0
23.600 10.400 1.600 0 175 0
23.600 10.400 2.000 0 175 0
23.600 10.400 2.400 0 175 0
23.600 10.800 2.000 0 175 0
23.600 12.000 2.000 0 175 0
23.600 12.000 2.400 0 175 0
23.600 12.000 2.800 0 175 0
23.600 12.400 2.000 0 175 0
23.600 12.400 2.400 0 175 0
23.600 13.200 2.800 0 175 0
23.600 20.000 2.000 0 175 0
23.600 20.400 0.800 0 175 0
23.600 20.800 0.400 0 175 0
23.600 21.200 0.400 0 175 0
23.600 22.800 0.400 0 175 0
24.000 1.600 3.200 0 175 0
24.000 2.000 3.200 0 175 0
24.000 6.800 1.600 0 175 0
24.000 6.800 2.000 0 175 0
24.000 7.200 1.200 0 175 0
24.000 7.200 2.000 0 175 0
24.000 10.000 1.200 0 175 0
24.000 10.400 0.800 0 175 0
24.000 11.600 2.000 0 175 0
24.000 11.600 2.400 0 175 0
24.000 12.000 2.800 0 175 0
24.000 13.200 2.800 0 175 0
24.000 20.000 1.600 0 175 0
24.000 20.400 0.800 0 175 0
24.000 20.400 1.200 0 175 0
24.000 21.600 0.400 0 175 0
24.400 2.000 3.200 0 175 0
24.400 7.200 2.000 0 175 0
24.400 9.200 0.800 0 175 0
24.400 9.600 0.800 0 175 0
24.400 9.600 1.200 0 175 0
24.400 9.600 2.400 0 175 0
24.400 9.600 2.800 0 175 0
24.400 9.600 3.200 0 175 0
24.400 10.000 2.800 0 175 0
24.400 10.800 2.400 0 175 0
24.400 11.200 1.600 0 175 0
24.400 11.200 2.400 0 175 0
24.400 11.200 2.800 0 175 0
24.400 13.200 2.800 0 175 0
24.400 22.000 0.400 0 175 0
24.800 7.600 1.200 0 175 0
24.800 7.600 1.600 0 175 0
24.800 8.000 0.800 0 175 0
24.800 8.000 1.600 0 175 0
24.800 8.400 1.200 0 175 0
24.800 8.400 1.600 0 175 0
24.800 8.400 2.000 0 175 0
24.800 8.400 2.400 0 175 0
24.800 10.000 0.800 0 175 0
24.800 10.400 0.800 0 175 0
24.800 10.400 1.200 0 175 0
24.800 10.800 1.200 0 175 0
24.800 10.800 2.000 0 175 0
24.800 16.400 2.800 0 175 0
24.800 22.400 0.400 0 175 0
24.800 32.400 0.800 0 175 0
25.200 7.600 1.200 0 175 0
25.200 7.600 2.000 0 175 0
25.200 8.000 2.800 0 175 0
25.200 8.400 0.800 0 175 0
25.200 8.800 2.400 0 175 0
25.200 9.600 2.400 0 175 0
25.200 11.200 2.800 0 175 0
25.200 19.600 2.000 0 175 0
25.200 20.000 2.000 0 175 0
25.200 20.400 1.200 0 175 0
25.200 20.400 2.000 0 175 0
25.600 8.000 3.200 0 175 0
25.600 9.600 1.600 0 175 0
25.600 9.600 2.000 0 175 0
25.600 9.600 2.400 0 175 0
25.600 20.000 2.000 0 175 0
25.600 20.400 0.400 0 175 0
26.000 7.600 3.200 0 175 0
26.000 9.600 2.800 0 175 0
26.000 20.400 0.400 0 175 0
26.000 20.800 0.400 0 175 0
26.400 3.600 3.200 0 175 0
26.400 20.400 1.200 0 175 0
26.400 20.400 1.600 0 175 0
26.400 20.400 2.000 0 175 0
26.400 20.400 2.400 0 175 0
26.400 20.400 2.800 0 175 0
26.400 21.200 0.400 0 175 0
26.800 20.400 0.800 0 175 0
26.800 21.600 0.400 0 175 0
27.200 4.400 3.200 0 175 0
27.200 22.000 0.400 0 175 0
27.200 29.200 2.800 0 175 0
27.600 5.200 3.200 0 175 0
27.600 5.600 0.800 0 175 0
27.600 29.600 1.600 0 175 0
27.600 30.000 1.600 0 175 0
27.600 30.000 2.000 0 175 0
27.600 30.000 2.400 0 175 0
27.600 30.000 2.800 0 175 0
27.600 30.400 2.800 0 175 0
28.000 20.400 0.400 0 175 0
28.000 29.600 2.400 0 175 0
28.000 29.600 2.800 0 175 0
28.000 30.000 1.600 0 175 0
28.000 30.400 2.800 0 175 0
28.000 30.800 2.800 0 175 0
28.000 32.800 2.800 0 175 0
28.400 20.400 0.400 0 175 0
28.400 30.000 2.800 0 175 0
28.400 32.800 2.000 0 175 0
28.800 20.000 1.600 0 175 0
28.800 20.800 0.400 0 175 0
28.800 27.200 0.400 0 175 0
28.800 27.200 0.800 0 175 0
28.800 27.600 0.800 0 175 0
28.800 30.000 3.200 0 175 0
29.200 2.800 3.200 0 175 0
29.200 19.200 2.400 0 175 0
29.200 20.000 2.000 0 175 0
29.200 21.600 0.400 0 175 0
29.200 26.800 1.600 0 175 0
29.200 28.000 1.200 0 175 0
29.200 28.000 1.600 0 175 0
29.600 19.200 2.400 0 175 0
29.600 26.800 0.400 0 175 0
29.600 29.200 2.400 0 175 0
30.000 20.000 1.200 0 175 0
30.000 20.000 2.000 0 175 0
30.000 27.200 1.600 0 175 0
30.000 27.600 2.000 0 175 0
30.000 28.000 1.600 0 175 0
30.000 29.600 2.400 0 175 0
30.400 20.000 2.000 0 175 0
30.400 20.800 3.200 0 175 0
30.400 33.200 2.800 0 175 0
30.800 20.000 0.800 0 175 0
30.800 20.000 2.800 0 175 0
30.800 20.400 3.200 0 175 0
31.200 19.200 3.200 0 175 0
31.200 20.000 1.200 0 175 0
31.200 20.400 2.400 0 175 0
31.200 33.200 2.800 0 175 0
31.600 20.000 1.200 0 175 0
31.600 20.000 2.400 0 175 0
31.600 22.800 0.400 0 175 0
31.600 23.200 0.400 0 175 0
31.600 24.000 0.400 0 175 0
31.600 24.800 0.400 0 175 0
31.600 25.600 0.400 0 175 0
31.600 26.000 0.400 0 175 0
31.600 26.400 0.400 0 175 0
31.600 27.200 0.400 0 175 0
31.600 27.600 0.400 0 175 0
31.600 28.000 0.400 0 175 0
31.600 33.200 2.800 0 175 0
32.000 20.000 2.000 0 175 0
32.000 20.000 2.800 0 175 0
32.000 20.400 2.400 0 175 0
32.000 20.800 0.400 0 175 0
32.000 20.800 2.800 0 175 0
32.000 20.800 3.200 0 175 0
32.400 18.400 2.400 0 175 0
32.400 20.400 2.400 0 175 0
32.400 20.800 2.800 0 175 0
32.400 21.200 3.200 0 175 0
32.400 30.000 1.600 0 175 0
32.800 20.800 2.400 0 175 0
33.600 30.000 2.000 0 175 0
34.800 19.600 0.800 0 175 0
35.200 22.400 0.400 0 175 0
35.200 23.200 0.400 0 175 0
35.200 23.600 0.400 0 175 0
35.200 24.000 0.400 0 175 0
35.200 24.400 0.400 0 175 0
35.200 24.800 0.400 0 175 0
35.200 25.200 0.400 0 175 0
35.200 25.600 0.400 0 175 0
35.200 26.000 0.400 0 175 0
35.600 20.000 0.400 0 175 0
36.000 20.400 0.400 0 175 0
37.200 26.400 0.400 0 175 0
37.600 29.600 1.600 0 175 0
38.000 29.200 2.000 0 175 0
38.400 29.600 2.000 0 175 0
38.400 30.000 1.600 0 175 0
38.400 30.000 2.000 0 175 0
38.800 29.600 2.000 0 175 0
39.600 19.600 0.800 0 175 0
39.600 19.600 1.200 0 175 0
39.600 22.400 0.400 0 175 0
39.600 23.200 0.400 0 175 0
39.600 23.600 0.400 0 175 0
40.400 19.600 1.200 0 175 0
40.800 30.000 2.800 0 175 0
41.200 20.400 0.400 0 175 0
41.600 19.600 1.200 0 175 0
41.600 19.600 2.000 0 175 0
41.600 29.200 2.800 0 175 0
41.600 29.200 3.200 0 175 0
41.600 30.400 2.800 0 175 0
42.000 29.600 1.600 0 175 0
42.000 31.200 3.600 0 175 0
42.400 26.400 0.800 0 175 0
42.400 30.000 3.200 0 175 0
42.800 30.400 3.200 0 175 0
43.600 19.600 2.000 0 175 0
44.400 22.400 0.400 0 175 0
44.400 22.800 0.400 0 175 0
44.400 23.200 0.400 0 175 0
44.400 23.600 0.400 0 175 0
44.400 24.000 0.400 0 175 0
44.400 24.400 0.400 0 175 0
44.400 24.800 0.400 0 175 0
44.400 25.200 0.400 0 175 0
44.400 25.600 0.400 0 175 0
44.400 26.000 0.400 0 175 0
44.800 19.600 2.000 0 175 0
44.800 22.400 0.400 0 175 0
45.600 29.200 2.000 0 175 0
46.000 28.800 2.000 0 175 0
46.000 29.600 3.200 0 175 0
47.200 19.200 1.200 0 175 0
48.400 19.200 0.800 0 175 0
49.200 19.200 2.000 0 175 0
