ply
format ascii 1.0
comment S2D2 voxel export
element vertex 1821
property float x
property float y
property float z
property uchar red
property uchar green
property uchar blue
end_header
0.000 1.600 1.200 0 175 0
0.000 2.400 0.800 0 175 0
0.000 3.600 1.200 0 175 0
0.000 4.000 0.400 0 175 0
0.000 4.000 0.800 0 175 0
0.000 9.600 0.400 0 175 0
0.000 10.000 0.000 0 175 0
0.000 10.800 0.000 0 175 0
0.000 12.000 0.000 0 175 0
0.000 13.600 0.800 0 175 0
0.000 14.000 0.400 0 175 0
0.000 14.000 0.800 0 175 0
0.000 14.000 1.200 0 175 0
0.000 19.200 0.000 0 175 0
0.000 19.600 0.000 0 175 0
0.000 20.000 0.000 0 175 0
0.000 20.400 0.000 0 175 0
0.000 20.800 0.000 0 175 0
0.000 21.200 0.000 0 175 0
0.000 29.600 0.000 0 175 0
0.000 33.600 0.000 0 175 0
0.000 36.000 0.000 0 175 0
0.000 37.600 0.000 0 175 0
0.000 38.800 0.000 0 175 0
0.000 39.600 0.000 0 175 0
0.000 40.000 0.000 0 175 0
0.000 42.000 0.000 0 175 0
0.000 42.800 0.000 0 175 0
0.000 44.000 0.000 0 175 0
0.000 46.400 0.000 0 175 0
0.000 48.000 0.000 0 175 0
0.400 3.200 0.400 0 175 0
0.400 3.200 1.200 0 175 0
0.400 3.200 1.600 0 175 0
0.400 3.600 0.400 0 175 0
0.400 3.600 0.800 0 175 0
0.400 3.600 1.200 0 175 0
0.400 9.200 0.800 0 175 0
0.400 10.000 0.400 0 175 0
0.400 10.800 0.000 0 175 0
0.400 12.000 0.000 0 175 0
0.400 14.000 0.800 0 175 0
0.400 15.200 0.400 0 175 0
0.400 17.200 0.400 0 175 0
0.400 19.600 0.000 0 175 0
0.400 20.000 0.000 0 175 0
0.400 20.400 0.000 0 175 0
0.400 20.800 0.000 0 175 0
0.400 21.200 0.000 0 175 0
0.400 29.600 0.000 0 175 0
0.400 40.400 0.000 0 175 0
0.400 41.200 0.000 0 175 0
0.400 42.000 0.000 0 175 0
0.400 42.800 0.000 0 175 0
0.400 44.800 0.000 0 175 0
0.400 46.000 0.000 0 175 0
0.400 47.600 0.000 0 175 0
0.400 49.200 0.000 0 175 0
0.800 2.800 2.400 0 175 0
0.800 3.200 1.600 0 175 0
0.800 3.200 2.000 0 175 0
0.800 3.600 1.200 0 175 0
0.800 9.200 1.200 0 175 0
0.800 10.000 0.000 0 175 0
0.800 10.000 0.800 0 175 0
0.800 10.800 0.000 0 175 0
0.800 14.000 0.400 0 175 0
0.800 14.000 0.800 0 175 0
0.800 14.000 1.200 0 175 0
0.800 14.800 0.400 0 175 0
0.800 15.200 0.400 0 175 0
0.800 16.000 0.400 0 175 0
0.800 16.400 0.400 0 175 0
0.800 17.200 0.400 0 175 0
0.800 17.600 0.400 0 175 0
0.800 19.600 0.000 0 175 0
0.800 20.000 0.000 0 175 0
0.800 20.400 0.000 0 175 0
0.800 20.800 0.000 0 175 0
0.800 21.200 0.000 0 175 0
0.800 29.600 0.000 0 175 0
0.800 39.200 0.000 0 175 0
0.800 40.400 0.000 0 175 0
0.800 43.600 0.000 0 175 0
0.800 47.600 0.000 0 175 0
0.800 50.800 0.000 0 175 0
1.200 0.000 1.200 0 175 0
1.200 0.000 2.000 0 175 0
1.200 0.000 2.800 0 175 0
1.200 0.400 2.800 0 175 0
1.200 2.800 2.000 0 175 0
1.200 2.800 2.800 0 175 0
1.200 3.200 1.600 0 175 0
1.200 4.000 0.800 0 175 0
1.200 4.000 1.200 0 175 0
1.200 4.000 1.600 0 175 0
1.200 4.000 2.000 0 175 0
1.200 4.000 2.400 0 175 0
1.200 6.400 2.400 0 175 0
1.200 9.600 1.200 0 175 0
1.200 10.000 1.200 0 175 0
1.200 13.600 0.400 0 175 0
1.200 14.800 0.400 0 175 0
1.200 15.600 0.400 0 175 0
1.200 16.400 0.400 0 175 0
1.200 16.800 0.400 0 175 0
1.200 17.600 0.400 0 175 0
1.200 18.000 0.400 0 175 0
1.600 5.600 1.200 0 175 0
1.600 5.600 2.000 0 175 0
1.600 6.400 1.200 0 175 0
1.600 6.400 1.600 0 175 0
1.600 6.400 2.000 0 175 0
1.600 6.400 2.400 0 175 0
1.600 6.400 2.800 0 175 0
1.600 8.400 1.200 0 175 0
1.600 8.800 1.200 0 175 0
1.600 10.000 0.400 0 175 0
1.600 10.000 0.800 0 175 0
1.600 12.800 1.200 0 175 0
1.600 13.200 0.800 0 175 0
1.600 13.200 1.200 0 175 0
1.600 13.600 0.400 0 175 0
1.600 13.600 0.800 0 175 0
1.600 13.600 1.200 0 175 0
1.600 15.200 0.400 0 175 0
1.600 15.600 0.400 0 175 0
1.600 16.000 0.400 0 175 0
1.600 16.400 0.400 0 175 0
1.600 16.800 0.400 0 175 0
1.600 17.600 0.400 0 175 0
1.600 18.000 0.400 0 175 0
1.600 18.400 0.400 0 175 0
1.600 18.800 0.400 0 175 0
1.600 21.600 0.000 0 175 0
2.000 7.200 1.200 0 175 0
2.000 7.200 2.000 0 175 0
2.000 7.600 1.200 0 175 0
2.000 7.600 1.600 0 175 0
2.000 8.000 0.800 0 175 0
2.000 8.000 1.200 0 175 0
2.000 8.000 1.600 0 175 0
2.000 8.400 1.200 0 175 0
2.000 8.400 1.600 0 175 0
2.000 8.800 1.200 0 175 0
2.000 8.800 1.600 0 175 0
2.000 8.800 2.000 0 175 0
2.000 8.800 2.400 0 175 0
2.000 9.200 1.200 0 175 0
2.000 9.200 2.000 0 175 0
2.000 9.200 2.400 0 175 0
2.000 13.200 1.200 0 175 0
2.000 13.600 0.400 0 175 0
2.000 13.600 0.800 0 175 0
2.000 13.600 1.200 0 175 0
2.000 14.000 0.400 0 175 0
2.000 15.200 0.400 0 175 0
2.000 16.000 0.400 0 175 0
2.000 16.400 0.400 0 175 0
2.000 16.800 0.400 0 175 0
2.000 17.200 0.400 0 175 0
2.000 17.600 0.400 0 175 0
2.000 18.000 0.400 0 175 0
2.000 18.400 0.400 0 175 0
2.000 19.200 0.400 0 175 0
2.000 22.000 0.000 0 175 0
2.400 13.600 0.400 0 175 0
2.400 15.200 0.400 0 175 0
2.400 16.000 0.400 0 175 0
2.400 16.400 0.400 0 175 0
2.400 16.800 0.400 0 175 0
2.400 17.200 0.400 0 175 0
2.400 17.600 0.400 0 175 0
2.400 18.000 0.400 0 175 0
2.400 18.400 0.400 0 175 0
2.400 18.800 0.400 0 175 0
2.400 19.200 0.400 0 175 0
2.400 22.000 0.000 0 175 0
2.800 9.600 1.600 0 175 0
2.800 9.600 2.000 0 175 0
2.800 10.400 1.200 0 175 0
2.800 13.600 0.400 0 175 0
2.800 13.600 0.800 0 175 0
2.800 13.600 1.200 0 175 0
2.800 15.200 0.400 0 175 0
2.800 16.000 0.400 0 175 0
2.800 16.400 0.400 0 175 0
2.800 16.800 0.400 0 175 0
2.800 17.200 0.400 0 175 0
2.800 18.000 0.400 0 175 0
2.800 18.400 0.400 0 175 0
2.800 18.800 0.400 0 175 0
2.800 20.000 0.400 0 175 0
2.800 22.400 0.000 0 175 0
2.800 28.400 0.000 0 175 0
2.800 42.400 0.400 0 175 0
2.800 42.400 0.800 0 175 0
2.800 42.800 0.400 0 175 0
3.200 9.600 1.600 0 175 0
3.200 9.600 2.000 0 175 0
3.200 9.600 2.400 0 175 0
3.200 13.200 0.800 0 175 0
3.200 13.200 1.200 0 175 0
3.200 13.600 0.400 0 175 0
3.200 13.600 0.800 0 175 0
3.200 13.600 1.200 0 175 0
3.200 15.200 0.400 0 175 0
3.200 15.600 1.200 0 175 0
3.200 16.000 0.400 0 175 0
3.200 16.800 0.400 0 175 0
3.200 17.200 0.400 0 175 0
3.200 17.600 0.400 0 175 0
3.200 18.000 0.400 0 175 0
3.200 18.400 0.400 0 175 0
3.200 18.800 0.400 0 175 0
3.200 22.400 0.000 0 175 0
3.200 22.800 0.000 0 175 0
3.200 42.400 0.800 0 175 0
3.200 42.800 1.200 0 175 0
3.200 44.000 1.600 0 175 0
3.200 44.800 0.400 0 175 0
3.200 44.800 1.200 0 175 0
3.600 9.600 1.200 0 175 0
3.600 9.600 1.600 0 175 0
3.600 9.600 2.000 0 175 0
3.600 9.600 2.400 0 175 0
3.600 13.200 1.600 0 175 0
3.600 13.600 0.400 0 175 0
3.600 13.600 0.800 0 175 0
3.600 13.600 1.200 0 175 0
3.600 14.000 0.400 0 175 0
3.600 14.400 0.400 0 175 0
3.600 14.800 0.800 0 175 0
3.600 15.200 0.400 0 175 0
3.600 15.200 0.800 0 175 0
3.600 15.600 0.800 0 175 0
3.600 15.600 1.200 0 175 0
3.600 15.600 1.600 0 175 0
3.600 16.000 0.400 0 175 0
3.600 16.000 1.200 0 175 0
3.600 16.000 1.600 0 175 0
3.600 16.000 2.000 0 175 0
3.600 16.400 1.200 0 175 0
3.600 16.400 1.600 0 175 0
3.600 16.800 0.400 0 175 0
3.600 16.800 1.600 0 175 0
3.600 18.000 0.400 0 175 0
3.600 18.400 0.400 0 175 0
3.600 18.800 0.400 0 175 0
3.600 42.400 0.800 0 175 0
3.600 42.800 1.200 0 175 0
3.600 43.600 1.600 0 175 0
4.000 9.600 1.200 0 175 0
4.000 9.600 1.600 0 175 0
4.000 9.600 2.000 0 175 0
4.000 9.600 2.400 0 175 0
4.000 13.200 1.600 0 175 0
4.000 13.600 0.400 0 175 0
4.000 13.600 0.800 0 175 0
4.000 13.600 1.200 0 175 0
4.000 13.600 2.000 0 175 0
4.000 14.000 0.400 0 175 0
4.000 14.000 1.200 0 175 0
4.000 14.000 1.600 0 175 0
4.000 14.000 2.000 0 175 0
4.000 14.000 2.400 0 175 0
4.000 14.400 0.400 0 175 0
4.000 14.400 0.800 0 175 0
4.000 14.400 1.600 0 175 0
4.000 14.800 0.400 0 175 0
4.000 14.800 2.000 0 175 0
4.000 15.200 0.400 0 175 0
4.000 15.200 2.000 0 175 0
4.000 15.600 0.400 0 175 0
4.000 15.600 0.800 0 175 0
4.000 15.600 1.600 0 175 0
4.000 15.600 2.000 0 175 0
4.000 16.000 0.400 0 175 0
4.000 16.000 1.200 0 175 0
4.000 16.000 1.600 0 175 0
4.000 16.400 0.400 0 175 0
4.000 16.400 2.000 0 175 0
4.000 16.800 0.400 0 175 0
4.000 16.800 1.200 0 175 0
4.000 16.800 1.600 0 175 0
4.000 17.200 0.400 0 175 0
4.000 17.200 1.200 0 175 0
4.000 17.600 0.400 0 175 0
4.000 18.000 0.400 0 175 0
4.000 18.400 0.400 0 175 0
4.000 18.800 0.400 0 175 0
4.000 20.000 0.400 0 175 0
4.000 42.000 0.400 0 175 0
4.400 9.200 2.000 0 175 0
4.400 9.200 2.400 0 175 0
4.400 9.600 1.600 0 175 0
4.400 14.000 2.000 0 175 0
4.400 14.400 0.800 0 175 0
4.400 14.800 0.800 0 175 0
4.400 14.800 1.600 0 175 0
4.400 14.800 2.000 0 175 0
4.400 15.200 0.400 0 175 0
4.400 15.200 0.800 0 175 0
4.400 15.200 1.200 0 175 0
4.400 15.200 2.000 0 175 0
4.400 15.600 1.600 0 175 0
4.400 16.000 0.400 0 175 0
4.400 16.000 0.800 0 175 0
4.400 16.000 1.200 0 175 0
4.400 16.000 1.600 0 175 0
4.400 16.000 2.000 0 175 0
4.400 16.400 0.400 0 175 0
4.400 16.400 0.800 0 175 0
4.400 16.400 1.200 0 175 0
4.400 16.400 1.600 0 175 0
4.400 16.400 2.000 0 175 0
4.400 16.800 1.200 0 175 0
4.400 16.800 1.600 0 175 0
4.400 16.800 2.000 0 175 0
4.400 17.200 0.400 0 175 0
4.400 17.200 1.200 0 175 0
4.400 17.200 1.600 0 175 0
4.400 17.600 0.400 0 175 0
4.400 17.600 1.200 0 175 0
4.400 17.600 1.600 0 175 0
4.400 18.000 0.400 0 175 0
4.400 18.400 0.400 0 175 0
4.400 18.800 0.400 0 175 0
4.400 19.200 0.400 0 175 0
4.400 19.600 0.400 0 175 0
4.400 22.400 0.000 0 175 0
4.400 32.800 2.400 0 175 0
4.400 42.400 0.800 0 175 0
4.400 42.800 1.200 0 175 0
4.400 43.200 1.600 0 175 0
4.400 43.600 1.600 0 175 0
4.400 44.000 1.600 0 175 0
4.800 9.200 2.000 0 175 0
4.800 9.200 2.400 0 175 0
4.800 9.600 1.600 0 175 0
4.800 14.000 0.800 0 175 0
4.800 14.400 1.200 0 175 0
4.800 14.800 0.800 0 175 0
4.800 15.200 0.800 0 175 0
4.800 15.600 0.800 0 175 0
4.800 15.600 2.400 0 175 0
4.800 16.000 0.400 0 175 0
4.800 16.000 0.800 0 175 0
4.800 16.000 1.600 0 175 0
4.800 16.000 2.400 0 175 0
4.800 16.400 0.400 0 175 0
4.800 16.400 0.800 0 175 0
4.800 16.400 1.200 0 175 0
4.800 16.400 1.600 0 175 0
4.800 16.400 2.000 0 175 0
4.800 16.400 2.400 0 175 0
4.800 16.800 0.800 0 175 0
4.800 16.800 1.600 0 175 0
4.800 16.800 2.000 0 175 0
4.800 16.800 2.400 0 175 0
4.800 17.200 1.600 0 175 0
4.800 17.600 0.400 0 175 0
4.800 17.600 1.200 0 175 0
4.800 17.600 1.600 0 175 0
4.800 18.000 0.400 0 175 0
4.800 18.400 0.400 0 175 0
4.800 18.400 0.800 0 175 0
4.800 18.400 1.200 0 175 0
4.800 18.400 1.600 0 175 0
4.800 19.200 0.400 0 175 0
4.800 19.600 0.400 0 175 0
4.800 20.000 0.400 0 175 0
4.800 22.000 0.000 0 175 0
4.800 30.400 0.400 0 175 0
4.800 30.800 0.400 0 175 0
4.800 31.200 0.400 0 175 0
4.800 31.600 0.400 0 175 0
4.800 32.400 0.400 0 175 0
4.800 32.800 0.400 0 175 0
4.800 32.800 2.400 0 175 0
4.800 33.200 0.400 0 175 0
4.800 33.600 0.400 0 175 0
4.800 34.000 0.400 0 175 0
4.800 34.400 0.400 0 175 0
4.800 34.800 0.400 0 175 0
5.200 9.200 2.000 0 175 0
5.200 9.200 2.400 0 175 0
5.200 14.000 2.000 0 175 0
5.200 14.800 2.000 0 175 0
5.200 15.200 2.000 0 175 0
5.200 15.200 2.400 0 175 0
5.200 15.600 0.800 0 175 0
5.200 15.600 2.000 0 175 0
5.200 15.600 2.400 0 175 0
5.200 16.000 0.800 0 175 0
5.200 16.000 2.000 0 175 0
5.200 16.400 0.400 0 175 0
5.200 16.400 0.800 0 175 0
5.200 16.400 2.000 0 175 0
5.200 16.400 2.400 0 175 0
5.200 16.800 2.000 0 175 0
5.200 17.200 0.400 0 175 0
5.200 17.200 1.200 0 175 0
5.200 17.200 1.600 0 175 0
5.200 17.200 2.000 0 175 0
5.200 17.600 0.400 0 175 0
5.200 17.600 1.200 0 175 0
5.200 17.600 1.600 0 175 0
5.200 17.600 2.000 0 175 0
5.200 18.000 0.400 0 175 0
5.200 18.400 0.400 0 175 0
5.200 18.400 0.800 0 175 0
5.200 18.400 1.200 0 175 0
5.200 18.400 1.600 0 175 0
5.200 18.800 0.400 0 175 0
5.200 19.200 0.400 0 175 0
5.200 19.600 0.400 0 175 0
5.200 22.400 0.000 0 175 0
5.200 30.000 0.400 0 175 0
5.200 30.400 0.400 0 175 0
5.200 30.800 0.400 0 175 0
5.200 31.200 0.400 0 175 0
5.200 31.600 0.400 0 175 0
5.200 32.000 0.400 0 175 0
5.200 32.400 0.400 0 175 0
5.200 32.800 0.400 0 175 0
5.200 33.200 0.400 0 175 0
5.200 34.000 0.400 0 175 0
5.200 35.200 0.400 0 175 0
5.200 35.600 0.400 0 175 0
5.200 36.000 0.400 0 175 0
5.200 36.400 0.400 0 175 0
5.200 36.800 0.400 0 175 0
5.200 37.200 0.400 0 175 0
5.200 37.600 0.400 0 175 0
5.200 38.800 2.000 0 175 0
5.200 38.800 2.400 0 175 0
5.200 40.000 1.200 0 175 0
5.200 40.000 2.400 0 175 0
5.200 40.400 2.000 0 175 0
5.600 9.200 2.000 0 175 0
5.600 9.200 2.400 0 175 0
5.600 15.200 2.400 0 175 0
5.600 15.600 2.400 0 175 0
5.600 16.000 2.000 0 175 0
5.600 16.000 2.400 0 175 0
5.600 16.400 0.400 0 175 0
5.600 16.400 0.800 0 175 0
5.600 16.400 1.200 0 175 0
5.600 16.400 2.000 0 175 0
5.600 16.800 0.400 0 175 0
5.600 16.800 0.800 0 175 0
5.600 16.800 1.200 0 175 0
5.600 16.800 1.600 0 175 0
5.600 16.800 2.400 0 175 0
5.600 17.200 0.400 0 175 0
5.600 17.200 1.600 0 175 0
5.600 17.200 2.400 0 175 0
5.600 17.600 1.600 0 175 0
5.600 17.600 2.000 0 175 0
5.600 18.400 0.400 0 175 0
5.600 18.400 0.800 0 175 0
5.600 18.400 1.200 0 175 0
5.600 18.400 1.600 0 175 0
5.600 18.800 0.400 0 175 0
5.600 19.200 0.400 0 175 0
5.600 19.600 0.400 0 175 0
5.600 20.000 0.400 0 175 0
5.600 30.000 0.400 0 175 0
5.600 30.400 0.400 0 175 0
5.600 31.200 0.400 0 175 0
5.600 31.600 0.400 0 175 0
5.600 32.000 0.400 0 175 0
5.600 32.800 0.400 0 175 0
5.600 33.600 0.400 0 175 0
5.600 34.400 0.400 0 175 0
5.600 34.800 0.400 0 175 0
5.600 35.200 0.400 0 175 0
5.600 35.600 0.400 0 175 0
5.600 36.000 0.400 0 175 0
5.600 36.400 0.400 0 175 0
5.600 36.800 0.400 0 175 0
5.600 37.600 0.400 0 175 0
5.600 38.400 1.600 0 175 0
5.600 38.400 2.400 0 175 0
5.600 38.800 0.400 0 175 0
5.600 38.800 0.800 0 175 0
5.600 38.800 2.000 0 175 0
5.600 38.800 2.400 0 175 0
5.600 39.200 0.400 0 175 0
5.600 39.200 1.200 0 175 0
5.600 39.200 2.000 0 175 0
5.600 39.600 1.200 0 175 0
5.600 39.600 1.600 0 175 0
5.600 40.000 0.400 0 175 0
5.600 40.000 0.800 0 175 0
5.600 40.000 1.600 0 175 0
5.600 40.000 2.000 0 175 0
5.600 40.000 2.400 0 175 0
5.600 40.400 0.400 0 175 0
5.600 40.400 2.400 0 175 0
5.600 41.200 0.400 0 175 0
5.600 41.600 0.400 0 175 0
5.600 41.600 0.800 0 175 0
5.600 42.000 0.400 0 175 0
5.600 42.000 1.200 0 175 0
5.600 42.000 1.600 0 175 0
5.600 42.400 0.400 0 175 0
5.600 42.400 0.800 0 175 0
5.600 42.400 1.200 0 175 0
5.600 42.800 0.400 0 175 0
5.600 42.800 0.800 0 175 0
5.600 42.800 1.600 0 175 0
5.600 42.800 2.000 0 175 0
5.600 43.200 0.800 0 175 0
5.600 43.200 1.200 0 175 0
5.600 43.200 1.600 0 175 0
5.600 43.200 2.000 0 175 0
5.600 43.200 2.400 0 175 0
5.600 43.600 0.400 0 175 0
5.600 43.600 0.800 0 175 0
5.600 43.600 1.200 0 175 0
5.600 43.600 1.600 0 175 0
5.600 43.600 2.000 0 175 0
5.600 43.600 2.400 0 175 0
5.600 44.000 1.200 0 175 0
5.600 44.000 1.600 0 175 0
5.600 44.000 2.000 0 175 0
5.600 44.000 2.400 0 175 0
5.600 44.400 1.200 0 175 0
5.600 44.400 1.600 0 175 0
5.600 44.400 2.400 0 175 0
5.600 44.800 2.400 0 175 0
6.000 9.600 2.400 0 175 0
6.000 15.600 2.000 0 175 0
6.000 16.400 1.200 0 175 0
6.000 16.400 2.000 0 175 0
6.000 16.800 1.600 0 175 0
6.000 16.800 2.000 0 175 0
6.000 17.200 2.000 0 175 0
6.000 18.000 0.400 0 175 0
6.000 18.400 0.400 0 175 0
6.000 18.800 0.400 0 175 0
6.000 19.200 0.400 0 175 0
6.000 19.600 0.400 0 175 0
6.000 20.000 0.400 0 175 0
6.000 20.400 0.400 0 175 0
6.000 30.000 0.400 0 175 0
6.000 30.400 0.400 0 175 0
6.000 30.800 0.400 0 175 0
6.000 31.200 0.400 0 175 0
6.000 31.600 0.400 0 175 0
6.000 31.600 2.400 0 175 0
6.000 32.000 0.400 0 175 0
6.000 32.000 2.000 0 175 0
6.000 32.400 0.400 0 175 0
6.000 32.400 1.200 0 175 0
6.000 32.400 1.600 0 175 0
6.000 33.200 0.400 0 175 0
6.000 34.000 0.400 0 175 0
6.000 34.800 0.400 0 175 0
6.000 35.200 0.400 0 175 0
6.000 36.400 0.400 0 175 0
6.000 37.200 0.400 0 175 0
6.000 38.000 2.400 0 175 0
6.000 38.400 0.400 0 175 0
6.000 38.400 2.000 0 175 0
6.000 38.800 2.000 0 175 0
6.000 38.800 2.400 0 175 0
6.000 39.200 0.400 0 175 0
6.000 39.200 0.800 0 175 0
6.000 39.200 1.200 0 175 0
6.000 39.200 1.600 0 175 0
6.000 39.600 0.400 0 175 0
6.000 39.600 1.200 0 175 0
6.000 40.000 1.600 0 175 0
6.000 40.000 2.400 0 175 0
6.000 40.400 0.400 0 175 0
6.000 40.400 2.000 0 175 0
6.000 40.800 0.800 0 175 0
6.000 40.800 1.600 0 175 0
6.000 40.800 2.400 0 175 0
6.000 45.600 0.400 0 175 0
6.000 45.600 2.800 0 175 0
6.000 46.400 2.800 0 175 0
6.000 46.800 2.000 0 175 0
6.000 46.800 2.800 0 175 0
6.000 47.200 0.800 0 175 0
6.000 47.200 1.200 0 175 0
6.000 47.200 1.600 0 175 0
6.000 47.200 2.000 0 175 0
6.000 47.200 2.400 0 175 0
6.000 47.200 2.800 0 175 0
6.000 47.600 1.200 0 175 0
6.000 47.600 2.000 0 175 0
6.000 47.600 2.400 0 175 0
6.000 48.000 1.600 0 175 0
6.000 48.000 2.000 0 175 0
6.000 48.000 2.400 0 175 0
6.000 48.400 2.000 0 175 0
6.000 48.400 2.400 0 175 0
6.000 48.800 2.000 0 175 0
6.000 48.800 2.400 0 175 0
6.400 15.200 2.400 0 175 0
6.400 16.000 2.000 0 175 0
6.400 16.800 2.000 0 175 0
6.400 17.200 1.600 0 175 0
6.400 17.200 2.000 0 175 0
6.400 17.200 2.400 0 175 0
6.400 17.600 0.400 0 175 0
6.400 17.600 1.600 0 175 0
6.400 18.000 0.400 0 175 0
6.400 18.400 0.400 0 175 0
6.400 18.800 0.400 0 175 0
6.400 19.200 0.400 0 175 0
6.400 19.600 0.400 0 175 0
6.400 20.000 0.400 0 175 0
6.400 20.800 0.400 0 175 0
6.400 30.000 0.400 0 175 0
6.400 30.400 0.400 0 175 0
6.400 30.800 0.400 0 175 0
6.400 31.200 0.400 0 175 0
6.400 31.200 2.400 0 175 0
6.400 31.600 1.600 0 175 0
6.400 31.600 2.000 0 175 0
6.400 32.000 0.400 0 175 0
6.400 32.000 1.200 0 175 0
6.400 32.000 1.600 0 175 0
6.400 32.000 2.000 0 175 0
6.400 32.400 0.800 0 175 0
6.400 32.400 1.600 0 175 0
6.400 32.800 0.400 0 175 0
6.400 33.600 0.400 0 175 0
6.400 34.000 2.400 0 175 0
6.400 34.400 0.400 0 175 0
6.400 34.800 0.400 0 175 0
6.400 35.600 0.400 0 175 0
6.400 36.000 0.400 0 175 0
6.400 36.800 0.400 0 175 0
6.400 38.000 0.400 0 175 0
6.400 38.000 2.000 0 175 0
6.400 38.400 0.400 0 175 0
6.400 38.400 1.200 0 175 0
6.400 38.400 1.600 0 175 0
6.400 38.400 2.000 0 175 0
6.400 38.400 2.400 0 175 0
6.400 38.800 0.400 0 175 0
6.400 38.800 1.600 0 175 0
6.400 38.800 2.000 0 175 0
6.400 39.200 0.800 0 175 0
6.400 39.200 1.200 0 175 0
6.400 39.200 1.600 0 175 0
6.400 40.000 0.800 0 175 0
6.400 45.600 2.800 0 175 0
6.800 15.200 0.400 0 175 0
6.800 15.200 1.200 0 175 0
6.800 15.200 2.400 0 175 0
6.800 16.000 2.000 0 175 0
6.800 16.400 2.000 0 175 0
6.800 16.400 2.400 0 175 0
6.800 16.800 2.400 0 175 0
6.800 17.200 2.000 0 175 0
6.800 17.200 2.400 0 175 0
6.800 17.600 1.200 0 175 0
6.800 17.600 1.600 0 175 0
6.800 18.000 0.400 0 175 0
6.800 18.400 0.400 0 175 0
6.800 18.800 0.400 0 175 0
6.800 19.200 0.400 0 175 0
6.800 19.600 0.400 0 175 0
6.800 20.000 0.400 0 175 0
6.800 20.400 0.400 0 175 0
6.800 20.800 0.400 0 175 0
6.800 30.000 0.400 0 175 0
6.800 30.400 0.400 0 175 0
6.800 30.800 0.400 0 175 0
6.800 31.200 1.600 0 175 0
6.800 31.200 2.000 0 175 0
6.800 31.600 0.400 0 175 0
6.800 31.600 1.200 0 175 0
6.800 31.600 1.600 0 175 0
6.800 31.600 2.000 0 175 0
6.800 31.600 2.400 0 175 0
6.800 32.000 0.800 0 175 0
6.800 32.000 1.200 0 175 0
6.800 32.000 1.600 0 175 0
6.800 32.400 0.800 0 175 0
6.800 32.800 2.400 0 175 0
6.800 33.200 2.400 0 175 0
6.800 34.000 2.400 0 175 0
6.800 34.400 0.400 0 175 0
6.800 35.200 0.400 0 175 0
6.800 36.400 0.400 0 175 0
6.800 37.600 0.400 0 175 0
6.800 38.000 1.600 0 175 0
6.800 38.000 2.400 0 175 0
6.800 38.400 1.600 0 175 0
6.800 38.400 2.000 0 175 0
6.800 38.400 2.400 0 175 0
6.800 38.800 2.000 0 175 0
6.800 39.200 0.400 0 175 0
6.800 39.200 1.600 0 175 0
6.800 40.000 0.400 0 175 0
6.800 40.000 0.800 0 175 0
6.800 40.000 1.200 0 175 0
6.800 40.400 0.800 0 175 0
6.800 42.000 0.800 0 175 0
6.800 45.600 2.800 0 175 0
7.200 14.800 2.400 0 175 0
7.200 15.200 2.400 0 175 0
7.200 16.000 2.000 0 175 0
7.200 16.000 2.400 0 175 0
7.200 16.400 0.400 0 175 0
7.200 16.800 0.400 0 175 0
7.200 16.800 1.600 0 175 0
7.200 17.200 1.600 0 175 0
7.200 17.200 2.000 0 175 0
7.200 17.200 2.400 0 175 0
7.200 17.600 0.800 0 175 0
7.200 17.600 1.200 0 175 0
7.200 17.600 1.600 0 175 0
7.200 17.600 2.400 0 175 0
7.200 18.000 1.200 0 175 0
7.200 18.000 1.600 0 175 0
7.200 18.000 2.400 0 175 0
7.200 18.800 0.400 0 175 0
7.200 19.200 0.400 0 175 0
7.200 19.600 0.400 0 175 0
7.200 20.000 0.400 0 175 0
7.200 20.400 0.400 0 175 0
7.200 20.800 0.400 0 175 0
7.200 29.600 0.400 0 175 0
7.200 30.000 0.400 0 175 0
7.200 30.400 0.400 0 175 0
7.200 31.200 1.200 0 175 0
7.200 31.200 1.600 0 175 0
7.200 31.200 2.400 0 175 0
7.200 31.600 0.400 0 175 0
7.200 31.600 1.600 0 175 0
7.200 32.000 0.400 0 175 0
7.200 32.000 1.600 0 175 0
7.200 32.800 2.000 0 175 0
7.200 32.800 2.400 0 175 0
7.200 33.200 2.000 0 175 0
7.200 33.200 2.400 0 175 0
7.200 34.800 2.400 0 175 0
7.200 38.000 0.400 0 175 0
7.200 38.400 2.000 0 175 0
7.200 38.400 2.400 0 175 0
7.200 39.200 2.000 0 175 0
7.200 39.600 0.400 0 175 0
7.200 39.600 0.800 0 175 0
7.200 39.600 1.200 0 175 0
7.200 39.600 1.600 0 175 0
7.200 40.000 0.400 0 175 0
7.200 40.000 0.800 0 175 0
7.200 40.000 1.200 0 175 0
7.200 40.400 0.800 0 175 0
7.200 40.400 1.200 0 175 0
7.200 40.400 1.600 0 175 0
7.200 40.800 0.800 0 175 0
7.200 42.400 1.200 0 175 0
7.200 42.400 1.600 0 175 0
7.600 16.000 0.800 0 175 0
7.600 16.000 1.200 0 175 0
7.600 16.000 1.600 0 175 0
7.600 16.000 2.400 0 175 0
7.600 16.400 0.400 0 175 0
7.600 16.400 0.800 0 175 0
7.600 16.400 1.600 0 175 0
7.600 16.800 0.400 0 175 0
7.600 16.800 1.600 0 175 0
7.600 17.200 0.400 0 175 0
7.600 17.200 2.000 0 175 0
7.600 17.200 2.400 0 175 0
7.600 17.600 0.400 0 175 0
7.600 17.600 1.200 0 175 0
7.600 17.600 1.600 0 175 0
7.600 17.600 2.000 0 175 0
7.600 17.600 2.400 0 175 0
7.600 18.000 2.000 0 175 0
7.600 18.000 2.400 0 175 0
7.600 18.800 0.400 0 175 0
7.600 19.200 0.400 0 175 0
7.600 19.600 0.400 0 175 0
7.600 20.000 0.400 0 175 0
7.600 20.400 0.400 0 175 0
7.600 20.800 0.400 0 175 0
7.600 29.600 0.400 0 175 0
7.600 30.000 0.400 0 175 0
7.600 30.400 0.400 0 175 0
7.600 31.600 0.400 0 175 0
7.600 31.600 1.600 0 175 0
7.600 32.400 2.400 0 175 0
7.600 32.800 0.800 0 175 0
7.600 32.800 1.200 0 175 0
7.600 32.800 1.600 0 175 0
7.600 32.800 2.000 0 175 0
7.600 33.200 0.800 0 175 0
7.600 33.200 1.200 0 175 0
7.600 33.600 1.200 0 175 0
7.600 33.600 2.000 0 175 0
7.600 34.000 2.000 0 175 0
7.600 34.000 2.400 0 175 0
7.600 36.000 0.400 0 175 0
7.600 36.400 0.400 0 175 0
7.600 36.800 0.400 0 175 0
7.600 37.600 0.400 0 175 0
7.600 38.800 2.400 0 175 0
7.600 39.200 1.200 0 175 0
7.600 39.200 1.600 0 175 0
7.600 39.600 0.400 0 175 0
7.600 39.600 1.600 0 175 0
7.600 40.000 1.600 0 175 0
8.000 15.200 2.000 0 175 0
8.000 15.600 0.400 0 175 0
8.000 16.000 0.400 0 175 0
8.000 16.000 0.800 0 175 0
8.000 16.400 0.800 0 175 0
8.000 16.800 0.400 0 175 0
8.000 16.800 0.800 0 175 0
8.000 16.800 2.000 0 175 0
8.000 17.200 1.600 0 175 0
8.000 17.600 1.200 0 175 0
8.000 17.600 2.000 0 175 0
8.000 17.600 2.400 0 175 0
8.000 18.000 0.400 0 175 0
8.000 18.000 1.600 0 175 0
8.000 18.000 2.000 0 175 0
8.000 18.000 2.400 0 175 0
8.000 19.600 0.400 0 175 0
8.000 20.000 0.400 0 175 0
8.000 20.800 0.400 0 175 0
8.000 29.200 0.400 0 175 0
8.000 29.600 0.400 0 175 0
8.000 30.000 0.400 0 175 0
8.000 30.800 0.400 0 175 0
8.000 32.000 0.400 0 175 0
8.000 32.000 2.400 0 175 0
8.000 32.400 2.000 0 175 0
8.000 32.400 2.400 0 175 0
8.000 33.200 1.200 0 175 0
8.000 34.000 0.800 0 175 0
8.000 34.000 1.200 0 175 0
8.000 34.000 2.400 0 175 0
8.000 34.800 2.000 0 175 0
8.000 34.800 2.400 0 175 0
8.000 35.600 0.400 0 175 0
8.000 37.200 0.400 0 175 0
8.000 38.400 0.400 0 175 0
8.000 39.200 1.600 0 175 0
8.000 39.600 1.600 0 175 0
8.000 39.600 2.000 0 175 0
8.400 15.600 0.400 0 175 0
8.400 15.600 0.800 0 175 0
8.400 16.000 0.800 0 175 0
8.400 16.400 0.400 0 175 0
8.400 17.200 0.400 0 175 0
8.400 17.600 0.400 0 175 0
8.400 17.600 1.200 0 175 0
8.400 18.000 1.200 0 175 0
8.400 18.000 1.600 0 175 0
8.400 18.000 2.000 0 175 0
8.400 18.000 2.400 0 175 0
8.400 18.400 0.400 0 175 0
8.400 20.000 0.400 0 175 0
8.400 20.400 0.400 0 175 0
8.400 20.800 0.400 0 175 0
8.400 29.200 0.400 0 175 0
8.400 29.600 0.400 0 175 0
8.400 30.400 0.400 0 175 0
8.400 32.000 2.400 0 175 0
8.400 32.400 2.400 0 175 0
8.400 34.000 1.600 0 175 0
8.400 34.000 2.000 0 175 0
8.400 34.400 1.600 0 175 0
8.400 36.800 0.400 0 175 0
8.400 38.000 0.400 0 175 0
8.400 39.200 0.400 0 175 0
8.400 39.600 2.000 0 175 0
8.400 40.000 1.600 0 175 0
8.400 40.400 0.400 0 175 0
8.400 41.600 0.400 0 175 0
8.800 16.400 0.800 0 175 0
8.800 16.800 0.800 0 175 0
8.800 17.200 0.400 0 175 0
8.800 17.200 1.200 0 175 0
8.800 17.600 0.400 0 175 0
8.800 17.600 1.200 0 175 0
8.800 17.600 2.400 0 175 0
8.800 18.000 0.400 0 175 0
8.800 18.000 2.000 0 175 0
8.800 18.400 0.400 0 175 0
8.800 18.800 0.400 0 175 0
8.800 20.400 0.400 0 175 0
8.800 20.800 0.400 0 175 0
8.800 22.400 0.800 0 175 0
8.800 29.200 0.400 0 175 0
8.800 29.600 0.400 0 175 0
8.800 30.000 0.400 0 175 0
8.800 31.600 0.400 0 175 0
8.800 32.400 0.400 0 175 0
8.800 32.400 2.400 0 175 0
8.800 33.600 2.000 0 175 0
8.800 34.400 2.400 0 175 0
8.800 34.800 2.000 0 175 0
8.800 36.000 0.400 0 175 0
8.800 37.600 0.400 0 175 0
8.800 40.000 0.400 0 175 0
8.800 41.200 0.400 0 175 0
8.800 42.400 0.400 0 175 0
9.200 16.400 0.800 0 175 0
9.200 16.800 0.400 0 175 0
9.200 17.600 1.200 0 175 0
9.200 17.600 1.600 0 175 0
9.200 17.600 2.000 0 175 0
9.200 18.000 0.400 0 175 0
9.200 18.000 1.200 0 175 0
9.200 18.000 1.600 0 175 0
9.200 18.400 0.400 0 175 0
9.200 18.800 0.400 0 175 0
9.200 19.200 0.400 0 175 0
9.200 19.600 0.400 0 175 0
9.200 22.000 0.400 0 175 0
9.200 22.000 1.200 0 175 0
9.200 23.200 0.800 0 175 0
9.200 23.200 1.200 0 175 0
9.200 29.200 0.400 0 175 0
9.200 29.600 0.400 0 175 0
9.200 31.200 0.400 0 175 0
9.200 32.000 0.400 0 175 0
9.200 32.400 0.400 0 175 0
9.200 34.800 0.400 0 175 0
9.200 37.200 0.400 0 175 0
9.200 38.800 0.400 0 175 0
9.200 40.000 0.400 0 175 0
9.200 41.200 0.400 0 175 0
9.200 42.000 0.400 0 175 0
9.600 8.800 2.800 0 175 0
9.600 16.400 0.400 0 175 0
9.600 17.200 1.600 0 175 0
9.600 17.200 2.000 0 175 0
9.600 17.200 2.400 0 175 0
9.600 17.600 0.400 0 175 0
9.600 17.600 1.200 0 175 0
9.600 17.600 1.600 0 175 0
9.600 17.600 2.400 0 175 0
9.600 18.000 0.400 0 175 0
9.600 18.000 2.400 0 175 0
9.600 18.400 2.000 0 175 0
9.600 18.400 2.400 0 175 0
9.600 18.800 0.400 0 175 0
9.600 19.200 0.400 0 175 0
9.600 20.000 0.400 0 175 0
9.600 20.800 0.400 0 175 0
9.600 22.000 1.600 0 175 0
9.600 22.400 1.600 0 175 0
9.600 22.800 1.600 0 175 0
9.600 23.200 0.400 0 175 0
9.600 23.200 1.200 0 175 0
9.600 28.800 0.400 0 175 0
9.600 29.600 0.400 0 175 0
9.600 30.000 0.400 0 175 0
9.600 31.200 0.400 0 175 0
9.600 31.600 0.400 0 175 0
9.600 32.000 0.400 0 175 0
9.600 32.000 2.400 0 175 0
9.600 32.400 2.000 0 175 0
9.600 32.400 2.400 0 175 0
9.600 33.200 0.400 0 175 0
9.600 33.200 1.200 0 175 0
9.600 33.200 2.000 0 175 0
9.600 33.600 2.400 0 175 0
9.600 34.000 0.400 0 175 0
9.600 36.400 0.400 0 175 0
9.600 38.400 0.400 0 175 0
9.600 39.600 0.400 0 175 0
9.600 39.600 1.200 0 175 0
9.600 39.600 1.600 0 175 0
9.600 40.000 1.200 0 175 0
9.600 40.000 2.000 0 175 0
9.600 41.600 1.600 0 175 0
9.600 41.600 2.000 0 175 0
9.600 43.200 0.400 0 175 0
10.000 9.200 2.800 0 175 0
10.000 15.600 0.400 0 175 0
10.000 16.000 0.400 0 175 0
10.000 16.800 0.400 0 175 0
10.000 17.200 0.400 0 175 0
10.000 17.200 2.000 0 175 0
10.000 17.200 2.400 0 175 0
10.000 17.600 2.000 0 175 0
10.000 17.600 2.400 0 175 0
10.000 18.000 2.000 0 175 0
10.000 18.400 0.400 0 175 0
10.000 19.200 0.400 0 175 0
10.000 19.600 0.400 0 175 0
10.000 20.400 0.400 0 175 0
10.000 22.000 1.600 0 175 0
10.000 23.200 1.200 0 175 0
10.000 28.800 0.400 0 175 0
10.000 29.600 0.400 0 175 0
10.000 30.000 0.400 0 175 0
10.000 30.400 0.400 0 175 0
10.000 30.800 0.400 0 175 0
10.000 31.200 0.400 0 175 0
10.000 31.600 0.400 0 175 0
10.000 32.400 0.400 0 175 0
10.000 32.400 2.000 0 175 0
10.000 32.800 1.200 0 175 0
10.000 32.800 1.600 0 175 0
10.000 32.800 2.000 0 175 0
10.000 32.800 2.400 0 175 0
10.000 33.200 1.600 0 175 0
10.000 33.200 2.000 0 175 0
10.000 33.200 2.400 0 175 0
10.000 33.600 0.400 0 175 0
10.000 34.400 0.400 0 175 0
10.000 37.600 0.400 0 175 0
10.000 38.000 0.400 0 175 0
10.000 39.200 0.400 0 175 0
10.000 39.200 1.200 0 175 0
10.000 39.200 1.600 0 175 0
10.000 39.600 0.800 0 175 0
10.000 39.600 1.200 0 175 0
10.000 39.600 1.600 0 175 0
10.000 39.600 2.000 0 175 0
10.000 40.000 0.800 0 175 0
10.000 40.000 1.200 0 175 0
10.000 40.000 2.000 0 175 0
10.000 41.200 0.800 0 175 0
10.000 41.200 1.200 0 175 0
10.000 41.200 1.600 0 175 0
10.000 41.200 2.000 0 175 0
10.000 41.600 0.800 0 175 0
10.000 41.600 2.000 0 175 0
10.000 41.600 2.400 0 175 0
10.400 15.600 0.400 0 175 0
10.400 16.400 0.400 0 175 0
10.400 16.800 0.400 0 175 0
10.400 16.800 0.800 0 175 0
10.400 16.800 2.400 0 175 0
10.400 17.600 2.400 0 175 0
10.400 18.000 0.400 0 175 0
10.400 18.400 0.400 0 175 0
10.400 18.800 0.400 0 175 0
10.400 19.200 0.400 0 175 0
10.400 19.600 0.400 0 175 0
10.400 20.000 0.400 0 175 0
10.400 20.400 0.400 0 175 0
10.400 22.000 1.600 0 175 0
10.400 22.800 1.600 0 175 0
10.400 23.200 1.200 0 175 0
10.400 28.400 0.400 0 175 0
10.400 29.600 0.400 0 175 0
10.400 30.000 0.400 0 175 0
10.400 30.400 0.400 0 175 0
10.400 32.000 0.400 0 175 0
10.400 32.000 2.400 0 175 0
10.400 32.800 0.400 0 175 0
10.400 33.200 0.400 0 175 0
10.400 33.200 2.000 0 175 0
10.400 34.400 0.400 0 175 0
10.400 36.000 0.400 0 175 0
10.400 37.200 0.400 0 175 0
10.400 38.800 0.400 0 175 0
10.400 39.200 1.200 0 175 0
10.400 39.200 1.600 0 175 0
10.400 39.600 0.800 0 175 0
10.400 39.600 2.000 0 175 0
10.400 40.000 2.000 0 175 0
10.400 40.400 0.400 0 175 0
10.400 41.200 2.000 0 175 0
10.400 41.200 2.400 0 175 0
10.400 41.600 1.200 0 175 0
10.800 16.000 0.400 0 175 0
10.800 16.800 1.200 0 175 0
10.800 17.600 0.400 0 175 0
10.800 18.000 0.400 0 175 0
10.800 18.800 0.400 0 175 0
10.800 19.600 0.400 0 175 0
10.800 20.000 0.400 0 175 0
10.800 20.400 0.400 0 175 0
10.800 22.000 1.200 0 175 0
10.800 23.200 1.200 0 175 0
10.800 29.200 0.400 0 175 0
10.800 29.600 0.400 0 175 0
10.800 30.400 0.400 0 175 0
10.800 30.800 0.400 0 175 0
10.800 31.200 0.400 0 175 0
10.800 32.000 0.400 0 175 0
10.800 32.400 0.400 0 175 0
10.800 33.600 0.400 0 175 0
10.800 33.600 0.800 0 175 0
10.800 33.600 1.200 0 175 0
10.800 33.600 2.000 0 175 0
10.800 34.000 0.400 0 175 0
10.800 34.000 0.800 0 175 0
10.800 34.000 1.200 0 175 0
10.800 34.000 1.600 0 175 0
10.800 34.400 0.400 0 175 0
10.800 34.400 0.800 0 175 0
10.800 34.400 1.600 0 175 0
10.800 34.400 2.000 0 175 0
10.800 34.800 0.400 0 175 0
10.800 34.800 0.800 0 175 0
10.800 38.400 0.400 0 175 0
10.800 38.800 0.400 0 175 0
10.800 40.000 0.400 0 175 0
11.200 15.600 0.400 0 175 0
11.200 16.400 0.400 0 175 0
11.200 16.800 0.400 0 175 0
11.200 17.200 0.400 0 175 0
11.200 17.600 0.400 0 175 0
11.200 18.400 0.400 0 175 0
11.200 19.200 0.400 0 175 0
11.200 19.600 0.400 0 175 0
11.200 20.000 0.400 0 175 0
11.200 20.400 0.400 0 175 0
11.200 20.800 0.400 0 175 0
11.200 23.200 0.800 0 175 0
11.200 23.200 1.200 0 175 0
11.200 28.400 0.400 0 175 0
11.200 29.200 0.400 0 175 0
11.200 29.600 0.400 0 175 0
11.200 30.800 0.400 0 175 0
11.200 31.200 0.400 0 175 0
11.200 31.600 0.400 0 175 0
11.200 32.400 0.400 0 175 0
11.200 32.800 0.400 0 175 0
11.200 33.200 0.400 0 175 0
11.200 37.600 0.400 0 175 0
11.200 37.600 0.800 0 175 0
11.200 37.600 1.600 0 175 0
11.200 38.000 0.400 0 175 0
11.200 38.000 0.800 0 175 0
11.200 38.000 1.200 0 175 0
11.200 38.000 1.600 0 175 0
11.200 38.400 0.400 0 175 0
11.200 38.400 0.800 0 175 0
11.200 38.400 1.200 0 175 0
11.200 38.400 1.600 0 175 0
11.200 38.800 0.400 0 175 0
11.200 38.800 0.800 0 175 0
11.200 38.800 1.200 0 175 0
11.200 38.800 2.000 0 175 0
11.200 38.800 2.400 0 175 0
11.200 39.200 0.400 0 175 0
11.200 39.200 2.000 0 175 0
11.200 40.000 0.400 0 175 0
11.200 40.800 0.400 0 175 0
11.600 15.200 0.800 0 175 0
11.600 16.000 0.400 0 175 0
11.600 18.000 0.400 0 175 0
11.600 18.400 0.400 0 175 0
11.600 18.800 0.400 0 175 0
11.600 19.200 0.400 0 175 0
11.600 19.600 0.400 0 175 0
11.600 20.400 0.400 0 175 0
11.600 20.800 0.400 0 175 0
11.600 23.200 0.400 0 175 0
11.600 23.200 0.800 0 175 0
11.600 23.200 1.200 0 175 0
11.600 28.400 0.400 0 175 0
11.600 28.800 0.400 0 175 0
11.600 29.200 0.400 0 175 0
11.600 29.600 0.400 0 175 0
11.600 31.200 0.400 0 175 0
11.600 31.600 0.400 0 175 0
11.600 32.000 0.400 0 175 0
11.600 41.200 2.400 0 175 0
11.600 41.600 2.400 0 175 0
11.600 41.600 2.800 0 175 0
11.600 42.000 2.400 0 175 0
11.600 42.000 2.800 0 175 0
11.600 42.400 2.400 0 175 0
11.600 42.400 2.800 0 175 0
12.000 15.200 0.800 0 175 0
12.000 15.600 0.400 0 175 0
12.000 15.600 1.200 0 175 0
12.000 16.000 2.000 0 175 0
12.000 16.400 0.400 0 175 0
12.000 16.400 2.000 0 175 0
12.000 16.800 0.400 0 175 0
12.000 17.200 0.400 0 175 0
12.000 17.600 0.400 0 175 0
12.000 18.800 0.400 0 175 0
12.000 19.600 0.400 0 175 0
12.000 20.000 0.400 0 175 0
12.000 20.400 0.400 0 175 0
12.000 23.200 1.200 0 175 0
12.000 28.000 0.400 0 175 0
12.000 28.400 0.400 0 175 0
12.000 32.400 0.400 0 175 0
12.000 33.200 0.800 0 175 0
12.000 33.200 1.200 0 175 0
12.000 33.200 2.400 0 175 0
12.400 15.600 0.800 0 175 0
12.400 15.600 1.200 0 175 0
12.400 15.600 1.600 0 175 0
12.400 16.000 0.400 0 175 0
12.400 16.000 1.600 0 175 0
12.400 16.000 2.400 0 175 0
12.400 16.400 2.000 0 175 0
12.400 17.200 2.400 0 175 0
12.400 17.600 0.400 0 175 0
12.400 18.000 0.400 0 175 0
12.400 19.200 0.400 0 175 0
12.400 20.400 0.400 0 175 0
12.400 23.200 0.400 0 175 0
12.400 23.200 0.800 0 175 0
12.400 28.000 0.400 0 175 0
12.400 28.800 0.400 0 175 0
12.400 29.200 0.400 0 175 0
12.400 29.600 0.400 0 175 0
12.400 31.200 0.400 0 175 0
12.400 31.600 0.400 0 175 0
12.400 33.200 0.400 0 175 0
12.400 33.200 0.800 0 175 0
12.400 33.200 1.200 0 175 0
12.400 33.200 1.600 0 175 0
12.400 33.200 2.000 0 175 0
12.400 33.200 2.400 0 175 0
12.800 15.200 0.400 0 175 0
12.800 15.600 0.800 0 175 0
12.800 16.400 2.400 0 175 0
12.800 17.200 0.400 0 175 0
12.800 18.400 0.400 0 175 0
12.800 19.600 0.400 0 175 0
12.800 20.000 0.400 0 175 0
12.800 23.200 0.400 0 175 0
12.800 23.200 0.800 0 175 0
12.800 28.000 0.400 0 175 0
12.800 28.400 0.400 0 175 0
12.800 29.200 0.400 0 175 0
12.800 32.000 0.400 0 175 0
12.800 32.400 0.400 0 175 0
12.800 33.200 0.400 0 175 0
12.800 33.200 0.800 0 175 0
12.800 33.200 1.200 0 175 0
12.800 33.200 1.600 0 175 0
12.800 33.200 2.000 0 175 0
12.800 33.200 2.400 0 175 0
13.200 15.200 0.400 0 175 0
13.200 15.600 0.400 0 175 0
13.200 15.600 1.200 0 175 0
13.200 16.000 0.400 0 175 0
13.200 16.000 1.200 0 175 0
13.200 16.000 1.600 0 175 0
13.200 16.800 2.400 0 175 0
13.200 17.600 0.400 0 175 0
13.200 18.800 0.400 0 175 0
13.200 28.400 0.400 0 175 0
13.200 28.800 0.400 0 175 0
13.200 29.200 0.400 0 175 0
13.200 33.200 0.400 0 175 0
13.200 33.200 0.800 0 175 0
13.200 33.200 1.200 0 175 0
13.200 33.200 1.600 0 175 0
13.200 33.200 2.000 0 175 0
13.200 33.200 2.400 0 175 0
13.600 14.800 0.800 0 175 0
13.600 14.800 1.600 0 175 0
13.600 15.200 1.200 0 175 0
13.600 16.000 0.800 0 175 0
13.600 16.000 1.200 0 175 0
13.600 16.000 2.400 0 175 0
13.600 17.200 2.400 0 175 0
13.600 18.000 0.400 0 175 0
13.600 18.400 0.400 0 175 0
13.600 19.200 0.400 0 175 0
13.600 20.000 0.400 0 175 0
13.600 27.600 0.400 0 175 0
13.600 28.000 0.400 0 175 0
13.600 29.200 0.400 0 175 0
13.600 33.200 0.400 0 175 0
13.600 33.200 0.800 0 175 0
13.600 33.200 1.200 0 175 0
13.600 33.200 1.600 0 175 0
13.600 33.200 2.000 0 175 0
14.000 14.800 0.800 0 175 0
14.000 14.800 1.200 0 175 0
14.000 15.200 0.400 0 175 0
14.000 15.200 0.800 0 175 0
14.000 15.600 1.600 0 175 0
14.000 15.600 2.400 0 175 0
14.000 16.000 1.600 0 175 0
14.000 16.800 0.400 0 175 0
14.000 19.600 0.400 0 175 0
14.000 28.400 0.400 0 175 0
14.000 29.200 0.400 0 175 0
14.000 33.200 0.800 0 175 0
14.000 33.200 1.200 0 175 0
14.000 33.200 1.600 0 175 0
14.000 33.200 2.000 0 175 0
14.400 14.800 0.800 0 175 0
14.400 15.200 0.400 0 175 0
14.400 15.200 2.000 0 175 0
14.400 15.600 0.800 0 175 0
14.400 15.600 1.200 0 175 0
14.400 15.600 2.400 0 175 0
14.400 15.600 2.800 0 175 0
14.400 16.000 0.800 0 175 0
14.400 16.000 1.200 0 175 0
14.400 16.000 2.000 0 175 0
14.400 16.000 2.400 0 175 0
14.400 17.600 0.400 0 175 0
14.400 18.000 0.400 0 175 0
14.400 18.800 0.400 0 175 0
14.400 19.200 0.400 0 175 0
14.400 27.200 0.400 0 175 0
14.400 27.600 0.400 0 175 0
14.400 28.800 0.400 0 175 0
14.400 29.200 0.400 0 175 0
14.400 33.200 0.400 0 175 0
14.400 33.200 0.800 0 175 0
14.400 33.200 1.600 0 175 0
14.400 33.600 2.400 0 175 0
14.800 15.200 2.000 0 175 0
14.800 15.600 1.600 0 175 0
14.800 15.600 2.400 0 175 0
14.800 16.000 0.400 0 175 0
14.800 16.400 0.400 0 175 0
14.800 16.400 2.400 0 175 0
14.800 18.400 0.400 0 175 0
14.800 19.600 0.400 0 175 0
14.800 27.600 0.400 0 175 0
14.800 28.000 0.400 0 175 0
14.800 32.800 0.400 0 175 0
14.800 33.200 0.800 0 175 0
14.800 33.200 1.600 0 175 0
14.800 33.200 2.000 0 175 0
14.800 33.200 2.400 0 175 0
14.800 33.600 2.400 0 175 0
15.200 14.800 1.600 0 175 0
15.200 15.200 1.600 0 175 0
15.200 15.600 0.800 0 175 0
15.200 15.600 1.200 0 175 0
15.200 16.000 2.000 0 175 0
15.200 16.400 2.400 0 175 0
15.200 17.200 0.400 0 175 0
15.200 18.800 0.400 0 175 0
15.200 26.000 0.800 0 175 0
15.200 26.400 0.800 0 175 0
15.200 26.400 1.200 0 175 0
15.200 26.800 0.800 0 175 0
15.200 26.800 1.200 0 175 0
15.200 27.200 0.400 0 175 0
15.200 27.200 0.800 0 175 0
15.200 27.200 1.200 0 175 0
15.200 27.600 0.800 0 175 0
15.200 28.800 0.400 0 175 0
15.600 14.800 2.000 0 175 0
15.600 15.200 0.800 0 175 0
15.600 15.200 1.200 0 175 0
15.600 15.600 1.600 0 175 0
15.600 15.600 2.000 0 175 0
15.600 16.000 2.000 0 175 0
15.600 17.600 0.400 0 175 0
15.600 19.200 0.400 0 175 0
15.600 26.000 0.400 0 175 0
15.600 26.000 0.800 0 175 0
15.600 26.000 1.200 0 175 0
15.600 26.400 1.200 0 175 0
15.600 26.400 1.600 0 175 0
15.600 26.800 1.600 0 175 0
15.600 27.600 0.400 0 175 0
15.600 28.000 0.400 0 175 0
15.600 29.200 0.400 0 175 0
15.600 30.800 0.400 0 175 0
15.600 31.200 1.200 0 175 0
15.600 31.600 1.200 0 175 0
15.600 32.400 0.800 0 175 0
15.600 32.800 0.400 0 175 0
16.000 15.200 1.200 0 175 0
16.000 15.200 1.600 0 175 0
16.000 15.200 2.000 0 175 0
16.000 15.600 1.200 0 175 0
16.000 16.000 2.000 0 175 0
16.000 16.400 2.000 0 175 0
16.000 18.000 0.400 0 175 0
16.000 18.400 0.400 0 175 0
16.000 26.000 0.800 0 175 0
16.000 26.000 1.200 0 175 0
16.000 26.800 1.600 0 175 0
16.000 27.200 0.400 0 175 0
16.000 27.200 1.600 0 175 0
16.000 28.400 0.400 0 175 0
16.000 30.400 0.400 0 175 0
16.000 32.400 0.400 0 175 0
16.400 15.200 0.800 0 175 0
16.400 15.600 1.200 0 175 0
16.400 16.000 2.400 0 175 0
16.400 16.400 1.200 0 175 0
16.400 16.400 2.000 0 175 0
16.400 16.400 2.400 0 175 0
16.400 16.800 0.400 0 175 0
16.400 18.800 0.400 0 175 0
16.400 26.000 0.800 0 175 0
16.400 26.000 1.600 0 175 0
16.400 28.000 0.400 0 175 0
16.400 29.600 0.400 0 175 0
16.400 30.000 0.400 0 175 0
16.400 31.600 0.400 0 175 0
16.400 32.800 0.800 0 175 0
16.800 15.600 0.800 0 175 0
16.800 15.600 1.200 0 175 0
16.800 15.600 1.600 0 175 0
16.800 15.600 2.400 0 175 0
16.800 16.000 1.600 0 175 0
16.800 16.000 2.400 0 175 0
16.800 16.400 2.000 0 175 0
16.800 17.200 2.400 0 175 0
16.800 17.200 2.800 0 175 0
16.800 17.600 2.800 0 175 0
16.800 18.800 0.400 0 175 0
16.800 24.000 0.400 0 175 0
16.800 24.400 0.400 0 175 0
16.800 26.000 1.200 0 175 0
16.800 26.000 1.600 0 175 0
16.800 27.200 0.400 0 175 0
16.800 28.800 0.400 0 175 0
16.800 29.200 0.400 0 175 0
16.800 31.200 0.400 0 175 0
16.800 32.800 0.800 0 175 0
16.800 32.800 1.200 0 175 0
16.800 32.800 1.600 0 175 0
16.800 32.800 2.000 0 175 0
16.800 32.800 2.400 0 175 0
16.800 32.800 2.800 0 175 0
17.200 15.200 1.600 0 175 0
17.200 16.000 2.000 0 175 0
17.200 16.400 2.400 0 175 0
17.200 18.000 0.400 0 175 0
17.200 25.200 0.400 0 175 0
17.200 26.000 1.600 0 175 0
17.200 28.400 0.400 0 175 0
17.200 30.400 0.400 0 175 0
17.200 32.800 0.800 0 175 0
17.200 32.800 1.200 0 175 0
17.200 32.800 1.600 0 175 0
17.200 32.800 2.000 0 175 0
17.200 32.800 2.400 0 175 0
17.200 32.800 2.800 0 175 0
17.200 50.800 2.400 0 175 0
17.200 50.800 3.200 0 175 0
17.600 16.000 2.000 0 175 0
17.600 16.400 2.800 0 175 0
17.600 18.400 0.400 0 175 0
17.600 29.600 0.400 0 175 0
17.600 31.600 0.400 0 175 0
18.000 16.000 2.000 0 175 0
18.000 16.800 0.400 0 175 0
18.000 17.200 0.400 0 175 0
18.000 18.400 0.400 0 175 0
18.000 22.800 0.400 0 175 0
18.000 23.200 0.400 0 175 0
18.000 23.600 0.400 0 175 0
18.000 24.400 0.400 0 175 0
18.000 28.800 0.400 0 175 0
18.000 30.800 0.400 0 175 0
18.400 15.600 1.600 0 175 0
18.400 16.000 1.600 0 175 0
18.400 16.000 2.000 0 175 0
18.400 16.400 1.600 0 175 0
18.400 17.600 0.400 0 175 0
18.400 28.000 0.400 0 175 0
18.400 29.200 0.400 0 175 0
18.400 29.200 0.800 0 175 0
18.400 29.600 0.400 0 175 0
18.400 30.000 0.400 0 175 0
18.400 30.400 0.400 0 175 0
18.400 33.200 0.800 0 175 0
18.400 33.200 1.200 0 175 0
18.400 33.200 1.600 0 175 0
18.800 16.000 1.600 0 175 0
18.800 28.800 0.400 0 175 0
18.800 28.800 0.800 0 175 0
18.800 29.200 0.800 0 175 0
18.800 30.400 0.800 0 175 0
18.800 30.800 0.800 0 175 0
18.800 31.200 0.800 0 175 0
18.800 32.800 1.200 0 175 0
18.800 32.800 2.800 0 175 0
19.200 14.800 1.200 0 175 0
19.200 15.200 0.400 0 175 0
19.200 22.000 0.400 0 175 0
19.200 22.800 0.400 0 175 0
19.200 23.200 0.400 0 175 0
19.200 23.600 0.400 0 175 0
19.200 24.000 0.400 0 175 0
19.200 24.400 0.400 0 175 0
19.200 28.400 0.400 0 175 0
19.200 28.800 0.800 0 175 0
19.200 30.800 0.800 0 175 0
19.200 32.800 1.600 0 175 0
19.200 32.800 2.800 0 175 0
20.000 28.800 0.800 0 175 0
20.000 32.800 2.800 0 175 0
20.400 22.000 0.400 0 175 0
20.400 22.400 0.400 0 175 0
20.400 22.800 0.400 0 175 0
20.400 23.200 0.400 0 175 0
20.400 24.400 0.400 0 175 0
20.400 24.800 0.400 0 175 0
20.400 28.400 0.400 0 175 0
20.800 25.600 0.400 0 175 0
20.800 29.200 0.800 0 175 0
20.800 29.600 0.800 0 175 0
20.800 32.400 0.800 0 175 0
21.200 28.800 0.800 0 175 0
21.200 30.000 1.200 0 175 0
21.200 30.400 1.200 0 175 0
21.200 32.400 0.800 0 175 0
21.200 32.400 1.200 0 175 0
21.200 32.400 1.600 0 175 0
21.200 32.400 2.000 0 175 0
21.200 32.400 2.800 0 175 0
21.600 23.200 0.400 0 175 0
21.600 23.600 0.400 0 175 0
21.600 30.000 0.800 0 175 0
21.600 30.000 1.200 0 175 0
21.600 30.400 0.800 0 175 0
21.600 30.400 1.200 0 175 0
21.600 31.200 0.800 0 175 0
21.600 31.200 1.200 0 175 0
21.600 31.600 1.200 0 175 0
21.600 32.400 1.200 0 175 0
21.600 32.400 1.600 0 175 0
21.600 32.400 2.000 0 175 0
22.000 21.600 0.400 0 175 0
22.000 24.800 0.400 0 175 0
22.000 25.200 0.400 0 175 0
22.000 30.000 1.200 0 175 0
22.000 31.200 1.200 0 175 0
22.000 32.400 0.800 0 175 0
22.000 32.400 1.200 0 175 0
22.000 32.400 1.600 0 175 0
22.000 32.400 2.000 0 175 0
22.400 32.400 0.800 0 175 0
22.400 32.400 1.200 0 175 0
22.400 32.400 1.600 0 175 0
22.400 32.400 2.000 0 175 0
22.400 32.400 2.400 0 175 0
22.400 32.400 2.800 0 175 0
22.800 14.400 2.000 0 175 0
22.800 31.600 1.200 0 175 0
22.800 32.400 1.200 0 175 0
22.800 32.400 1.600 0 175 0
22.800 32.400 2.000 0 175 0
22.800 32.400 2.400 0 175 0
22.800 32.400 2.800 0 175 0
23.200 13.200 1.200 0 175 0
23.200 13.600 0.800 0 175 0
23.200 14.000 2.000 0 175 0
23.200 14.400 2.000 0 175 0
23.200 14.400 2.400 0 175 0
23.200 14.800 0.800 0 175 0
23.200 14.800 1.200 0 175 0
23.200 32.400 1.200 0 175 0
23.200 32.400 1.600 0 175 0
23.200 32.400 2.000 0 175 0
23.600 12.800 1.200 0 175 0
23.600 13.200 1.600 0 175 0
23.600 14.000 1.600 0 175 0
23.600 14.000 2.400 0 175 0
23.600 14.400 1.200 0 175 0
23.600 14.800 1.200 0 175 0
23.600 14.800 2.000 0 175 0
23.600 15.200 1.600 0 175 0
23.600 21.600 0.400 0 175 0
23.600 22.000 0.400 0 175 0
23.600 22.400 0.400 0 175 0
23.600 24.000 0.400 0 175 0
23.600 24.400 0.400 0 175 0
23.600 32.400 1.200 0 175 0
23.600 32.400 1.600 0 175 0
24.000 14.000 0.800 0 175 0
24.000 14.400 1.600 0 175 0
24.000 14.400 2.400 0 175 0
24.000 14.800 1.600 0 175 0
24.000 15.200 1.600 0 175 0
24.000 25.200 0.400 0 175 0
24.000 25.600 0.400 0 175 0
24.400 12.400 0.800 0 175 0
24.400 13.600 2.400 0 175 0
24.400 14.000 2.800 0 175 0
24.400 14.400 0.800 0 175 0
24.400 14.400 1.600 0 175 0
24.400 14.400 2.400 0 175 0
24.400 30.400 0.800 0 175 0
24.800 12.800 0.800 0 175 0
24.800 12.800 1.200 0 175 0
24.800 13.600 2.800 0 175 0
24.800 14.000 2.800 0 175 0
24.800 14.400 0.800 0 175 0
24.800 14.400 2.000 0 175 0
24.800 14.400 2.400 0 175 0
24.800 22.800 0.400 0 175 0
24.800 23.200 0.400 0 175 0
24.800 23.600 0.400 0 175 0
24.800 29.600 1.200 0 175 0
25.200 14.400 0.800 0 175 0
25.200 14.400 1.200 0 175 0
25.200 14.400 2.800 0 175 0
25.200 20.800 0.400 0 175 0
25.200 21.200 0.400 0 175 0
25.200 25.200 0.400 0 175 0
25.200 32.000 1.200 0 175 0
25.600 14.000 0.800 0 175 0
25.600 14.400 2.800 0 175 0
25.600 14.800 1.200 0 175 0
25.600 15.200 2.400 0 175 0
26.400 14.800 1.600 0 175 0
26.800 13.200 3.200 0 175 0
26.800 14.000 2.400 0 175 0
26.800 14.000 2.800 0 175 0
26.800 14.400 2.800 0 175 0
27.600 21.200 0.400 0 175 0
27.600 21.600 0.400 0 175 0
27.600 24.400 0.400 0 175 0
27.600 24.800 0.400 0 175 0
28.000 20.400 0.400 0 175 0
28.000 25.600 0.400 0 175 0
28.400 32.800 1.200 0 175 0
28.400 32.800 1.600 0 175 0
28.400 32.800 2.000 0 175 0
28.800 32.400 2.000 0 175 0
28.800 32.400 3.200 0 175 0
29.200 32.400 2.000 0 175 0
29.600 13.200 0.400 0 175 0
29.600 13.600 0.400 0 175 0
29.600 21.600 0.400 0 175 0
29.600 22.000 0.400 0 175 0
29.600 22.400 0.400 0 175 0
29.600 23.200 0.400 0 175 0
29.600 23.600 0.400 0 175 0
29.600 24.000 0.400 0 175 0
29.600 28.800 1.200 0 175 0
29.600 28.800 1.600 0 175 0
29.600 29.200 0.800 0 175 0
29.600 29.200 1.600 0 175 0
30.000 19.600 0.400 0 175 0
30.000 20.800 0.400 0 175 0
30.000 24.400 0.400 0 175 0
30.400 13.600 2.400 0 175 0
30.400 19.600 0.400 0 175 0
30.400 20.400 0.400 0 175 0
30.400 25.200 0.400 0 175 0
30.400 25.600 0.400 0 175 0
30.800 12.800 0.800 0 175 0
30.800 12.800 2.800 0 175 0
30.800 13.200 0.800 0 175 0
30.800 13.600 1.200 0 175 0
30.800 13.600 2.400 0 175 0
30.800 14.000 2.000 0 175 0
31.200 12.800 2.400 0 175 0
31.200 13.200 1.200 0 175 0
31.200 13.200 2.400 0 175 0
31.200 13.600 1.200 0 175 0
31.200 13.600 2.000 0 175 0
31.200 14.000 0.800 0 175 0
31.200 19.200 0.400 0 175 0
31.200 32.000 1.600 0 175 0
31.200 32.000 2.400 0 175 0
31.200 32.000 3.200 0 175 0
31.600 14.000 2.000 0 175 0
31.600 14.400 1.600 0 175 0
31.600 32.000 1.600 0 175 0
31.600 32.000 2.400 0 175 0
32.000 12.400 3.200 0 175 0
32.000 22.400 0.400 0 175 0
32.000 22.800 0.400 0 175 0
32.000 32.000 1.600 0 175 0
32.000 32.000 2.000 0 175 0
32.000 32.000 2.400 0 175 0
32.400 11.600 0.800 0 175 0
32.400 14.000 2.000 0 175 0
32.400 21.600 0.400 0 175 0
32.400 23.200 0.400 0 175 0
32.400 32.000 1.600 0 175 0
32.400 32.000 2.400 0 175 0
32.400 32.000 3.200 0 175 0
32.800 11.600 1.200 0 175 0
32.800 20.400 0.400 0 175 0
32.800 20.800 0.400 0 175 0
32.800 24.000 0.400 0 175 0
32.800 32.000 2.000 0 175 0
32.800 32.000 2.800 0 175 0
32.800 32.000 3.200 0 175 0
33.200 14.400 0.800 0 175 0
33.200 14.800 0.800 0 175 0
33.200 15.200 0.800 0 175 0
33.200 19.600 0.400 0 175 0
33.200 20.000 0.400 0 175 0
33.200 24.400 0.400 0 175 0
33.200 32.000 2.000 0 175 0
33.200 32.000 2.800 0 175 0
33.200 32.000 3.200 0 175 0
33.600 12.000 3.200 0 175 0
33.600 16.000 0.800 0 175 0
33.600 24.800 0.400 0 175 0
33.600 32.000 2.000 0 175 0
33.600 32.000 2.800 0 175 0
34.000 12.800 3.200 0 175 0
34.000 13.600 0.800 0 175 0
34.000 16.400 0.800 0 175 0
34.000 16.800 0.800 0 175 0
34.000 29.600 1.200 0 175 0
34.000 30.000 1.200 0 175 0
34.000 30.800 1.200 0 175 0
34.400 13.200 3.200 0 175 0
34.400 18.000 0.800 0 175 0
34.800 11.600 3.200 0 175 0
34.800 13.200 2.400 0 175 0
34.800 18.400 0.800 0 175 0
35.200 13.600 2.000 0 175 0
35.200 13.600 2.400 0 175 0
35.200 13.600 3.200 0 175 0
35.200 14.000 2.400 0 175 0
35.600 14.000 2.000 0 175 0
35.600 14.000 2.400 0 175 0
35.600 14.000 3.200 0 175 0
35.600 14.400 2.400 0 175 0
35.600 19.200 0.400 0 175 0
35.600 21.200 0.400 0 175 0
36.000 13.600 2.000 0 175 0
36.000 14.400 2.000 0 175 0
36.000 14.400 2.400 0 175 0
36.000 20.400 0.400 0 175 0
36.000 23.600 0.400 0 175 0
36.000 25.600 0.400 0 175 0
36.400 13.200 1.200 0 175 0
36.400 14.000 1.200 0 175 0
36.400 14.000 1.600 0 175 0
36.400 14.800 2.000 0 175 0
36.400 20.000 0.400 0 175 0
36.400 24.000 0.400 0 175 0
36.800 24.400 0.400 0 175 0
37.200 14.800 2.400 0 175 0
37.200 16.000 0.800 0 175 0
37.200 31.200 1.600 0 175 0
37.600 30.800 1.600 0 175 0
37.600 31.600 1.600 0 175 0
38.000 28.800 1.600 0 175 0
38.400 12.800 1.200 0 175 0
38.400 13.600 1.600 0 175 0
38.400 14.000 1.600 0 175 0
38.400 28.400 1.600 0 175 0
38.400 28.400 2.000 0 175 0
38.400 28.800 2.000 0 175 0
38.400 29.200 1.600 0 175 0
38.400 31.200 2.800 0 175 0
38.400 31.200 3.200 0 175 0
38.800 13.200 0.800 0 175 0
38.800 14.400 0.800 0 175 0
38.800 14.800 0.800 0 175 0
38.800 15.200 0.800 0 175 0
38.800 16.000 0.800 0 175 0
38.800 16.400 0.800 0 175 0
38.800 29.200 2.000 0 175 0
38.800 29.600 2.000 0 175 0
39.200 12.800 0.800 0 175 0
39.600 16.800 0.800 0 175 0
39.600 26.800 1.200 0 175 0
39.600 28.000 1.200 0 175 0
39.600 28.000 1.600 0 175 0
39.600 31.200 2.000 0 175 0
40.000 27.200 1.200 0 175 0
40.400 13.200 3.200 0 175 0
40.400 13.600 3.600 0 175 0
40.400 17.600 0.800 0 175 0
40.400 26.800 1.200 0 175 0
40.800 27.600 1.200 0 175 0
41.200 14.000 3.200 0 175 0
42.000 16.000 3.600 0 175 0
42.000 17.600 0.800 0 175 0
42.400 15.600 2.800 0 175 0
42.400 16.000 2.800 0 175 0
42.800 13.600 2.000 0 175 0
42.800 15.600 3.200 0 175 0
42.800 15.600 3.600 0 175 0
42.800 16.000 2.800 0 175 0
43.200 25.600 0.800 0 175 0
43.200 30.800 3.200 0 175 0
43.200 30.800 3.600 0 175 0
43.200 31.200 3.600 0 175 0
43.200 31.600 3.600 0 175 0
43.200 32.000 2.000 0 175 0
43.600 13.600 2.000 0 175 0
43.600 14.000 2.800 0 175 0
43.600 14.000 3.200 0 175 0
43.600 16.400 3.200 0 175 0
43.600 25.200 0.800 0 175 0
43.600 26.400 1.200 0 175 0
43.600 30.400 3.200 0 175 0
44.000 14.000 2.000 0 175 0
44.400 12.400 0.800 0 175 0
44.400 12.400 1.200 0 175 0
44.400 28.000 2.000 0 175 0
44.400 28.400 2.000 0 175 0
45.200 16.800 3.600 0 175 0
45.600 12.800 0.800 0 175 0
45.600 13.200 0.800 0 175 0
45.600 14.000 0.800 0 175 0
45.600 14.000 3.200 0 175 0
45.600 16.800 3.600 0 175 0
45.600 30.400 3.200 0 175 0
46.000 16.400 2.800 0 175 0
46.000 16.800 3.200 0 175 0
46.000 17.200 2.800 0 175 0
46.000 17.600 2.800 0 175 0
46.400 14.400 0.800 0 175 0
46.400 16.400 2.800 0 175 0
46.800 14.800 0.800 0 175 0
46.800 30.400 3.200 0 175 0
47.200 15.200 0.800 0 175 0
47.200 15.600 0.800 0 175 0
47.600 16.000 0.800 0 175 0
48.000 16.400 0.800 0 175 0
48.400 16.400 0.800 0 175 0
