ply
format ascii 1.0
comment S2D2 voxel export
element vertex 1767
property float x
property float y
property float z
property uchar red
property uchar green
property uchar blue
end_header
0.000 10.400 0.400 0 175 0
0.000 12.800 0.800 0 175 0
0.000 13.200 2.000 0 175 0
0.000 13.200 2.400 0 175 0
0.000 13.600 0.800 0 175 0
0.000 13.600 1.200 0 175 0
0.000 13.600 1.600 0 175 0
0.000 13.600 2.000 0 175 0
0.000 21.200 0.800 0 175 0
0.000 21.200 1.200 0 175 0
0.000 21.600 1.600 0 175 0
0.000 22.400 1.200 0 175 0
0.000 22.400 1.600 0 175 0
0.000 31.200 0.400 0 175 0
0.000 31.600 0.400 0 175 0
0.000 32.000 0.400 0 175 0
0.000 32.400 0.400 0 175 0
0.000 32.800 0.400 0 175 0
0.000 33.200 0.400 0 175 0
0.000 33.600 0.400 0 175 0
0.000 34.400 0.400 0 175 0
0.000 34.800 0.400 0 175 0
0.000 35.200 0.400 0 175 0
0.000 35.600 0.400 0 175 0
0.000 36.400 0.400 0 175 0
0.000 37.200 0.400 0 175 0
0.000 38.000 0.400 0 175 0
0.000 38.400 0.400 0 175 0
0.000 44.400 0.000 0 175 0
0.000 45.200 0.000 0 175 0
0.400 12.400 2.400 0 175 0
0.400 12.800 1.600 0 175 0
0.400 12.800 2.400 0 175 0
0.400 13.200 0.400 0 175 0
0.400 13.200 1.600 0 175 0
0.400 13.200 2.000 0 175 0
0.400 13.200 2.400 0 175 0
0.400 13.600 0.400 0 175 0
0.400 13.600 0.800 0 175 0
0.400 13.600 1.200 0 175 0
0.400 13.600 1.600 0 175 0
0.400 21.200 0.800 0 175 0
0.400 21.600 1.600 0 175 0
0.400 22.400 0.800 0 175 0
0.400 22.800 0.800 0 175 0
0.400 31.200 0.400 0 175 0
0.400 31.600 0.400 0 175 0
0.400 32.000 0.400 0 175 0
0.400 32.400 0.400 0 175 0
0.400 32.800 0.400 0 175 0
0.400 33.200 0.400 0 175 0
0.400 33.600 0.400 0 175 0
0.400 34.000 0.400 0 175 0
0.400 34.800 0.400 0 175 0
0.400 35.200 0.400 0 175 0
0.400 35.600 0.400 0 175 0
0.400 37.200 0.400 0 175 0
0.400 38.000 0.400 0 175 0
0.400 38.800 0.400 0 175 0
0.400 44.000 0.000 0 175 0
0.400 44.800 0.000 0 175 0
0.800 12.400 0.400 0 175 0
0.800 12.400 2.400 0 175 0
0.800 12.800 0.400 0 175 0
0.800 12.800 2.000 0 175 0
0.800 12.800 2.400 0 175 0
0.800 13.200 0.400 0 175 0
0.800 13.200 0.800 0 175 0
0.800 13.200 1.200 0 175 0
0.800 13.200 1.600 0 175 0
0.800 22.000 1.200 0 175 0
0.800 22.400 0.800 0 175 0
0.800 22.400 1.200 0 175 0
0.800 22.800 1.200 0 175 0
0.800 30.800 0.400 0 175 0
0.800 31.200 0.400 0 175 0
0.800 31.600 0.400 0 175 0
0.800 32.000 0.400 0 175 0
0.800 32.400 0.400 0 175 0
0.800 33.200 0.400 0 175 0
0.800 33.600 0.400 0 175 0
0.800 34.000 0.400 0 175 0
0.800 34.400 0.400 0 175 0
0.800 34.800 0.400 0 175 0
0.800 35.600 0.400 0 175 0
0.800 37.200 0.400 0 175 0
0.800 37.600 0.400 0 175 0
0.800 38.000 0.400 0 175 0
0.800 39.600 0.400 0 175 0
0.800 44.000 0.000 0 175 0
0.800 44.800 0.000 0 175 0
1.200 12.400 0.800 0 175 0
1.200 12.400 2.400 0 175 0
1.200 12.800 0.400 0 175 0
1.200 12.800 0.800 0 175 0
1.200 12.800 1.600 0 175 0
1.200 12.800 2.000 0 175 0
1.200 13.200 1.200 0 175 0
1.200 13.600 0.400 0 175 0
1.200 14.000 0.400 0 175 0
1.200 14.400 0.400 0 175 0
1.200 21.600 1.200 0 175 0
1.200 22.000 1.200 0 175 0
1.200 22.400 0.400 0 175 0
1.200 30.400 0.400 0 175 0
1.200 30.800 0.400 0 175 0
1.200 31.200 0.400 0 175 0
1.200 31.600 0.400 0 175 0
1.200 32.000 0.400 0 175 0
1.200 32.400 0.400 0 175 0
1.200 32.800 0.400 0 175 0
1.200 33.200 0.400 0 175 0
1.200 33.600 0.400 0 175 0
1.200 34.000 0.400 0 175 0
1.200 34.800 0.400 0 175 0
1.200 35.200 0.400 0 175 0
1.200 36.000 0.400 0 175 0
1.200 37.200 0.400 0 175 0
1.200 37.600 0.400 0 175 0
1.200 38.000 0.400 0 175 0
1.200 38.800 0.400 0 175 0
1.200 44.000 0.000 0 175 0
1.600 9.200 0.400 0 175 0
1.600 11.600 0.400 0 175 0
1.600 12.000 2.000 0 175 0
1.600 12.400 0.400 0 175 0
1.600 12.400 0.800 0 175 0
1.600 12.400 1.200 0 175 0
1.600 12.400 1.600 0 175 0
1.600 12.400 2.000 0 175 0
1.600 12.400 2.400 0 175 0
1.600 12.800 0.400 0 175 0
1.600 12.800 0.800 0 175 0
1.600 12.800 1.600 0 175 0
1.600 13.600 0.400 0 175 0
1.600 14.000 0.400 0 175 0
1.600 16.800 0.400 0 175 0
1.600 17.200 0.400 0 175 0
1.600 22.400 0.400 0 175 0
1.600 30.400 0.400 0 175 0
1.600 30.800 0.400 0 175 0
1.600 31.200 0.400 0 175 0
1.600 31.600 0.400 0 175 0
1.600 32.000 0.400 0 175 0
1.600 32.400 0.400 0 175 0
1.600 32.800 0.400 0 175 0
1.600 33.200 0.400 0 175 0
1.600 34.000 0.400 0 175 0
1.600 34.400 0.400 0 175 0
1.600 34.800 0.400 0 175 0
1.600 35.200 0.400 0 175 0
1.600 36.000 0.400 0 175 0
1.600 37.600 0.400 0 175 0
1.600 38.000 0.400 0 175 0
1.600 38.800 0.400 0 175 0
1.600 44.000 0.000 0 175 0
2.000 11.200 0.400 0 175 0
2.000 11.600 1.200 0 175 0
2.000 11.600 1.600 0 175 0
2.000 11.600 2.400 0 175 0
2.000 12.000 0.400 0 175 0
2.000 12.000 0.800 0 175 0
2.000 12.000 1.200 0 175 0
2.000 12.000 1.600 0 175 0
2.000 12.000 2.000 0 175 0
2.000 12.000 2.400 0 175 0
2.000 12.400 2.000 0 175 0
2.000 12.800 0.400 0 175 0
2.000 14.400 0.400 0 175 0
2.000 14.800 0.400 0 175 0
2.000 15.600 0.400 0 175 0
2.000 16.400 0.400 0 175 0
2.000 16.800 0.400 0 175 0
2.000 17.200 0.400 0 175 0
2.000 17.600 0.400 0 175 0
2.000 18.400 0.400 0 175 0
2.000 22.400 0.400 0 175 0
2.000 22.400 0.800 0 175 0
2.000 30.000 0.400 0 175 0
2.000 30.400 0.400 0 175 0
2.000 30.800 0.400 0 175 0
2.000 31.200 0.400 0 175 0
2.000 31.600 0.400 0 175 0
2.000 32.000 0.400 0 175 0
2.000 32.800 0.400 0 175 0
2.000 33.200 0.400 0 175 0
2.000 34.000 0.400 0 175 0
2.000 35.200 0.400 0 175 0
2.000 36.000 0.400 0 175 0
2.000 44.400 0.000 0 175 0
2.000 45.200 0.000 0 175 0
2.400 8.400 0.400 0 175 0
2.400 10.000 0.400 0 175 0
2.400 10.800 0.400 0 175 0
2.400 11.200 0.400 0 175 0
2.400 11.600 2.000 0 175 0
2.400 13.200 0.400 0 175 0
2.400 14.400 0.400 0 175 0
2.400 14.800 0.400 0 175 0
2.400 16.400 0.400 0 175 0
2.400 16.800 0.400 0 175 0
2.400 18.400 0.400 0 175 0
2.400 30.000 0.400 0 175 0
2.400 30.400 0.400 0 175 0
2.400 30.800 0.400 0 175 0
2.400 31.200 0.400 0 175 0
2.400 31.600 0.400 0 175 0
2.400 32.000 0.400 0 175 0
2.400 32.400 0.400 0 175 0
2.400 32.800 0.400 0 175 0
2.400 33.600 0.400 0 175 0
2.400 34.000 0.400 0 175 0
2.400 34.400 0.400 0 175 0
2.400 35.200 0.400 0 175 0
2.400 35.600 0.400 0 175 0
2.400 36.800 0.400 0 175 0
2.400 37.600 0.400 0 175 0
2.400 44.800 0.000 0 175 0
2.800 6.000 2.800 0 175 0
2.800 7.600 0.400 0 175 0
2.800 8.400 0.400 0 175 0
2.800 10.000 0.400 0 175 0
2.800 10.800 0.400 0 175 0
2.800 11.600 0.400 0 175 0
2.800 12.400 0.400 0 175 0
2.800 13.200 0.400 0 175 0
2.800 14.000 0.400 0 175 0
2.800 14.400 0.400 0 175 0
2.800 16.000 0.400 0 175 0
2.800 16.400 0.400 0 175 0
2.800 17.200 0.400 0 175 0
2.800 17.600 0.400 0 175 0
2.800 18.000 0.400 0 175 0
2.800 18.400 0.400 0 175 0
2.800 18.800 0.400 0 175 0
2.800 30.000 0.400 0 175 0
2.800 30.400 0.400 0 175 0
2.800 30.800 0.400 0 175 0
2.800 31.200 0.400 0 175 0
2.800 31.600 0.400 0 175 0
2.800 32.000 0.400 0 175 0
2.800 32.400 0.400 0 175 0
2.800 32.800 0.400 0 175 0
2.800 33.600 0.400 0 175 0
2.800 34.800 0.400 0 175 0
2.800 35.600 0.400 0 175 0
2.800 36.800 0.400 0 175 0
2.800 44.800 0.000 0 175 0
2.800 46.000 0.000 0 175 0
3.200 5.200 0.800 0 175 0
3.200 5.600 0.800 0 175 0
3.200 5.600 2.400 0 175 0
3.200 7.600 0.400 0 175 0
3.200 10.000 0.400 0 175 0
3.200 11.600 0.400 0 175 0
3.200 12.400 0.400 0 175 0
3.200 13.600 0.400 0 175 0
3.200 14.400 0.400 0 175 0
3.200 14.800 0.400 0 175 0
3.200 15.200 0.400 0 175 0
3.200 16.000 0.400 0 175 0
3.200 16.800 0.400 0 175 0
3.200 18.000 0.400 0 175 0
3.200 18.800 0.400 0 175 0
3.200 19.200 0.400 0 175 0
3.200 19.600 0.400 0 175 0
3.200 20.000 0.400 0 175 0
3.200 20.400 0.400 0 175 0
3.200 30.000 0.400 0 175 0
3.200 30.400 0.400 0 175 0
3.200 30.800 0.400 0 175 0
3.200 31.600 0.400 0 175 0
3.200 32.000 0.400 0 175 0
3.200 32.400 0.400 0 175 0
3.200 33.200 0.400 0 175 0
3.200 33.600 0.400 0 175 0
3.200 34.000 0.400 0 175 0
3.200 35.200 0.400 0 175 0
3.200 36.400 0.400 0 175 0
3.200 36.800 0.400 0 175 0
3.200 37.600 0.400 0 175 0
3.200 42.800 0.000 0 175 0
3.200 46.000 0.000 0 175 0
3.600 5.200 0.800 0 175 0
3.600 5.200 1.200 0 175 0
3.600 5.200 1.600 0 175 0
3.600 5.600 1.200 0 175 0
3.600 5.600 2.400 0 175 0
3.600 6.800 0.400 0 175 0
3.600 7.600 0.400 0 175 0
3.600 9.600 0.400 0 175 0
3.600 10.400 0.400 0 175 0
3.600 11.200 0.400 0 175 0
3.600 12.000 0.400 0 175 0
3.600 12.800 0.400 0 175 0
3.600 14.800 0.400 0 175 0
3.600 15.200 0.400 0 175 0
3.600 16.400 0.400 0 175 0
3.600 18.400 0.400 0 175 0
3.600 18.800 0.400 0 175 0
3.600 19.200 0.400 0 175 0
3.600 19.600 0.400 0 175 0
3.600 20.000 0.400 0 175 0
3.600 20.400 0.400 0 175 0
3.600 20.800 0.400 0 175 0
3.600 30.000 0.400 0 175 0
3.600 30.400 0.400 0 175 0
3.600 30.800 0.400 0 175 0
3.600 31.200 0.400 0 175 0
3.600 32.000 0.400 0 175 0
3.600 32.400 0.400 0 175 0
3.600 32.800 0.400 0 175 0
3.600 33.600 0.400 0 175 0
3.600 34.000 0.400 0 175 0
3.600 34.400 0.400 0 175 0
3.600 34.800 0.400 0 175 0
3.600 35.200 0.400 0 175 0
3.600 36.400 0.400 0 175 0
3.600 44.400 0.000 0 175 0
3.600 46.000 0.000 0 175 0
3.600 47.200 0.000 0 175 0
3.600 47.200 0.800 0 175 0
4.000 3.200 2.800 0 175 0
4.000 4.800 1.200 0 175 0
4.000 5.200 0.800 0 175 0
4.000 5.200 1.600 0 175 0
4.000 5.200 2.000 0 175 0
4.000 5.200 2.400 0 175 0
4.000 5.200 2.800 0 175 0
4.000 5.600 0.400 0 175 0
4.000 5.600 1.200 0 175 0
4.000 6.800 0.400 0 175 0
4.000 8.000 0.400 0 175 0
4.000 8.800 0.400 0 175 0
4.000 9.600 0.400 0 175 0
4.000 10.400 0.400 0 175 0
4.000 11.200 0.400 0 175 0
4.000 12.400 0.400 0 175 0
4.000 13.200 0.400 0 175 0
4.000 14.000 0.400 0 175 0
4.000 14.800 0.400 0 175 0
4.000 15.600 0.400 0 175 0
4.000 18.800 0.400 0 175 0
4.000 19.200 0.400 0 175 0
4.000 19.600 0.400 0 175 0
4.000 20.000 0.400 0 175 0
4.000 20.400 0.400 0 175 0
4.000 20.800 0.400 0 175 0
4.000 30.400 0.400 0 175 0
4.000 31.200 0.400 0 175 0
4.000 31.600 0.400 0 175 0
4.000 32.000 0.400 0 175 0
4.000 32.800 0.400 0 175 0
4.000 33.600 0.400 0 175 0
4.000 34.000 0.400 0 175 0
4.000 34.800 0.400 0 175 0
4.000 36.400 0.400 0 175 0
4.000 36.800 0.400 0 175 0
4.000 42.400 0.000 0 175 0
4.000 44.000 0.000 0 175 0
4.000 45.600 0.000 0 175 0
4.400 4.800 0.800 0 175 0
4.400 4.800 1.600 0 175 0
4.400 5.200 2.400 0 175 0
4.400 5.200 2.800 0 175 0
4.400 5.600 0.400 0 175 0
4.400 6.800 0.400 0 175 0
4.400 7.200 1.600 0 175 0
4.400 7.200 2.000 0 175 0
4.400 7.600 1.200 0 175 0
4.400 7.600 1.600 0 175 0
4.400 7.600 2.400 0 175 0
4.400 8.000 1.600 0 175 0
4.400 8.000 2.000 0 175 0
4.400 8.800 0.400 0 175 0
4.400 10.800 0.400 0 175 0
4.400 11.600 0.400 0 175 0
4.400 12.400 0.400 0 175 0
4.400 14.400 0.400 0 175 0
4.400 14.800 0.400 0 175 0
4.400 15.200 0.400 0 175 0
4.400 15.600 0.400 0 175 0
4.400 19.200 0.400 0 175 0
4.400 19.600 0.400 0 175 0
4.400 20.000 0.400 0 175 0
4.400 20.400 0.400 0 175 0
4.400 30.400 0.400 0 175 0
4.400 30.800 0.400 0 175 0
4.400 31.200 0.400 0 175 0
4.400 31.600 0.400 0 175 0
4.400 32.000 0.400 0 175 0
4.400 32.400 0.400 0 175 0
4.400 32.800 0.400 0 175 0
4.400 33.200 0.400 0 175 0
4.400 34.000 0.400 0 175 0
4.400 34.800 0.400 0 175 0
4.400 36.000 0.400 0 175 0
4.400 36.800 0.400 0 175 0
4.400 37.200 0.400 0 175 0
4.400 44.800 0.800 0 175 0
4.400 45.600 0.000 0 175 0
4.800 4.800 1.600 0 175 0
4.800 4.800 2.000 0 175 0
4.800 4.800 2.400 0 175 0
4.800 4.800 2.800 0 175 0
4.800 5.600 0.400 0 175 0
4.800 7.200 1.200 0 175 0
4.800 7.600 0.400 0 175 0
4.800 7.600 0.800 0 175 0
4.800 7.600 1.600 0 175 0
4.800 7.600 2.400 0 175 0
4.800 8.000 0.800 0 175 0
4.800 8.000 1.200 0 175 0
4.800 8.000 1.600 0 175 0
4.800 8.000 2.000 0 175 0
4.800 8.000 2.400 0 175 0
4.800 8.400 1.600 0 175 0
4.800 8.400 2.000 0 175 0
4.800 8.800 0.400 0 175 0
4.800 10.000 0.400 0 175 0
4.800 11.200 0.400 0 175 0
4.800 12.000 0.400 0 175 0
4.800 13.200 0.400 0 175 0
4.800 15.200 0.400 0 175 0
4.800 16.000 0.400 0 175 0
4.800 18.800 0.400 0 175 0
4.800 19.200 0.400 0 175 0
4.800 19.600 0.400 0 175 0
4.800 20.000 0.400 0 175 0
4.800 30.000 0.400 0 175 0
4.800 30.400 0.400 0 175 0
4.800 30.800 0.400 0 175 0
4.800 31.200 0.400 0 175 0
4.800 31.600 0.400 0 175 0
4.800 32.000 0.400 0 175 0
4.800 32.400 0.400 0 175 0
4.800 32.800 0.400 0 175 0
4.800 33.200 0.400 0 175 0
4.800 33.600 0.400 0 175 0
4.800 34.400 0.400 0 175 0
4.800 35.600 0.400 0 175 0
4.800 36.000 0.400 0 175 0
4.800 36.400 0.400 0 175 0
4.800 36.800 0.400 0 175 0
4.800 37.200 0.400 0 175 0
4.800 42.000 0.000 0 175 0
4.800 43.600 0.000 0 175 0
4.800 45.200 0.000 0 175 0
4.800 46.000 0.000 0 175 0
4.800 46.400 0.000 0 175 0
5.200 4.400 0.800 0 175 0
5.200 4.800 2.800 0 175 0
5.200 6.400 0.400 0 175 0
5.200 6.800 0.400 0 175 0
5.200 7.600 0.400 0 175 0
5.200 7.600 0.800 0 175 0
5.200 7.600 2.000 0 175 0
5.200 8.000 0.800 0 175 0
5.200 8.000 1.200 0 175 0
5.200 8.000 2.400 0 175 0
5.200 8.400 0.800 0 175 0
5.200 8.400 1.600 0 175 0
5.200 8.400 2.000 0 175 0
5.200 8.400 2.400 0 175 0
5.200 11.200 0.400 0 175 0
5.200 15.200 0.400 0 175 0
5.200 15.600 0.400 0 175 0
5.200 18.800 0.400 0 175 0
5.200 19.600 0.400 0 175 0
5.200 20.000 0.400 0 175 0
5.200 20.400 0.400 0 175 0
5.200 30.000 0.400 0 175 0
5.200 30.400 0.400 0 175 0
5.200 30.800 0.400 0 175 0
5.200 31.200 0.400 0 175 0
5.200 31.600 0.400 0 175 0
5.200 32.000 0.400 0 175 0
5.200 32.400 0.400 0 175 0
5.200 33.200 0.400 0 175 0
5.200 33.600 0.400 0 175 0
5.200 34.400 0.400 0 175 0
5.200 35.600 0.400 0 175 0
5.200 36.000 0.400 0 175 0
5.200 36.800 0.400 0 175 0
5.200 37.600 0.400 0 175 0
5.200 38.400 0.400 0 175 0
5.200 44.400 0.000 0 175 0
5.200 44.400 0.400 0 175 0
5.200 44.400 0.800 0 175 0
5.200 44.800 0.000 0 175 0
5.200 47.200 0.000 0 175 0
5.600 4.400 2.800 0 175 0
5.600 5.200 0.400 0 175 0
5.600 8.000 0.800 0 175 0
5.600 8.000 1.600 0 175 0
5.600 8.000 2.400 0 175 0
5.600 8.000 2.800 0 175 0
5.600 8.400 0.800 0 175 0
5.600 8.400 1.200 0 175 0
5.600 8.400 1.600 0 175 0
5.600 8.400 2.000 0 175 0
5.600 9.200 0.400 0 175 0
5.600 10.400 0.400 0 175 0
5.600 11.600 0.400 0 175 0
5.600 12.800 0.400 0 175 0
5.600 18.800 0.400 0 175 0
5.600 19.200 0.400 0 175 0
5.600 20.000 0.400 0 175 0
5.600 20.400 0.400 0 175 0
5.600 20.800 0.400 0 175 0
5.600 30.000 0.400 0 175 0
5.600 30.400 0.400 0 175 0
5.600 30.800 0.400 0 175 0
5.600 31.200 0.400 0 175 0
5.600 31.600 0.400 0 175 0
5.600 32.000 0.400 0 175 0
5.600 32.400 0.400 0 175 0
5.600 32.800 0.400 0 175 0
5.600 33.200 0.400 0 175 0
5.600 34.000 0.400 0 175 0
5.600 35.200 0.400 0 175 0
5.600 36.000 0.400 0 175 0
5.600 36.400 0.400 0 175 0
5.600 36.800 0.400 0 175 0
5.600 37.200 0.400 0 175 0
5.600 44.800 0.000 0 175 0
6.000 7.200 0.400 0 175 0
6.000 7.200 2.400 0 175 0
6.000 7.200 2.800 0 175 0
6.000 7.600 2.400 0 175 0
6.000 8.000 0.800 0 175 0
6.000 8.000 1.600 0 175 0
6.000 8.000 2.000 0 175 0
6.000 8.000 2.800 0 175 0
6.000 8.400 0.400 0 175 0
6.000 8.800 2.400 0 175 0
6.000 8.800 2.800 0 175 0
6.000 9.200 0.400 0 175 0
6.000 10.800 0.400 0 175 0
6.000 12.000 0.400 0 175 0
6.000 18.800 0.400 0 175 0
6.000 19.200 0.400 0 175 0
6.000 19.600 0.400 0 175 0
6.000 20.000 0.400 0 175 0
6.000 20.400 0.400 0 175 0
6.000 20.800 0.400 0 175 0
6.000 30.000 0.400 0 175 0
6.000 30.400 0.400 0 175 0
6.000 30.800 0.400 0 175 0
6.000 31.200 0.400 0 175 0
6.000 31.600 0.400 0 175 0
6.000 32.000 0.400 0 175 0
6.000 32.400 0.400 0 175 0
6.000 32.800 0.400 0 175 0
6.000 33.600 0.400 0 175 0
6.000 34.800 0.400 0 175 0
6.000 35.600 0.400 0 175 0
6.000 36.000 0.400 0 175 0
6.000 37.200 0.400 0 175 0
6.000 38.000 0.400 0 175 0
6.000 38.400 0.400 0 175 0
6.000 39.200 0.400 0 175 0
6.000 42.800 0.000 0 175 0
6.000 44.400 0.000 0 175 0
6.000 46.800 0.000 0 175 0
6.400 6.400 1.200 0 175 0
6.400 7.200 0.800 0 175 0
6.400 7.200 2.800 0 175 0
6.400 7.600 0.400 0 175 0
6.400 7.600 2.400 0 175 0
6.400 8.400 2.800 0 175 0
6.400 8.800 1.600 0 175 0
6.400 8.800 2.400 0 175 0
6.400 9.200 2.800 0 175 0
6.400 9.600 0.400 0 175 0
6.400 10.000 0.400 0 175 0
6.400 11.200 0.400 0 175 0
6.400 12.400 0.400 0 175 0
6.400 18.800 0.400 0 175 0
6.400 19.200 0.400 0 175 0
6.400 19.600 0.400 0 175 0
6.400 20.000 0.400 0 175 0
6.400 20.400 0.400 0 175 0
6.400 20.800 0.400 0 175 0
6.400 30.000 0.400 0 175 0
6.400 30.400 0.400 0 175 0
6.400 30.800 0.400 0 175 0
6.400 31.200 0.400 0 175 0
6.400 32.000 0.400 0 175 0
6.400 32.400 0.400 0 175 0
6.400 33.200 0.400 0 175 0
6.400 34.400 0.400 0 175 0
6.400 34.800 0.400 0 175 0
6.400 35.200 0.400 0 175 0
6.400 36.000 0.400 0 175 0
6.400 36.800 0.400 0 175 0
6.400 38.400 0.400 0 175 0
6.400 42.400 0.000 0 175 0
6.400 44.400 0.000 0 175 0
6.800 6.800 1.200 0 175 0
6.800 6.800 1.600 0 175 0
6.800 7.200 1.200 0 175 0
6.800 7.200 2.000 0 175 0
6.800 7.600 1.200 0 175 0
6.800 8.000 0.800 0 175 0
6.800 8.800 0.400 0 175 0
6.800 8.800 2.400 0 175 0
6.800 9.200 0.800 0 175 0
6.800 9.200 2.800 0 175 0
6.800 9.600 0.800 0 175 0
6.800 9.600 1.200 0 175 0
6.800 10.000 0.400 0 175 0
6.800 10.000 2.800 0 175 0
6.800 19.200 0.400 0 175 0
6.800 19.600 0.400 0 175 0
6.800 20.000 0.400 0 175 0
6.800 20.400 0.400 0 175 0
6.800 20.800 0.400 0 175 0
6.800 30.000 0.400 0 175 0
6.800 30.400 0.400 0 175 0
6.800 30.800 0.400 0 175 0
6.800 31.200 0.400 0 175 0
6.800 31.600 0.400 0 175 0
6.800 32.000 0.400 0 175 0
6.800 32.800 0.400 0 175 0
6.800 34.000 0.400 0 175 0
6.800 34.800 0.400 0 175 0
6.800 35.200 0.400 0 175 0
6.800 35.600 0.400 0 175 0
6.800 36.400 0.400 0 175 0
6.800 37.600 0.400 0 175 0
6.800 38.000 0.400 0 175 0
6.800 38.400 0.400 0 175 0
6.800 44.000 0.000 0 175 0
6.800 46.400 0.000 0 175 0
6.800 48.400 0.000 0 175 0
7.200 4.400 2.400 0 175 0
7.200 6.400 0.400 0 175 0
7.200 6.400 0.800 0 175 0
7.200 6.800 2.000 0 175 0
7.200 7.200 2.000 0 175 0
7.200 7.200 2.400 0 175 0
7.200 7.600 1.600 0 175 0
7.200 8.800 0.400 0 175 0
7.200 9.200 0.800 0 175 0
7.200 9.200 1.600 0 175 0
7.200 9.600 1.200 0 175 0
7.200 9.600 2.000 0 175 0
7.200 10.000 2.800 0 175 0
7.200 10.400 0.400 0 175 0
7.200 10.400 1.200 0 175 0
7.200 11.600 0.400 0 175 0
7.200 18.800 0.400 0 175 0
7.200 19.600 0.400 0 175 0
7.200 20.000 0.400 0 175 0
7.200 20.400 0.400 0 175 0
7.200 20.800 0.400 0 175 0
7.200 29.200 0.400 0 175 0
7.200 29.600 0.400 0 175 0
7.200 30.000 0.400 0 175 0
7.200 30.400 0.400 0 175 0
7.200 30.800 0.400 0 175 0
7.200 31.600 0.400 0 175 0
7.200 32.000 0.400 0 175 0
7.200 32.400 0.400 0 175 0
7.200 32.400 2.400 0 175 0
7.200 32.800 1.600 0 175 0
7.200 32.800 2.400 0 175 0
7.200 33.200 1.600 0 175 0
7.200 33.600 0.400 0 175 0
7.200 34.000 2.400 0 175 0
7.200 34.400 0.400 0 175 0
7.200 34.800 2.400 0 175 0
7.200 35.200 0.400 0 175 0
7.200 36.000 0.400 0 175 0
7.200 36.400 0.400 0 175 0
7.200 37.200 0.400 0 175 0
7.200 37.600 0.400 0 175 0
7.200 38.000 0.400 0 175 0
7.200 43.200 0.000 0 175 0
7.200 43.600 0.000 0 175 0
7.200 46.000 0.000 0 175 0
7.200 48.400 0.000 0 175 0
7.600 4.400 0.800 0 175 0
7.600 6.400 2.000 0 175 0
7.600 6.800 1.600 0 175 0
7.600 6.800 2.400 0 175 0
7.600 8.400 2.400 0 175 0
7.600 10.000 2.000 0 175 0
7.600 10.400 0.400 0 175 0
7.600 10.400 0.800 0 175 0
7.600 10.400 1.200 0 175 0
7.600 10.400 1.600 0 175 0
7.600 10.800 0.800 0 175 0
7.600 10.800 1.200 0 175 0
7.600 10.800 2.400 0 175 0
7.600 14.800 0.800 0 175 0
7.600 14.800 1.200 0 175 0
7.600 14.800 1.600 0 175 0
7.600 14.800 2.000 0 175 0
7.600 14.800 2.400 0 175 0
7.600 19.200 0.400 0 175 0
7.600 20.400 0.400 0 175 0
7.600 20.800 0.400 0 175 0
7.600 28.400 0.400 0 175 0
7.600 28.800 0.400 0 175 0
7.600 29.600 0.400 0 175 0
7.600 30.000 0.400 0 175 0
7.600 30.400 0.400 0 175 0
7.600 31.200 0.400 0 175 0
7.600 32.000 0.400 0 175 0
7.600 32.000 2.400 0 175 0
7.600 32.400 0.400 0 175 0
7.600 32.400 0.800 0 175 0
7.600 32.400 1.200 0 175 0
7.600 32.400 1.600 0 175 0
7.600 32.400 2.000 0 175 0
7.600 32.400 2.400 0 175 0
7.600 32.800 0.800 0 175 0
7.600 32.800 1.600 0 175 0
7.600 32.800 2.000 0 175 0
7.600 33.200 0.400 0 175 0
7.600 33.600 2.400 0 175 0
7.600 34.000 0.400 0 175 0
7.600 34.000 2.400 0 175 0
7.600 34.400 0.400 0 175 0
7.600 35.600 0.400 0 175 0
7.600 36.400 0.400 0 175 0
7.600 36.800 0.400 0 175 0
7.600 37.200 0.400 0 175 0
7.600 38.000 0.400 0 175 0
7.600 48.000 0.000 0 175 0
8.000 1.600 2.800 0 175 0
8.000 6.000 2.400 0 175 0
8.000 6.400 1.600 0 175 0
8.000 7.200 1.600 0 175 0
8.000 7.200 2.000 0 175 0
8.000 7.600 2.800 0 175 0
8.000 8.400 0.400 0 175 0
8.000 8.400 2.400 0 175 0
8.000 8.800 2.800 0 175 0
8.000 9.600 0.400 0 175 0
8.000 10.000 2.000 0 175 0
8.000 10.400 1.600 0 175 0
8.000 10.400 2.800 0 175 0
8.000 10.800 0.400 0 175 0
8.000 10.800 1.200 0 175 0
8.000 10.800 2.000 0 175 0
8.000 10.800 2.400 0 175 0
8.000 11.200 1.200 0 175 0
8.000 11.200 1.600 0 175 0
8.000 11.200 2.400 0 175 0
8.000 11.600 1.600 0 175 0
8.000 14.800 1.600 0 175 0
8.000 18.800 0.400 0 175 0
8.000 19.600 0.400 0 175 0
8.000 20.000 0.400 0 175 0
8.000 20.800 0.400 0 175 0
8.000 28.800 0.400 0 175 0
8.000 29.200 0.400 0 175 0
8.000 29.600 0.400 0 175 0
8.000 30.000 0.400 0 175 0
8.000 30.400 0.400 0 175 0
8.000 30.800 0.400 0 175 0
8.000 31.200 0.400 0 175 0
8.000 31.600 0.400 0 175 0
8.000 32.000 1.200 0 175 0
8.000 32.000 1.600 0 175 0
8.000 32.000 2.000 0 175 0
8.000 32.000 2.400 0 175 0
8.000 32.400 0.800 0 175 0
8.000 32.400 1.200 0 175 0
8.000 32.400 1.600 0 175 0
8.000 32.400 2.000 0 175 0
8.000 32.400 2.400 0 175 0
8.000 32.800 1.200 0 175 0
8.000 33.200 0.800 0 175 0
8.000 33.200 1.200 0 175 0
8.000 33.200 2.000 0 175 0
8.000 33.600 0.400 0 175 0
8.000 33.600 2.000 0 175 0
8.000 33.600 2.400 0 175 0
8.000 34.000 0.400 0 175 0
8.000 35.200 0.400 0 175 0
8.000 36.000 0.400 0 175 0
8.000 36.400 0.400 0 175 0
8.000 37.200 0.400 0 175 0
8.000 37.600 0.400 0 175 0
8.000 47.600 0.000 0 175 0
8.400 4.000 0.800 0 175 0
8.400 4.400 0.800 0 175 0
8.400 4.400 1.200 0 175 0
8.400 5.600 2.400 0 175 0
8.400 6.000 2.400 0 175 0
8.400 6.400 1.600 0 175 0
8.400 6.800 1.600 0 175 0
8.400 7.200 2.400 0 175 0
8.400 7.600 1.600 0 175 0
8.400 7.600 2.000 0 175 0
8.400 8.000 2.000 0 175 0
8.400 8.000 2.400 0 175 0
8.400 8.400 2.400 0 175 0
8.400 8.800 2.800 0 175 0
8.400 9.600 1.200 0 175 0
8.400 10.400 1.200 0 175 0
8.400 10.800 0.800 0 175 0
8.400 10.800 1.200 0 175 0
8.400 10.800 2.000 0 175 0
8.400 11.200 0.400 0 175 0
8.400 11.600 0.800 0 175 0
8.400 19.200 0.400 0 175 0
8.400 20.000 0.400 0 175 0
8.400 20.800 0.400 0 175 0
8.400 28.800 0.400 0 175 0
8.400 29.200 0.400 0 175 0
8.400 29.600 0.400 0 175 0
8.400 30.000 0.400 0 175 0
8.400 30.400 0.400 0 175 0
8.400 30.800 0.400 0 175 0
8.400 32.000 0.400 0 175 0
8.400 32.400 0.400 0 175 0
8.400 32.400 0.800 0 175 0
8.400 32.400 1.200 0 175 0
8.400 32.400 1.600 0 175 0
8.400 32.400 2.000 0 175 0
8.400 32.400 2.400 0 175 0
8.400 32.800 1.600 0 175 0
8.400 32.800 2.000 0 175 0
8.400 33.200 2.400 0 175 0
8.400 34.800 0.400 0 175 0
8.400 34.800 2.400 0 175 0
8.400 35.600 0.400 0 175 0
8.400 36.000 0.400 0 175 0
8.400 36.400 0.400 0 175 0
8.400 36.800 0.400 0 175 0
8.400 37.200 0.400 0 175 0
8.400 47.600 0.000 0 175 0
8.400 49.600 0.000 0 175 0
8.800 3.600 0.800 0 175 0
8.800 3.600 1.200 0 175 0
8.800 4.000 0.800 0 175 0
8.800 4.000 1.200 0 175 0
8.800 4.800 1.200 0 175 0
8.800 5.200 2.000 0 175 0
8.800 6.000 1.600 0 175 0
8.800 6.000 2.000 0 175 0
8.800 6.400 0.800 0 175 0
8.800 6.400 2.400 0 175 0
8.800 6.800 0.800 0 175 0
8.800 7.600 2.800 0 175 0
8.800 8.800 2.000 0 175 0
8.800 8.800 2.400 0 175 0
8.800 9.200 1.600 0 175 0
8.800 9.200 2.000 0 175 0
8.800 9.600 2.000 0 175 0
8.800 10.000 1.200 0 175 0
8.800 10.400 0.800 0 175 0
8.800 10.400 1.600 0 175 0
8.800 19.600 0.400 0 175 0
8.800 20.400 0.400 0 175 0
8.800 20.800 0.400 0 175 0
8.800 28.000 0.400 0 175 0
8.800 28.400 0.400 0 175 0
8.800 28.800 0.400 0 175 0
8.800 30.000 0.400 0 175 0
8.800 31.600 0.400 0 175 0
8.800 32.000 2.400 0 175 0
8.800 32.400 0.400 0 175 0
8.800 34.000 0.400 0 175 0
8.800 34.800 0.400 0 175 0
8.800 34.800 2.400 0 175 0
8.800 35.200 0.400 0 175 0
8.800 35.200 2.400 0 175 0
8.800 36.000 0.400 0 175 0
8.800 36.800 0.400 0 175 0
8.800 37.200 0.400 0 175 0
8.800 47.600 0.000 0 175 0
9.200 8.400 2.400 0 175 0
9.200 8.800 2.400 0 175 0
9.200 9.600 2.000 0 175 0
9.200 10.000 2.000 0 175 0
9.200 10.400 1.200 0 175 0
9.200 10.400 1.600 0 175 0
9.200 10.400 2.000 0 175 0
9.200 10.800 0.800 0 175 0
9.200 10.800 2.800 0 175 0
9.200 11.200 1.600 0 175 0
9.200 11.200 2.000 0 175 0
9.200 11.600 2.000 0 175 0
9.200 19.200 0.400 0 175 0
9.200 20.000 0.400 0 175 0
9.200 20.800 0.400 0 175 0
9.200 28.400 0.400 0 175 0
9.200 29.200 0.400 0 175 0
9.200 30.400 0.400 0 175 0
9.200 31.200 0.400 0 175 0
9.200 32.000 0.400 0 175 0
9.200 32.400 0.400 0 175 0
9.200 34.400 0.400 0 175 0
9.200 35.600 0.400 0 175 0
9.200 36.400 0.400 0 175 0
9.200 38.400 0.400 0 175 0
9.200 47.600 0.000 0 175 0
9.200 49.200 0.000 0 175 0
9.600 8.800 2.400 0 175 0
9.600 9.200 2.400 0 175 0
9.600 9.600 2.000 0 175 0
9.600 9.600 2.400 0 175 0
9.600 10.000 2.000 0 175 0
9.600 10.000 2.400 0 175 0
9.600 10.000 2.800 0 175 0
9.600 10.400 2.400 0 175 0
9.600 10.400 2.800 0 175 0
9.600 10.800 0.800 0 175 0
9.600 10.800 1.200 0 175 0
9.600 10.800 1.600 0 175 0
9.600 10.800 2.800 0 175 0
9.600 11.200 1.200 0 175 0
9.600 11.200 1.600 0 175 0
9.600 11.200 2.000 0 175 0
9.600 11.200 2.800 0 175 0
9.600 11.600 1.200 0 175 0
9.600 11.600 2.000 0 175 0
9.600 11.600 2.400 0 175 0
9.600 19.600 0.400 0 175 0
9.600 20.400 0.400 0 175 0
9.600 28.400 0.400 0 175 0
9.600 29.200 0.400 0 175 0
9.600 29.600 0.400 0 175 0
9.600 31.200 0.400 0 175 0
9.600 31.600 0.400 0 175 0
9.600 32.000 0.400 0 175 0
9.600 32.800 0.400 0 175 0
9.600 34.800 0.400 0 175 0
9.600 35.600 0.400 0 175 0
9.600 36.000 0.400 0 175 0
9.600 38.000 0.400 0 175 0
9.600 39.600 0.400 0 175 0
9.600 48.800 0.000 0 175 0
9.600 50.800 0.000 0 175 0
9.600 50.800 0.800 0 175 0
10.000 10.800 0.800 0 175 0
10.000 11.200 0.800 0 175 0
10.000 12.000 1.200 0 175 0
10.000 12.000 1.600 0 175 0
10.000 12.000 2.000 0 175 0
10.000 12.000 2.400 0 175 0
10.000 12.400 1.600 0 175 0
10.000 12.400 2.000 0 175 0
10.000 20.000 0.400 0 175 0
10.000 20.800 0.400 0 175 0
10.000 28.400 0.400 0 175 0
10.000 28.800 0.400 0 175 0
10.000 30.400 0.400 0 175 0
10.000 30.800 0.400 0 175 0
10.000 31.600 0.400 0 175 0
10.000 32.000 0.400 0 175 0
10.000 32.400 0.400 0 175 0
10.000 33.200 0.400 0 175 0
10.000 35.600 0.400 0 175 0
10.000 37.600 0.400 0 175 0
10.000 38.400 0.400 0 175 0
10.000 38.800 0.400 0 175 0
10.000 40.000 0.400 0 175 0
10.000 40.400 0.400 0 175 0
10.000 40.800 0.400 0 175 0
10.000 50.800 0.000 0 175 0
10.400 7.600 2.800 0 175 0
10.400 8.400 2.800 0 175 0
10.400 11.600 1.200 0 175 0
10.400 12.000 0.800 0 175 0
10.400 12.400 1.200 0 175 0
10.400 12.400 1.600 0 175 0
10.400 12.400 2.000 0 175 0
10.400 12.400 2.400 0 175 0
10.400 12.800 2.000 0 175 0
10.400 18.800 0.800 0 175 0
10.400 18.800 1.200 0 175 0
10.400 18.800 1.600 0 175 0
10.400 18.800 2.000 0 175 0
10.400 18.800 2.400 0 175 0
10.400 19.600 0.400 0 175 0
10.400 20.400 0.400 0 175 0
10.400 20.800 0.400 0 175 0
10.400 27.600 0.400 0 175 0
10.400 28.000 0.400 0 175 0
10.400 29.600 0.400 0 175 0
10.400 30.000 0.400 0 175 0
10.400 30.800 0.400 0 175 0
10.400 31.600 0.400 0 175 0
10.400 35.600 0.400 0 175 0
10.400 36.800 0.400 0 175 0
10.400 38.000 0.400 0 175 0
10.400 38.400 0.400 0 175 0
10.400 39.600 0.400 0 175 0
10.400 40.000 0.400 0 175 0
10.400 50.400 0.000 0 175 0
10.800 11.200 0.800 0 175 0
10.800 12.000 0.800 0 175 0
10.800 12.000 1.200 0 175 0
10.800 12.000 2.000 0 175 0
10.800 12.400 1.200 0 175 0
10.800 12.400 1.600 0 175 0
10.800 12.800 0.800 0 175 0
10.800 12.800 1.200 0 175 0
10.800 12.800 2.000 0 175 0
10.800 20.000 0.400 0 175 0
10.800 20.800 0.400 0 175 0
10.800 29.200 0.400 0 175 0
10.800 30.000 0.400 0 175 0
10.800 30.400 0.400 0 175 0
10.800 30.800 0.400 0 175 0
10.800 32.000 0.400 0 175 0
10.800 32.800 0.400 0 175 0
10.800 33.200 0.400 0 175 0
10.800 33.600 0.400 0 175 0
10.800 34.000 0.400 0 175 0
10.800 36.000 0.400 0 175 0
10.800 36.400 0.400 0 175 0
10.800 37.200 0.400 0 175 0
10.800 37.600 0.400 0 175 0
10.800 39.200 0.400 0 175 0
10.800 41.600 0.400 0 175 0
10.800 46.800 0.000 0 175 0
10.800 48.800 0.000 0 175 0
10.800 50.000 0.000 0 175 0
11.200 12.000 0.800 0 175 0
11.200 12.000 2.800 0 175 0
11.200 12.400 2.400 0 175 0
11.200 12.400 2.800 0 175 0
11.200 12.800 0.800 0 175 0
11.200 12.800 1.600 0 175 0
11.200 12.800 2.000 0 175 0
11.200 12.800 2.400 0 175 0
11.200 13.200 1.200 0 175 0
11.200 13.200 1.600 0 175 0
11.200 20.000 0.400 0 175 0
11.200 20.400 0.400 0 175 0
11.200 22.400 0.800 0 175 0
11.200 28.000 0.400 0 175 0
11.200 28.400 0.400 0 175 0
11.200 29.200 0.400 0 175 0
11.200 29.600 0.400 0 175 0
11.200 30.000 0.400 0 175 0
11.200 30.800 0.400 0 175 0
11.200 31.200 0.400 0 175 0
11.200 32.000 0.400 0 175 0
11.200 33.200 0.400 0 175 0
11.200 34.400 0.400 0 175 0
11.200 36.800 0.400 0 175 0
11.200 38.400 0.400 0 175 0
11.200 40.800 0.400 0 175 0
11.200 48.400 0.000 0 175 0
11.200 49.600 0.000 0 175 0
11.600 12.800 0.800 0 175 0
11.600 12.800 2.400 0 175 0
11.600 12.800 2.800 0 175 0
11.600 13.200 0.800 0 175 0
11.600 13.200 1.200 0 175 0
11.600 13.200 1.600 0 175 0
11.600 13.200 2.000 0 175 0
11.600 13.200 2.400 0 175 0
11.600 13.600 0.800 0 175 0
11.600 13.600 1.200 0 175 0
11.600 17.200 0.800 0 175 0
11.600 20.400 0.400 0 175 0
11.600 20.800 0.400 0 175 0
11.600 21.200 0.400 0 175 0
11.600 21.200 0.800 0 175 0
11.600 21.200 1.200 0 175 0
11.600 21.600 0.400 0 175 0
11.600 21.600 0.800 0 175 0
11.600 21.600 1.200 0 175 0
11.600 21.600 1.600 0 175 0
11.600 22.000 0.800 0 175 0
11.600 22.000 1.200 0 175 0
11.600 22.000 1.600 0 175 0
11.600 22.400 0.800 0 175 0
11.600 22.400 1.200 0 175 0
11.600 22.400 1.600 0 175 0
11.600 22.800 0.800 0 175 0
11.600 22.800 1.200 0 175 0
11.600 28.400 0.400 0 175 0
11.600 28.800 0.400 0 175 0
11.600 29.200 0.400 0 175 0
11.600 30.400 0.400 0 175 0
11.600 31.200 0.400 0 175 0
11.600 31.600 0.400 0 175 0
11.600 32.400 0.400 0 175 0
11.600 33.600 0.400 0 175 0
11.600 34.800 0.400 0 175 0
11.600 37.200 0.400 0 175 0
11.600 37.600 0.400 0 175 0
11.600 39.600 0.400 0 175 0
11.600 40.000 0.400 0 175 0
11.600 46.400 0.000 0 175 0
11.600 48.000 0.000 0 175 0
11.600 49.200 0.000 0 175 0
12.000 9.600 1.200 0 175 0
12.000 12.400 2.800 0 175 0
12.000 12.800 1.600 0 175 0
12.000 12.800 2.000 0 175 0
12.000 13.200 1.600 0 175 0
12.000 13.200 2.000 0 175 0
12.000 13.200 2.400 0 175 0
12.000 13.600 0.800 0 175 0
12.000 13.600 1.200 0 175 0
12.000 13.600 2.400 0 175 0
12.000 17.600 0.800 0 175 0
12.000 18.000 0.800 0 175 0
12.000 20.000 0.400 0 175 0
12.000 20.800 0.400 0 175 0
12.000 21.200 0.400 0 175 0
12.000 21.600 0.400 0 175 0
12.000 21.600 1.600 0 175 0
12.000 22.000 0.400 0 175 0
12.000 22.000 2.000 0 175 0
12.000 22.800 0.400 0 175 0
12.000 22.800 0.800 0 175 0
12.000 22.800 1.200 0 175 0
12.000 22.800 1.600 0 175 0
12.000 23.200 0.400 0 175 0
12.000 23.600 0.400 0 175 0
12.000 27.600 0.400 0 175 0
12.000 28.000 0.400 0 175 0
12.000 28.400 0.400 0 175 0
12.000 29.600 0.400 0 175 0
12.000 30.400 0.400 0 175 0
12.000 30.800 0.400 0 175 0
12.000 32.000 0.400 0 175 0
12.000 32.800 0.400 0 175 0
12.000 34.000 0.400 0 175 0
12.000 34.400 0.400 0 175 0
12.000 38.800 0.400 0 175 0
12.000 46.000 0.000 0 175 0
12.000 48.800 0.000 0 175 0
12.400 9.600 1.200 0 175 0
12.400 10.800 0.800 0 175 0
12.400 12.800 2.400 0 175 0
12.400 13.200 1.600 0 175 0
12.400 13.200 2.000 0 175 0
12.400 13.600 0.800 0 175 0
12.400 13.600 1.200 0 175 0
12.400 13.600 1.600 0 175 0
12.400 13.600 2.000 0 175 0
12.400 13.600 2.800 0 175 0
12.400 14.000 0.800 0 175 0
12.400 14.000 1.600 0 175 0
12.400 20.800 0.400 0 175 0
12.400 21.200 0.400 0 175 0
12.400 22.400 2.000 0 175 0
12.400 22.800 0.800 0 175 0
12.400 22.800 1.200 0 175 0
12.400 23.200 0.400 0 175 0
12.400 23.600 0.400 0 175 0
12.400 24.000 0.400 0 175 0
12.400 27.600 0.400 0 175 0
12.400 28.800 0.400 0 175 0
12.400 30.000 0.400 0 175 0
12.400 31.200 0.400 0 175 0
12.400 32.000 0.400 0 175 0
12.400 33.600 0.400 0 175 0
12.400 34.800 0.400 0 175 0
12.400 38.000 0.400 0 175 0
12.400 40.400 0.400 0 175 0
12.400 45.600 0.000 0 175 0
12.400 47.600 0.000 0 175 0
12.800 9.200 1.200 0 175 0
12.800 13.200 2.000 0 175 0
12.800 13.600 1.600 0 175 0
12.800 13.600 2.000 0 175 0
12.800 13.600 2.400 0 175 0
12.800 14.000 0.800 0 175 0
12.800 14.000 1.600 0 175 0
12.800 14.400 1.200 0 175 0
12.800 14.400 1.600 0 175 0
12.800 17.200 0.800 0 175 0
12.800 17.600 0.800 0 175 0
12.800 20.400 0.400 0 175 0
12.800 21.600 1.600 0 175 0
12.800 22.000 0.400 0 175 0
12.800 22.400 0.400 0 175 0
12.800 22.800 0.400 0 175 0
12.800 22.800 0.800 0 175 0
12.800 22.800 1.200 0 175 0
12.800 27.600 0.400 0 175 0
12.800 28.000 0.400 0 175 0
12.800 29.200 0.400 0 175 0
12.800 30.400 0.400 0 175 0
12.800 31.600 0.400 0 175 0
12.800 32.800 0.400 0 175 0
12.800 34.000 0.400 0 175 0
12.800 35.600 0.400 0 175 0
12.800 38.800 0.400 0 175 0
12.800 39.200 0.400 0 175 0
12.800 47.200 0.000 0 175 0
12.800 48.400 0.000 0 175 0
12.800 50.800 0.000 0 175 0
13.200 13.200 2.400 0 175 0
13.200 13.200 2.800 0 175 0
13.200 13.600 2.000 0 175 0
13.200 13.600 2.400 0 175 0
13.200 14.000 0.800 0 175 0
13.200 14.000 1.600 0 175 0
13.200 14.400 0.800 0 175 0
13.200 14.400 1.200 0 175 0
13.200 17.600 0.800 0 175 0
13.200 18.000 0.800 0 175 0
13.200 21.600 0.400 0 175 0
13.200 21.600 1.600 0 175 0
13.200 22.000 0.400 0 175 0
13.200 22.800 0.800 0 175 0
13.200 22.800 1.200 0 175 0
13.200 24.000 0.400 0 175 0
13.200 24.400 0.400 0 175 0
13.200 24.800 0.400 0 175 0
13.200 25.200 0.400 0 175 0
13.200 25.600 0.400 0 175 0
13.200 28.000 0.400 0 175 0
13.200 28.400 0.400 0 175 0
13.200 29.200 0.400 0 175 0
13.200 29.600 0.400 0 175 0
13.200 30.400 0.400 0 175 0
13.200 30.800 0.400 0 175 0
13.200 32.400 0.400 0 175 0
13.200 33.600 0.400 0 175 0
13.200 34.800 0.400 0 175 0
13.200 48.000 0.000 0 175 0
13.200 49.600 0.000 0 175 0
13.600 13.200 2.800 0 175 0
13.600 13.600 2.000 0 175 0
13.600 14.000 1.600 0 175 0
13.600 14.400 0.800 0 175 0
13.600 14.400 1.200 0 175 0
13.600 16.400 0.800 0 175 0
13.600 18.400 0.800 0 175 0
13.600 23.200 0.400 0 175 0
13.600 23.600 0.400 0 175 0
13.600 24.000 0.400 0 175 0
13.600 24.400 0.400 0 175 0
13.600 24.800 0.400 0 175 0
13.600 27.200 0.400 0 175 0
13.600 27.600 0.400 0 175 0
13.600 28.000 0.400 0 175 0
13.600 28.400 0.400 0 175 0
13.600 28.800 0.400 0 175 0
13.600 29.200 0.400 0 175 0
13.600 30.000 0.400 0 175 0
13.600 30.800 0.400 0 175 0
13.600 31.200 0.400 0 175 0
13.600 31.600 0.400 0 175 0
13.600 32.000 0.400 0 175 0
13.600 32.400 0.400 0 175 0
13.600 32.800 0.400 0 175 0
13.600 33.200 0.400 0 175 0
13.600 34.400 0.400 0 175 0
13.600 36.000 0.400 0 175 0
13.600 40.000 0.400 0 175 0
13.600 44.800 0.000 0 175 0
13.600 46.800 0.000 0 175 0
14.000 13.600 2.000 0 175 0
14.000 13.600 2.400 0 175 0
14.000 14.000 1.600 0 175 0
14.000 14.000 2.000 0 175 0
14.000 14.000 2.400 0 175 0
14.000 15.200 0.800 0 175 0
14.000 17.200 0.800 0 175 0
14.000 17.600 0.800 0 175 0
14.000 18.800 0.800 0 175 0
14.000 18.800 1.200 0 175 0
14.000 18.800 1.600 0 175 0
14.000 22.800 0.400 0 175 0
14.000 22.800 1.600 0 175 0
14.000 23.200 0.400 0 175 0
14.000 27.200 0.400 0 175 0
14.000 27.600 0.400 0 175 0
14.000 28.400 0.400 0 175 0
14.000 28.800 0.400 0 175 0
14.000 29.200 0.400 0 175 0
14.000 29.600 0.400 0 175 0
14.000 33.600 0.400 0 175 0
14.000 46.400 0.000 0 175 0
14.000 47.600 0.000 0 175 0
14.400 13.600 2.800 0 175 0
14.400 14.000 0.800 0 175 0
14.400 14.000 1.600 0 175 0
14.400 14.000 2.000 0 175 0
14.400 14.000 2.400 0 175 0
14.400 14.400 0.800 0 175 0
14.400 14.400 1.200 0 175 0
14.400 14.400 1.600 0 175 0
14.400 14.400 2.000 0 175 0
14.400 14.400 2.400 0 175 0
14.400 14.400 2.800 0 175 0
14.400 14.800 1.200 0 175 0
14.400 15.600 0.800 0 175 0
14.400 16.000 0.800 0 175 0
14.400 18.000 0.800 0 175 0
14.400 18.800 0.800 0 175 0
14.400 18.800 1.200 0 175 0
14.400 18.800 1.600 0 175 0
14.400 22.800 0.400 0 175 0
14.400 22.800 1.200 0 175 0
14.400 25.200 0.400 0 175 0
14.400 25.600 0.400 0 175 0
14.400 26.000 0.400 0 175 0
14.400 26.400 0.400 0 175 0
14.400 26.800 0.400 0 175 0
14.400 27.200 0.400 0 175 0
14.400 27.600 0.400 0 175 0
14.400 44.400 0.000 0 175 0
14.400 47.200 0.000 0 175 0
14.800 14.000 0.800 0 175 0
14.800 14.400 0.800 0 175 0
14.800 14.800 0.800 0 175 0
14.800 16.400 0.800 0 175 0
14.800 16.800 0.800 0 175 0
14.800 17.200 0.800 0 175 0
14.800 18.800 0.800 0 175 0
14.800 22.800 0.800 0 175 0
14.800 23.600 0.400 0 175 0
14.800 24.000 0.400 0 175 0
14.800 24.400 0.400 0 175 0
14.800 24.800 0.400 0 175 0
14.800 25.200 0.400 0 175 0
14.800 25.600 0.400 0 175 0
14.800 26.000 0.400 0 175 0
14.800 26.400 0.400 0 175 0
14.800 26.800 0.400 0 175 0
14.800 27.200 0.400 0 175 0
14.800 46.800 0.000 0 175 0
15.200 14.800 0.800 0 175 0
15.200 15.200 0.800 0 175 0
15.200 15.600 0.800 0 175 0
15.200 18.000 0.800 0 175 0
15.200 22.400 0.400 0 175 0
15.200 22.800 0.400 0 175 0
15.200 27.200 0.400 0 175 0
15.600 15.200 0.800 0 175 0
15.600 16.000 0.800 0 175 0
15.600 24.800 0.400 0 175 0
15.600 25.200 0.400 0 175 0
15.600 25.600 0.400 0 175 0
15.600 26.000 0.400 0 175 0
15.600 26.400 0.400 0 175 0
15.600 26.800 0.400 0 175 0
15.600 46.400 0.000 0 175 0
15.600 46.400 0.400 0 175 0
16.000 13.200 1.600 0 175 0
16.000 14.000 0.800 0 175 0
16.000 15.200 0.800 0 175 0
16.000 15.600 0.800 0 175 0
16.000 18.400 0.800 0 175 0
16.000 22.800 0.400 0 175 0
16.000 23.200 0.400 0 175 0
16.000 23.600 0.400 0 175 0
16.000 45.200 0.000 0 175 0
16.000 46.000 0.000 0 175 0
16.000 46.000 0.400 0 175 0
16.000 49.600 0.400 0 175 0
16.400 12.800 2.000 0 175 0
16.400 13.200 1.600 0 175 0
16.400 14.400 0.800 0 175 0
16.400 16.000 0.800 0 175 0
16.400 16.400 0.800 0 175 0
16.400 16.800 0.800 0 175 0
16.400 30.800 0.800 0 175 0
16.400 34.800 1.200 0 175 0
16.400 34.800 1.600 0 175 0
16.400 34.800 2.000 0 175 0
16.400 34.800 2.400 0 175 0
16.400 34.800 2.800 0 175 0
16.400 44.800 0.000 0 175 0
16.400 49.200 0.400 0 175 0
16.800 12.800 1.600 0 175 0
16.800 12.800 2.000 0 175 0
16.800 13.600 1.600 0 175 0
16.800 14.000 1.600 0 175 0
16.800 14.800 0.800 0 175 0
16.800 18.000 0.800 0 175 0
16.800 22.400 0.400 0 175 0
16.800 22.800 0.400 0 175 0
16.800 26.800 0.400 0 175 0
16.800 29.200 0.800 0 175 0
16.800 29.600 0.800 0 175 0
16.800 44.400 0.000 0 175 0
16.800 45.600 0.400 0 175 0
17.200 13.600 2.000 0 175 0
17.200 14.800 0.800 0 175 0
17.200 15.200 0.800 0 175 0
17.200 18.000 0.800 0 175 0
17.200 18.400 0.800 0 175 0
17.200 27.600 0.800 0 175 0
17.200 32.400 0.800 0 175 0
17.200 34.400 1.600 0 175 0
17.200 36.000 1.600 0 175 0
17.200 48.800 0.400 0 175 0
17.600 13.600 2.000 0 175 0
17.600 15.600 0.800 0 175 0
17.600 18.400 0.800 0 175 0
17.600 26.800 0.400 0 175 0
17.600 34.800 1.600 0 175 0
17.600 36.400 1.600 0 175 0
17.600 44.000 0.000 0 175 0
17.600 45.200 0.400 0 175 0
17.600 45.600 0.400 0 175 0
17.600 46.000 0.400 0 175 0
17.600 48.400 0.400 0 175 0
18.000 16.000 0.800 0 175 0
18.000 17.600 0.800 0 175 0
18.000 22.400 0.400 0 175 0
18.000 22.800 0.400 0 175 0
18.000 23.200 0.400 0 175 0
18.000 23.600 0.400 0 175 0
18.000 24.000 0.400 0 175 0
18.000 24.400 0.400 0 175 0
18.000 24.800 0.400 0 175 0
18.000 25.200 0.400 0 175 0
18.000 25.600 0.400 0 175 0
18.000 26.000 0.400 0 175 0
18.000 26.400 0.400 0 175 0
18.000 29.600 0.800 0 175 0
18.000 30.000 0.800 0 175 0
18.000 32.400 0.800 0 175 0
18.000 32.800 0.800 0 175 0
18.000 36.800 1.200 0 175 0
18.000 44.800 0.400 0 175 0
18.000 47.200 0.400 0 175 0
18.000 47.600 0.400 0 175 0
18.000 48.000 0.400 0 175 0
18.400 11.600 2.400 0 175 0
18.400 18.000 0.800 0 175 0
18.400 20.800 2.000 0 175 0
18.400 21.200 2.000 0 175 0
18.400 21.600 1.600 0 175 0
18.400 22.000 1.200 0 175 0
18.400 27.600 0.800 0 175 0
18.400 29.600 0.800 0 175 0
18.400 32.400 0.800 0 175 0
18.400 44.400 0.400 0 175 0
18.800 17.600 2.000 0 175 0
18.800 17.600 2.400 0 175 0
18.800 21.600 1.600 0 175 0
18.800 21.600 2.000 0 175 0
18.800 22.000 1.200 0 175 0
18.800 27.200 0.800 0 175 0
18.800 30.000 0.800 0 175 0
18.800 30.400 0.800 0 175 0
18.800 31.600 0.800 0 175 0
18.800 32.000 0.800 0 175 0
18.800 44.000 0.400 0 175 0
18.800 48.800 0.400 0 175 0
19.200 17.600 1.200 0 175 0
19.200 17.600 1.600 0 175 0
19.200 17.600 2.000 0 175 0
19.200 17.600 2.400 0 175 0
19.200 17.600 2.800 0 175 0
19.200 20.400 2.000 0 175 0
19.200 29.600 0.800 0 175 0
19.200 30.000 0.800 0 175 0
19.200 30.400 0.800 0 175 0
19.200 30.800 0.800 0 175 0
19.200 31.200 0.800 0 175 0
19.200 48.000 0.400 0 175 0
19.200 48.400 0.400 0 175 0
19.600 16.800 0.800 0 175 0
19.600 18.000 1.200 0 175 0
19.600 18.000 1.600 0 175 0
19.600 18.400 0.800 0 175 0
19.600 28.000 0.800 0 175 0
19.600 28.400 0.800 0 175 0
19.600 28.800 0.800 0 175 0
19.600 29.200 0.800 0 175 0
19.600 29.600 0.800 0 175 0
19.600 47.200 0.400 0 175 0
19.600 48.000 0.400 0 175 0
20.000 26.800 0.800 0 175 0
20.000 27.200 0.800 0 175 0
20.000 27.600 0.800 0 175 0
20.000 30.800 0.800 0 175 0
20.000 31.200 0.800 0 175 0
20.000 46.800 0.400 0 175 0
20.400 10.800 1.200 0 175 0
20.400 28.800 0.800 0 175 0
20.400 29.600 0.800 0 175 0
20.400 30.000 0.800 0 175 0
20.400 30.400 0.800 0 175 0
20.400 46.400 0.400 0 175 0
20.800 10.400 1.600 0 175 0
20.800 26.800 0.800 0 175 0
20.800 27.600 0.800 0 175 0
20.800 28.000 0.800 0 175 0
20.800 28.400 0.800 0 175 0
20.800 30.800 0.800 0 175 0
20.800 46.000 0.400 0 175 0
21.200 10.000 1.200 0 175 0
21.200 11.200 1.200 0 175 0
21.200 26.400 0.800 0 175 0
21.200 27.200 0.800 0 175 0
21.200 27.600 0.800 0 175 0
21.200 29.600 0.800 0 175 0
21.200 30.400 0.800 0 175 0
21.200 30.800 0.800 0 175 0
21.200 32.400 0.800 0 175 0
21.200 32.800 0.800 0 175 0
21.200 33.200 0.800 0 175 0
21.600 10.000 2.000 0 175 0
21.600 10.800 1.200 0 175 0
21.600 22.000 0.400 0 175 0
21.600 22.400 0.400 0 175 0
21.600 22.800 0.400 0 175 0
21.600 23.200 0.400 0 175 0
21.600 23.600 0.400 0 175 0
21.600 24.000 0.400 0 175 0
21.600 24.400 0.400 0 175 0
21.600 30.000 0.800 0 175 0
22.000 10.800 1.200 0 175 0
22.000 11.200 1.200 0 175 0
22.000 11.600 1.200 0 175 0
22.000 26.000 0.800 0 175 0
22.000 26.800 0.800 0 175 0
22.000 27.200 0.800 0 175 0
22.000 27.600 0.800 0 175 0
22.000 28.000 0.800 0 175 0
22.000 28.400 0.800 0 175 0
22.000 28.800 0.800 0 175 0
22.000 29.200 0.800 0 175 0
22.000 29.600 0.800 0 175 0
22.000 30.000 0.800 0 175 0
22.000 30.800 1.600 0 175 0
22.000 42.000 0.400 0 175 0
22.400 12.000 1.200 0 175 0
22.400 26.400 0.800 0 175 0
22.400 26.800 0.800 0 175 0
22.400 41.600 0.400 0 175 0
22.800 10.400 1.200 0 175 0
22.800 12.000 1.200 0 175 0
22.800 26.000 0.800 0 175 0
22.800 32.400 0.800 0 175 0
22.800 32.800 0.800 0 175 0
22.800 41.200 0.400 0 175 0
22.800 50.000 0.400 0 175 0
23.200 10.800 1.200 0 175 0
23.200 25.600 0.800 0 175 0
23.600 25.600 0.800 0 175 0
23.600 40.800 0.400 0 175 0
24.000 25.200 0.800 0 175 0
24.000 26.400 0.800 0 175 0
24.000 40.400 0.400 0 175 0
24.400 16.400 2.000 0 175 0
24.400 16.800 1.600 0 175 0
24.400 28.000 1.200 0 175 0
24.800 25.200 0.800 0 175 0
24.800 25.600 0.800 0 175 0
24.800 26.000 0.800 0 175 0
24.800 28.800 1.200 0 175 0
24.800 28.800 2.400 0 175 0
24.800 40.000 0.400 0 175 0
24.800 44.400 0.800 0 175 0
25.200 28.800 1.600 0 175 0
25.200 28.800 2.000 0 175 0
25.200 31.200 0.800 0 175 0
25.200 39.600 0.400 0 175 0
25.200 43.600 0.800 0 175 0
25.600 39.200 0.400 0 175 0
25.600 43.200 0.800 0 175 0
26.000 6.800 2.000 0 175 0
26.000 24.400 0.800 0 175 0
26.000 38.000 0.400 0 175 0
26.000 42.800 0.800 0 175 0
26.000 43.200 0.800 0 175 0
26.400 38.800 0.400 0 175 0
26.400 42.400 0.800 0 175 0
26.800 8.000 2.000 0 175 0
26.800 8.400 1.200 0 175 0
26.800 8.400 2.000 0 175 0
26.800 9.200 1.200 0 175 0
26.800 38.400 0.400 0 175 0
27.200 8.800 1.600 0 175 0
27.200 8.800 2.000 0 175 0
27.200 9.200 1.200 0 175 0
27.200 13.600 0.800 0 175 0
27.200 23.600 0.800 0 175 0
27.600 9.200 2.000 0 175 0
27.600 9.600 1.200 0 175 0
27.600 9.600 1.600 0 175 0
27.600 10.000 1.600 0 175 0
27.600 38.000 0.400 0 175 0
28.000 9.600 2.000 0 175 0
28.000 10.000 1.200 0 175 0
28.000 10.400 1.600 0 175 0
28.000 23.600 0.800 0 175 0
28.000 37.600 0.400 0 175 0
28.400 10.400 1.200 0 175 0
28.400 10.800 1.200 0 175 0
28.400 10.800 1.600 0 175 0
28.400 11.200 1.600 0 175 0
28.400 23.200 0.800 0 175 0
28.400 37.600 0.800 0 175 0
28.400 38.000 0.800 0 175 0
28.400 42.000 0.800 0 175 0
28.800 11.200 1.600 0 175 0
28.800 36.000 0.400 0 175 0
28.800 37.200 0.400 0 175 0
28.800 37.200 0.800 0 175 0
28.800 41.200 0.800 0 175 0
29.200 24.400 1.200 0 175 0
29.200 36.800 0.400 0 175 0
29.200 36.800 0.800 0 175 0
29.200 40.800 0.800 0 175 0
29.200 47.200 0.800 0 175 0
29.600 22.400 0.800 0 175 0
30.000 21.200 0.800 0 175 0
30.000 21.600 0.800 0 175 0
30.000 22.000 0.800 0 175 0
30.000 40.400 0.800 0 175 0
30.400 10.000 2.000 0 175 0
30.400 12.400 0.800 0 175 0
30.400 24.000 1.200 0 175 0
30.400 36.000 0.400 0 175 0
30.800 3.600 2.000 0 175 0
30.800 35.600 0.400 0 175 0
30.800 39.200 0.800 0 175 0
30.800 39.600 0.800 0 175 0
30.800 47.600 1.200 0 175 0
31.200 21.600 0.800 0 175 0
31.200 25.200 1.200 0 175 0
31.200 25.200 1.600 0 175 0
31.200 25.200 2.000 0 175 0
31.200 25.200 2.400 0 175 0
31.200 25.200 2.800 0 175 0
31.200 25.200 3.200 0 175 0
31.200 38.800 0.800 0 175 0
31.600 35.200 0.400 0 175 0
31.600 38.800 0.800 0 175 0
31.600 44.000 3.200 0 175 0
32.000 21.200 0.800 0 175 0
32.000 34.800 0.400 0 175 0
32.000 34.800 0.800 0 175 0
32.000 35.200 0.800 0 175 0
32.000 38.400 0.800 0 175 0
32.000 38.800 1.200 0 175 0
32.000 38.800 1.600 0 175 0
32.000 44.400 3.200 0 175 0
32.400 20.800 0.800 0 175 0
32.400 35.600 0.800 0 175 0
32.400 36.000 0.800 0 175 0
32.400 38.000 0.800 0 175 0
32.400 38.400 1.200 0 175 0
32.400 38.400 1.600 0 175 0
32.800 14.000 1.600 0 175 0
32.800 19.600 0.800 0 175 0
32.800 34.400 0.800 0 175 0
33.200 34.000 0.800 0 175 0
33.600 8.000 2.000 0 175 0
33.600 33.600 0.800 0 175 0
33.600 42.400 2.000 0 175 0
33.600 42.400 2.400 0 175 0
33.600 42.400 3.200 0 175 0
34.400 20.000 1.600 0 175 0
34.400 21.600 1.200 0 175 0
34.400 21.600 2.000 0 175 0
34.400 33.200 0.800 0 175 0
34.800 0.400 3.200 0 175 0
34.800 3.600 2.800 0 175 0
34.800 3.600 3.200 0 175 0
34.800 3.600 3.600 0 175 0
34.800 4.400 3.200 0 175 0
34.800 4.400 3.600 0 175 0
34.800 18.400 2.400 0 175 0
34.800 19.200 2.400 0 175 0
34.800 19.600 1.600 0 175 0
34.800 21.600 2.400 0 175 0
34.800 21.600 3.200 0 175 0
34.800 32.800 0.800 0 175 0
35.200 0.000 2.800 0 175 0
35.200 0.400 3.200 0 175 0
35.200 3.200 3.600 0 175 0
35.200 4.800 3.200 0 175 0
35.200 4.800 3.600 0 175 0
35.200 18.800 2.400 0 175 0
35.200 19.200 2.000 0 175 0
35.200 20.000 2.000 0 175 0
35.200 20.000 2.400 0 175 0
35.200 20.400 1.600 0 175 0
35.200 20.400 2.000 0 175 0
35.200 20.400 2.400 0 175 0
35.200 20.800 1.600 0 175 0
35.200 20.800 2.400 0 175 0
35.600 20.000 1.600 0 175 0
35.600 20.000 2.000 0 175 0
35.600 20.400 1.200 0 175 0
35.600 20.800 1.200 0 175 0
35.600 32.400 0.400 0 175 0
35.600 32.400 0.800 0 175 0
36.000 5.200 3.600 0 175 0
36.000 19.200 3.200 0 175 0
36.000 19.600 2.000 0 175 0
36.000 21.600 3.200 0 175 0
36.000 32.000 0.400 0 175 0
36.400 20.000 2.000 0 175 0
36.400 21.200 1.600 0 175 0
36.400 35.200 0.800 0 175 0
36.800 34.800 0.800 0 175 0
36.800 39.600 0.800 0 175 0
37.200 18.400 3.200 0 175 0
37.200 31.200 0.800 0 175 0
37.200 33.200 0.800 0 175 0
37.200 34.800 0.800 0 175 0
37.200 39.200 0.800 0 175 0
38.000 34.000 0.800 0 175 0
38.000 36.000 1.200 0 175 0
38.400 35.200 1.200 0 175 0
38.400 35.200 1.600 0 175 0
38.400 35.200 2.000 0 175 0
38.400 35.200 2.800 0 175 0
38.400 35.200 3.200 0 175 0
38.400 35.600 2.000 0 175 0
38.400 35.600 3.200 0 175 0
38.800 30.000 0.800 0 175 0
39.600 7.600 1.200 0 175 0
39.600 29.600 0.800 0 175 0
39.600 34.400 1.200 0 175 0
39.600 34.400 1.600 0 175 0
40.000 0.000 2.800 0 175 0
40.000 0.000 3.200 0 175 0
40.000 29.200 0.800 0 175 0
40.800 17.600 1.200 0 175 0
40.800 37.600 3.600 0 175 0
41.200 28.400 0.800 0 175 0
41.200 37.200 3.200 0 175 0
41.600 28.000 0.800 0 175 0
42.400 27.600 0.800 0 175 0
42.400 35.200 3.600 0 175 0
42.400 37.600 3.600 0 175 0
42.800 16.800 2.000 0 175 0
42.800 16.800 3.200 0 175 0
42.800 27.200 0.800 0 175 0
42.800 38.400 3.600 0 175 0
43.200 16.400 2.000 0 175 0
43.200 36.000 3.200 0 175 0
43.600 16.000 2.800 0 175 0
43.600 16.000 3.200 0 175 0
43.600 37.200 3.200 0 175 0
44.000 30.400 1.200 0 175 0
44.000 36.000 3.600 0 175 0
44.400 15.600 3.600 0 175 0
44.800 15.200 2.800 0 175 0
44.800 15.200 3.200 0 175 0
45.200 29.600 1.200 0 175 0
46.000 14.400 2.000 0 175 0
46.400 28.800 1.200 0 175 0
47.200 11.600 3.200 0 175 0
47.200 12.000 2.800 0 175 0
47.200 24.400 0.800 0 175 0
47.200 24.400 1.200 0 175 0
47.600 24.000 0.800 0 175 0
47.600 24.000 1.200 0 175 0
47.600 27.600 1.200 0 175 0
48.000 13.200 2.800 0 175 0
48.000 13.200 3.200 0 175 0
48.400 23.600 0.800 0 175 0
48.400 25.600 2.000 0 175 0
48.400 25.600 2.800 0 175 0
48.400 25.600 3.200 0 175 0
48.400 26.000 3.200 0 175 0
48.800 26.000 2.000 0 175 0
